<svg width="50" height="66" viewBox="0 0 50 66" fill="none" xmlns="http://www.w3.org/2000/svg">
<mask id="mask0_66_499" style="mask-type:luminance" maskUnits="userSpaceOnUse" x="0" y="48" width="19" height="19">
<path d="M0 48.1851H18.1793V66.0068H0V48.1851Z" fill="white"/>
</mask>
<g mask="url(#mask0_66_499)">
<path d="M16.3882 53.9898C16.1596 53.3934 15.931 52.7986 15.7006 52.2021C15.4394 51.5197 15.0079 50.9473 14.5283 50.4041C13.772 49.5464 12.7974 49.1596 11.6835 49.1768C10.6178 49.1923 9.56066 49.3229 8.5379 49.6736C7.72485 49.9538 6.96336 50.3354 6.21048 50.7342C5.6948 51.0075 5.18772 51.3083 4.70986 51.6435C3.46879 52.5133 2.51651 53.6649 1.65017 54.8871C1.05027 55.7328 0.775243 56.7057 0.720237 57.7405C0.65148 59.0606 1.35796 60.049 2.38587 60.4977C3.05281 60.7882 3.7421 60.9721 4.46749 61.0357C4.86456 61.0701 5.26507 61.0958 5.66042 61.144C6.8396 61.2884 7.85377 61.7783 8.69604 62.6205C8.95903 62.8835 9.23062 63.1396 9.50393 63.3958C10.5112 64.336 11.7402 64.8242 13.0621 65.1112C13.5348 65.2144 14.0213 65.2436 14.4871 65.0889C15.9052 64.6162 16.8506 63.6811 17.2116 62.2097C17.3766 61.5307 17.3783 60.8346 17.3646 60.1401C17.3233 58.0465 16.928 56.0113 16.3882 53.9898ZM8.27662 49.0565C9.25984 48.6766 10.3359 48.5236 11.436 48.4755C12.3109 48.4377 13.1274 48.6508 13.9164 48.9964C14.1089 49.0789 14.2843 49.2129 14.4424 49.3522C15.4411 50.2323 16.1527 51.3083 16.6306 52.5528C17.0328 53.6031 17.2838 54.6946 17.5279 55.7861C17.8184 57.0873 18.0143 58.404 18.0556 59.7413C18.0796 60.5423 18.0917 61.3416 17.9387 62.1324C17.5743 64.018 16.4157 65.1886 14.6177 65.761C14.0436 65.9449 13.4575 65.9209 12.8765 65.7937C11.3363 65.4567 9.94226 64.8276 8.79917 63.712C8.57056 63.4869 8.34366 63.2634 8.11504 63.0399C7.48764 62.4229 6.7399 62.0309 5.87185 61.8969C5.39743 61.8229 4.91956 61.78 4.4417 61.737C3.58396 61.6596 2.7606 61.4551 1.98536 61.0752C0.675545 60.4341 0.0601709 59.3374 0.0275113 57.9262C0.00172733 56.7298 0.319728 55.5953 1.00214 54.6C1.9888 53.163 3.12501 51.8601 4.58266 50.8751C4.89034 50.6654 5.21006 50.4695 5.53838 50.2959C6.41159 49.8369 7.28308 49.3711 8.27662 49.0565Z" fill="#FFFDE7"/>
</g>
<path d="M11.0338 40.2831C10.9873 40.2728 10.9564 40.2556 10.9358 40.2659C10.8378 40.3054 10.7347 40.3381 10.6522 40.4C9.45578 41.2526 8.59117 42.3905 7.91219 43.6728C7.75233 43.9719 7.66467 44.3191 7.59247 44.6543C7.47558 45.1958 7.59247 45.7132 7.86062 46.1928C8.09955 46.6156 8.54132 46.7222 8.94698 46.4557C9.05699 46.3836 9.16185 46.2976 9.25123 46.1996C9.71018 45.7046 10.0557 45.1339 10.2379 44.4859C10.4081 43.8791 10.4115 43.274 9.98693 42.7412C9.8838 42.614 9.8116 42.473 9.89067 42.3028C9.99724 42.0742 10.1915 42.1378 10.3754 42.1533C10.4167 42.1567 10.4596 42.1189 10.4665 42.1155C10.6607 41.4863 10.8464 40.8847 11.0338 40.2831ZM11.3758 39.2225C11.4996 39.1916 11.5752 39.1692 11.6543 39.1538C11.8967 39.1108 12.1236 39.3343 12.0943 39.5887C12.0857 39.6677 12.0754 39.7468 12.0496 39.8224C12.017 39.9238 11.9774 40.0235 11.9276 40.1164C11.3088 41.2732 11.1077 42.5314 11.0372 43.8155C10.9787 44.9104 10.5009 45.8043 9.81848 46.6156C9.55548 46.9267 9.22029 47.1382 8.81978 47.2413C8.24222 47.3926 7.76952 47.231 7.39651 46.772C6.87052 46.1257 6.76395 45.3677 6.89803 44.5821C6.97366 44.1421 7.11117 43.6934 7.31916 43.2998C7.99814 42.0175 8.85932 40.8744 10.0385 39.9995C10.4665 39.6798 10.9358 39.4305 11.3758 39.2225Z" fill="#FFFDE7"/>
<path d="M15.4256 41.9416C15.6061 42.1118 15.8347 42.1582 15.7849 42.4057C15.7402 42.6189 15.5683 42.6893 15.3844 42.7478C15.2589 42.789 15.1231 42.82 15.0148 42.8922C14.8412 43.0073 14.6418 43.1242 14.53 43.291C14.0745 43.9562 13.9026 44.7056 14.0986 45.4895C14.2774 46.208 15.1489 46.5707 15.7831 45.8848C16.0221 45.6253 16.1785 45.3244 16.2851 44.9892C16.4484 44.477 16.5085 43.951 16.5429 43.4199C16.6014 42.5467 16.6529 41.6717 16.701 40.7968C16.7062 40.704 16.7561 40.5819 16.5653 40.5149C16.1596 40.9326 15.7281 41.3537 15.4256 41.9416ZM13.4145 45.7284C13.3887 45.4448 13.3182 45.1268 13.3423 44.8156C13.4042 44.0146 13.5468 43.2377 14.1708 42.6343C14.3547 42.4556 14.463 42.1943 14.5816 41.9588C15.056 41.0151 15.7883 40.2811 16.5326 39.5575C16.6065 39.4835 16.7028 39.4303 16.7973 39.3821C17.1325 39.2068 17.4642 39.389 17.4746 39.762C17.4814 39.9476 17.4557 40.1333 17.4453 40.3189C17.3766 41.3795 17.3095 42.4401 17.2408 43.4989C17.203 44.0851 17.1308 44.6644 16.9486 45.223C16.7887 45.7129 16.5429 46.1478 16.1544 46.4933C15.429 47.1396 14.4355 47.0966 13.8081 46.3764C13.6551 46.1994 13.5606 45.9725 13.4145 45.7284Z" fill="#FFFDE7"/>
<path d="M19.1677 47.6727C19.3654 47.6469 19.4427 47.6348 19.5218 47.6262C19.5734 47.6194 19.637 47.597 19.6765 47.6176C19.7659 47.6623 19.869 47.7156 19.9137 47.7964C19.9859 47.9219 19.9447 48.0697 19.8295 48.1522C19.6146 48.3069 19.3705 48.4255 19.1608 48.5871C18.6091 49.0134 18.389 49.5996 18.444 50.2785C18.4939 50.9145 19.0457 51.2704 19.6507 51.0624C19.869 50.9867 20.0719 50.8337 20.2472 50.6773C20.5308 50.4229 20.6821 50.0774 20.7869 49.713C21.0155 48.9206 20.9829 48.123 20.7766 47.3409C20.6236 46.753 20.4586 46.1531 19.9808 45.6632C19.6112 46.2803 19.4135 46.9318 19.1677 47.6727ZM21.3026 46.6808C21.6756 47.7363 21.765 48.8054 21.4659 49.8935C21.2906 50.5243 20.976 51.0778 20.4191 51.4457C20.1801 51.6038 19.9034 51.7327 19.6249 51.7929C18.8291 51.9614 18.1432 51.5454 17.8682 50.7787C17.6894 50.282 17.6963 49.7869 17.8648 49.2936C18.2068 48.2897 18.5523 47.2859 18.9116 46.2872C19.0268 45.9623 19.1849 45.6529 19.3344 45.3418C19.3929 45.2232 19.4685 45.1115 19.5545 45.0118C19.8639 44.6542 20.2592 44.6938 20.5394 45.1063C20.658 45.2816 20.7783 45.4621 20.8677 45.6529C21.0241 45.9898 21.1582 46.3371 21.3026 46.6808Z" fill="#FFFDE7"/>
<mask id="mask1_66_499" style="mask-type:luminance" maskUnits="userSpaceOnUse" x="0" y="44" width="5" height="8">
<path d="M0 44.6646H4.978V51.2652H0V44.6646Z" fill="white"/>
</mask>
<g mask="url(#mask1_66_499)">
<path d="M3.29174 47.1482C3.62521 46.4606 3.71288 46.1598 3.72663 45.6475C3.64756 45.6785 3.57192 45.6957 3.51176 45.7352C2.70902 46.2749 2.01974 46.9402 1.42155 47.6931C1.21012 47.9595 1.0537 48.2792 0.919627 48.5955C0.735702 49.0355 0.785551 49.4859 1.00214 49.9087C1.33045 50.5465 2.17444 50.6204 2.57839 50.0359C2.71074 49.8434 2.81044 49.6131 2.86545 49.3862C2.9978 48.8327 2.99608 48.2844 2.7881 47.7378C2.62136 47.3046 2.68324 47.2479 3.22126 47.1877C3.24533 47.1843 3.26767 47.1619 3.29174 47.1482ZM2.36696 51.0965C1.81519 51.2134 1.27201 51.1464 0.807897 50.7631C0.450361 50.4691 0.204555 50.091 0.140955 49.6165C0.0464144 48.8997 0.192522 48.2414 0.591312 47.6346C0.945411 47.0949 1.39061 46.6376 1.85472 46.1976C2.41681 45.6647 2.9978 45.1559 3.70428 44.8156C3.80054 44.7692 3.89508 44.7176 3.9965 44.6884C4.30419 44.6042 4.61531 44.8259 4.5964 45.1456C4.58093 45.4344 4.53796 45.7318 4.45373 46.0085C4.26981 46.6205 4.07213 47.2307 3.84351 47.8289C3.72835 48.1314 3.64068 48.4219 3.64756 48.7536C3.65443 49.2367 3.5513 49.7076 3.33471 50.146C3.12844 50.5654 2.82247 50.8885 2.36696 51.0965Z" fill="#FFFDE7"/>
</g>
<path d="M21.8853 53.3779C21.7977 53.5773 21.7547 53.6443 21.7375 53.7182C21.5553 54.5072 21.2442 55.2291 20.7216 55.86C20.4655 56.1694 20.3177 56.5493 20.2472 56.9481C20.1888 57.2661 20.1939 57.5806 20.3211 57.8883C20.4964 58.3129 21.1015 58.6257 21.5501 58.1204C22.0538 57.5548 22.358 56.9257 22.1346 56.1522C22.0469 55.8445 22.028 55.5832 22.2979 55.3546C22.3494 55.3099 22.3907 55.2085 22.3804 55.1398C22.2996 54.5725 22.2652 53.9881 21.8853 53.3779ZM22.7946 53.5755C23.1144 54.4883 23.1591 55.4079 22.9837 56.3447C22.9459 56.5544 22.9098 56.7641 22.8823 56.9756C22.7946 57.6391 22.4766 58.1823 22.0091 58.6429C21.2528 59.3907 20.1441 59.1655 19.7161 58.1891C19.3499 57.3572 19.5304 56.5733 19.9189 55.8101C20.0255 55.5987 20.1681 55.3993 20.3211 55.2154C20.6357 54.8372 20.8265 54.4058 20.9451 53.9331C21.0224 53.6237 21.1067 53.3143 21.1926 53.0066C21.2442 52.8278 21.2975 52.649 21.3611 52.4737C21.4281 52.2915 21.5381 52.1437 21.7461 52.1076C21.9661 52.0663 22.1036 52.1901 22.193 52.3654C22.3993 52.7659 22.5952 53.1716 22.7946 53.5755Z" fill="#FFFDE7"/>
<path d="M15.7264 57.7402C16.0582 57.754 16.1665 57.9207 16.2352 58.0857C16.6873 59.1669 16.8764 60.2825 16.6014 61.4411C16.3556 62.4776 15.7024 63.1961 14.7398 63.5932C14.1467 63.8373 13.4901 63.851 12.8507 63.7977C12.0067 63.7255 11.2332 63.466 10.5937 62.885C10.042 62.3848 9.46268 61.9086 8.95044 61.3706C8.12192 60.4991 7.14557 59.9783 5.94061 59.8975C5.86841 59.8923 5.79794 59.8562 5.7309 59.8339C5.69652 59.6276 5.83747 59.5881 5.96295 59.576C6.88086 59.4815 7.7025 59.7565 8.45195 60.2636C8.71495 60.4407 8.947 60.6658 9.18421 60.879C9.76005 61.3929 10.3273 61.9172 10.9066 62.4277C11.9139 63.3216 13.1205 63.4746 14.3582 63.1909C15.2503 62.9864 15.7883 62.2937 16.0032 61.3981C16.1682 60.7174 16.1613 60.0247 16.0272 59.3371C15.9499 58.9452 15.8485 58.5584 15.7677 58.1682C15.7402 58.0428 15.7419 57.9138 15.7264 57.7402Z" fill="#FFFDE7"/>
<path d="M3.86413 57.0786C4.39699 57.8367 4.75968 58.0893 5.5693 58.2458C5.7515 58.2801 5.93715 58.2922 6.12279 58.3076C6.28265 58.3197 6.44251 58.318 6.60237 58.3283C7.58903 58.3919 8.47256 58.7202 9.21857 59.3837C9.63627 59.7567 10.0608 60.1211 10.4596 60.5113C11.2091 61.2436 12.1184 61.5444 13.1446 61.5461C13.3027 61.5461 13.4626 61.5323 13.619 61.5048C14.0436 61.4258 14.3478 61.192 14.4871 60.7709C14.5902 60.4511 14.6882 60.128 14.7862 59.8186C15.0062 59.8048 15.0474 59.9527 15.0681 60.0713C15.2709 61.1731 14.5885 62.0583 13.4832 62.0876C12.1648 62.1219 10.9495 61.8297 9.95599 60.8809C9.58986 60.5319 9.19279 60.2156 8.8129 59.8822C8.17003 59.3167 7.4223 59.009 6.56627 58.9591C6.27406 58.9436 5.98012 58.9316 5.68962 58.8938C5.15676 58.8233 4.64452 58.6841 4.19932 58.3644C3.91226 58.1598 3.66645 57.9192 3.59254 57.5548C3.55128 57.3519 3.61144 57.2436 3.86413 57.0786Z" fill="#FFFDE7"/>
<path d="M6.00591 51.8496C5.88387 51.9768 5.80824 52.0765 5.71198 52.1521C5.29428 52.4804 4.86283 52.7916 4.45201 53.1302C3.51863 53.8985 2.93592 54.9024 2.56291 56.0369C2.40993 56.4993 2.37899 56.9754 2.44259 57.4567C2.54572 58.232 2.95654 58.7768 3.65786 59.1206C3.88132 59.2306 4.17698 59.2238 4.35403 59.5022C4.25089 59.5383 4.18042 59.5847 4.11166 59.5813C2.93248 59.528 1.9441 58.4399 1.90456 57.3415C1.87878 56.6334 2.01114 55.9698 2.27929 55.3201C2.85169 53.9278 3.88132 52.9549 5.14473 52.2054C5.38882 52.0593 5.61056 51.8376 6.00591 51.8496Z" fill="#FFFDE7"/>
<path d="M12.9263 51.2393C13.1154 51.2221 13.2082 51.1843 13.2512 51.217C13.4437 51.3562 13.6362 51.5006 13.7995 51.6725C14.8412 52.7657 15.4256 54.091 15.7178 55.5555C15.7591 55.7601 15.7436 55.9801 15.7281 56.1898C15.7247 56.2465 15.6336 56.2981 15.5648 56.372C15.2245 55.4489 14.934 54.5345 14.5524 53.6613C14.1777 52.8052 13.5898 52.0713 12.9263 51.2393Z" fill="#FFFDE7"/>
<path d="M8.41926 45.7578C8.30753 45.6667 8.17002 45.6117 8.13736 45.5171C7.91562 44.8983 8.24565 43.9202 8.79055 43.5507C8.84899 43.5094 8.94353 43.4853 9.01057 43.5008C9.06386 43.5146 9.11715 43.5919 9.14121 43.6538C9.15324 43.6899 9.11886 43.7535 9.08964 43.7965C8.75273 44.3139 8.54646 44.8725 8.53615 45.4982C8.53443 45.567 8.47599 45.6374 8.41926 45.7578Z" fill="#FFFDE7"/>
<path d="M21.8939 56.2911C21.918 56.3788 21.93 56.4046 21.9335 56.4304C21.9713 56.8739 21.6395 57.4239 21.2287 57.5769C21.1634 57.601 21.0551 57.5872 21.0053 57.5442C20.9554 57.503 20.9124 57.3878 20.9348 57.3328C21.0809 56.9632 21.2407 56.5988 21.4109 56.2396C21.4367 56.1846 21.5502 56.1227 21.6034 56.1382C21.7203 56.1725 21.8252 56.2516 21.8939 56.2911Z" fill="#FFFDE7"/>
<path d="M16.0702 43.6195C16.0994 43.714 16.139 43.788 16.139 43.8636C16.1493 44.4085 16.0066 44.9018 15.6319 45.3092C15.5872 45.3573 15.4892 45.3951 15.4308 45.3814C15.2967 45.3487 15.3019 45.225 15.3397 45.127C15.527 44.6594 15.6113 44.1696 15.6903 43.6762C15.7024 43.6057 15.8227 43.5318 15.9069 43.5043C15.9482 43.4906 16.0221 43.5817 16.0702 43.6195Z" fill="#FFFDE7"/>
<path d="M18.9924 50.4385C18.793 50.3182 18.7638 50.1309 18.7672 49.9452C18.7809 49.3831 19.276 48.8348 19.8536 48.7385C19.9068 48.7299 19.9859 48.7987 20.0306 48.8503C20.0495 48.8709 20.0289 48.9551 19.9997 48.9878C19.9309 49.0668 19.8536 49.1425 19.7659 49.2044C19.4032 49.4656 19.166 49.7974 19.1264 50.2581C19.1196 50.3217 19.0388 50.3784 18.9924 50.4385Z" fill="#FFFDE7"/>
<path d="M1.65189 49.7819C1.52812 49.6822 1.41639 49.6341 1.38717 49.5567C1.17918 49.0032 1.22903 48.4721 1.57281 47.9787C1.63126 47.8945 1.69658 47.8894 1.94066 47.9581C1.85816 48.2589 1.74814 48.5546 1.69658 48.8605C1.65017 49.1373 1.66564 49.4244 1.65189 49.7819Z" fill="#FFFDE7"/>
<path d="M43.0917 40.5647C42.8699 39.7172 42.2374 38.6687 41.481 37.6958C40.8536 36.8913 40.0423 36.3447 38.9955 36.2485C38.5726 36.2106 38.1446 36.2192 37.72 36.233C36.962 36.257 36.2607 36.5252 35.5559 36.7693C34.4953 37.1371 33.5035 37.6545 32.5048 38.1651C31.1933 38.8354 29.9849 39.6554 28.8556 40.5956C28.6115 40.8002 28.3725 41.0167 28.1542 41.2471C27.269 42.1753 26.9441 43.2771 27.0765 44.5508C27.1624 45.3708 27.5062 46.0343 28.113 46.5568C29.0532 47.3682 30.1121 47.9818 31.3411 48.2379C31.862 48.3462 32.3931 48.4184 32.9225 48.47C34.1412 48.5869 35.1726 49.0922 36.0458 49.9362C36.314 50.1941 36.5718 50.4639 36.8296 50.7338C37.3144 51.2392 37.8696 51.6517 38.4901 51.9714C39.6074 52.5456 40.7471 52.4184 41.6908 51.595C42.4247 50.9538 43.0092 50.1855 43.2962 49.2452C43.7363 47.8116 43.9993 46.3437 43.9546 44.8362C43.915 43.4937 43.5867 42.2011 43.0917 40.5647ZM43.8807 40.6386C44.233 41.9811 44.6335 43.4765 44.6679 45.0356C44.6851 45.7833 44.6043 46.5276 44.4668 47.2633C44.3637 47.8134 44.2657 48.3651 44.1333 48.9083C43.8325 50.1356 43.1931 51.167 42.2666 52.0196C41.0874 53.1059 39.5438 53.3088 38.1188 52.5713C37.378 52.1863 36.742 51.6637 36.1627 51.0656C35.867 50.7596 35.5679 50.4536 35.2482 50.1734C34.5864 49.5959 33.8095 49.2762 32.9346 49.1782C32.3243 49.1094 31.7141 49.0321 31.1159 48.9049C29.7511 48.6161 28.5943 47.9113 27.5543 47.0055C26.8582 46.3987 26.4955 45.5925 26.3872 44.6987C26.2101 43.2565 26.5316 41.9398 27.5715 40.862C27.8672 40.5544 28.1697 40.2518 28.4946 39.9785C29.746 38.93 31.1125 38.0533 32.5753 37.3314C33.1976 37.0237 33.8164 36.7126 34.4489 36.4289C36.0321 35.7156 37.6736 35.3306 39.4252 35.5918C39.7742 35.6434 40.0956 35.7431 40.4016 35.9184C41.1029 36.3224 41.7165 36.814 42.1996 37.4758C42.8802 38.4091 43.4492 39.3958 43.8807 40.6386Z" fill="#FFFDE7"/>
<path d="M47.6623 34.1222C47.7276 34.2133 47.817 34.3079 47.872 34.4196C47.9614 34.6018 47.8514 34.815 47.6623 34.8562C47.6107 34.8665 47.5574 34.8786 47.5059 34.8768C46.8183 34.8717 46.3611 35.2636 45.9915 35.7793C45.5944 36.3293 45.3778 36.9585 45.2816 37.6271C45.2592 37.7835 45.2609 37.9486 45.2816 38.105C45.3314 38.4711 45.6219 38.7083 46.0001 38.7238C46.3026 38.7358 46.5776 38.6585 46.8372 38.5038C47.4612 38.1376 47.884 37.5962 48.1453 36.9361C48.5819 35.8412 48.8638 34.7067 48.8965 33.5206C48.9016 33.3075 48.8965 33.0926 48.8741 32.8829C48.8604 32.766 48.8621 32.6147 48.6816 32.5855C48.3464 33.0909 48.0095 33.5997 47.6623 34.1222ZM46.7736 39.2704C46.6722 39.3065 46.5742 39.346 46.4711 39.3735C45.4053 39.6537 44.5906 39.0005 44.5631 37.854C44.5613 37.7732 44.5665 37.6924 44.5785 37.6151C44.7436 36.5064 45.132 35.5163 45.9949 34.7428C46.4298 34.3543 46.8286 33.9211 47.2188 33.4845C47.6503 33.0067 47.9322 32.4291 48.2227 31.8584C48.3292 31.6453 48.4461 31.4338 48.5922 31.2482C48.7452 31.054 49.0907 31.1055 49.2042 31.3273C49.2764 31.4682 49.3314 31.6195 49.3726 31.7725C49.615 32.6852 49.6786 33.6134 49.5101 34.5417C49.3881 35.2206 49.2162 35.8944 49.0374 36.5614C48.8913 37.1046 48.6421 37.6082 48.3172 38.0689C47.9253 38.6241 47.4423 39.0693 46.7736 39.2704Z" fill="#FFFDE7"/>
<path d="M45.0203 28.3053C44.8209 28.4308 44.7281 28.472 44.6559 28.5373C43.9889 29.1493 43.3185 29.7578 42.6619 30.3817C42.3921 30.6378 42.1394 30.918 41.9108 31.2102C41.6495 31.5489 41.4484 31.9253 41.3899 32.3636C41.3349 32.7624 41.414 33.1148 41.7612 33.352C42.0981 33.5806 42.4539 33.5789 42.8218 33.3984C43.1913 33.2179 43.4647 32.936 43.7208 32.6232C44.1952 32.0439 44.3774 31.4303 44.0835 30.6946C43.8927 30.2219 44.0233 30.0964 44.5562 30.1308C44.5991 30.1325 44.6473 30.1015 44.7109 30.0792C44.8896 29.5566 44.9928 29.0152 45.0203 28.3053ZM43.0813 34.0688C41.7423 34.5484 40.6181 33.7199 40.6748 32.4513C40.6903 32.0989 40.7935 31.7706 40.9464 31.4561C41.1802 30.9696 41.4913 30.5364 41.8798 30.1669C42.8819 29.2111 43.8961 28.2675 44.9051 27.3186C44.9429 27.2825 44.9807 27.243 45.0254 27.2138C45.1836 27.1037 45.3503 27.0281 45.5463 27.1192C45.7354 27.2086 45.8299 27.3753 45.8179 27.5713C45.7508 28.6628 45.658 29.7526 45.2042 30.7702C45.0529 31.1123 44.9429 31.4543 44.8776 31.8291C44.7435 32.6009 44.2502 33.1715 43.6795 33.6683C43.4629 33.8574 43.1982 33.9932 43.0813 34.0688Z" fill="#FFFDE7"/>
<path d="M38.8666 28.9469C37.3436 29.1187 36.118 29.7599 35.219 30.9907C34.9766 31.3207 34.8426 31.6988 34.8408 32.1062C34.8391 32.3125 34.8718 32.5325 34.9491 32.7233C35.1726 33.2717 35.7794 33.4539 36.2693 33.1152C36.9362 32.6563 37.2611 32.0254 37.1339 31.2004C37.1098 31.0422 37.0497 30.8841 37.0634 30.7311C37.0737 30.6142 37.1476 30.475 37.2387 30.3976C37.3522 30.3031 37.4794 30.3976 37.5963 30.4664C37.7235 30.5403 37.7011 30.7964 37.9315 30.7345C38.4231 30.0521 38.6809 29.5657 38.8666 28.9469ZM34.2736 32.8643C34.0501 32.1991 34.1275 31.6782 34.3269 31.1694C34.4936 30.7414 34.7618 30.3753 35.0746 30.0418C35.6694 29.4092 36.369 28.9383 37.1889 28.6426C37.794 28.4243 38.4093 28.2507 39.0522 28.1991C39.4493 28.1682 39.7415 28.4466 39.6727 28.8368C39.6229 29.1205 39.5215 29.4075 39.3805 29.6602C38.9783 30.3822 38.5468 31.0869 38.124 31.7985C37.9332 32.1183 37.7355 32.4328 37.5447 32.7525C37.2491 33.2424 36.8761 33.6344 36.3277 33.863C35.6058 34.1621 34.6225 33.8698 34.3063 32.9605C34.2805 32.8849 34.2547 32.8093 34.2736 32.8643Z" fill="#FFFDE7"/>
<mask id="mask2_66_499" style="mask-type:luminance" maskUnits="userSpaceOnUse" x="45" y="40" width="5" height="8">
<path d="M45.7594 40.3691H50V47.1486H45.7594V40.3691Z" fill="white"/>
</mask>
<g mask="url(#mask2_66_499)">
<path d="M48.2433 42.8479C48.3533 42.9665 48.422 43.0164 48.4599 43.0834C48.5888 43.312 48.532 43.5149 48.312 43.6077C48.1401 43.6799 47.9528 43.7177 47.7895 43.8036C47.2016 44.1096 46.7547 44.5565 46.5381 45.1908C46.3318 45.789 46.6894 46.315 47.3254 46.3923C47.5712 46.4216 47.8049 46.382 48.0164 46.2548C48.2931 46.0881 48.563 45.9007 48.7005 45.5999C48.8552 45.2647 49.0219 44.9227 49.0976 44.5634C49.2798 43.7022 49.3451 42.8256 49.2798 41.9438C49.2712 41.8183 49.254 41.6945 49.2402 41.5604C49.1474 41.5862 49.0787 41.5845 49.058 41.6137C48.7916 42.0091 48.5303 42.4096 48.2433 42.8479ZM48.0318 46.9905C46.9489 47.4013 45.8901 46.6295 45.7921 45.7168C45.744 45.2733 45.8437 44.8573 46.0843 44.4981C46.3043 44.1698 46.5742 43.869 46.8578 43.5939C47.071 43.3877 47.2549 43.1848 47.401 42.9218C47.7104 42.3632 48.0628 41.8286 48.4152 41.294C48.5596 41.074 48.7332 40.866 48.9188 40.6786C49.2832 40.3108 49.6975 40.4139 49.8178 40.8987C49.8952 41.2098 49.9656 41.5261 49.9828 41.8423C50.0327 42.829 49.9759 43.8122 49.7765 44.7817C49.6786 45.2561 49.5187 45.7048 49.2282 46.1001C48.9033 46.5419 48.5303 46.8221 48.0318 46.9905Z" fill="#FFFDE7"/>
</g>
<path d="M31.7966 32.3743C31.0077 32.5617 30.4335 32.8126 29.9179 33.2561C29.9883 33.6411 29.758 33.8182 29.4331 33.9591C28.6699 34.2909 28.3382 34.9303 28.2643 35.7245C28.2161 36.2384 28.6201 36.5925 29.1186 36.4808C29.4366 36.4103 29.7099 36.2608 29.9299 36.0081C30.272 35.6196 30.5006 35.1761 30.5968 34.6673C30.712 34.052 30.9819 33.5122 31.3566 33.0172C31.4821 32.8504 31.5938 32.6734 31.7966 32.3743ZM31.2363 31.7624C31.5285 31.6953 31.9152 31.5991 32.3054 31.52C32.4034 31.4994 32.5169 31.5234 32.6166 31.5492C32.8005 31.5973 32.9277 31.8156 32.8572 31.9858C32.7781 32.1801 32.6802 32.3709 32.5633 32.5445C32.357 32.8539 32.137 33.1547 31.9118 33.4503C31.5972 33.8577 31.3824 34.3064 31.2844 34.8117C31.2019 35.2329 31.0403 35.6265 30.8151 35.9909C30.5607 36.4052 30.2341 36.7421 29.8044 36.9844C29.4898 37.1615 29.1495 37.2285 28.8057 37.1924C27.9738 37.1065 27.5389 36.4946 27.5681 35.7056C27.5904 35.0868 27.7881 34.5058 28.2075 34.0227C28.4344 33.7632 28.6665 33.5071 28.8899 33.2441C29.4933 32.5307 30.296 32.1285 31.2363 31.7624Z" fill="#FFFDE7"/>
<path d="M42.7874 42.8354C43.0865 43.1208 43.1226 43.4079 43.1587 43.6812C43.2773 44.5578 43.3065 45.4396 43.1536 46.3094C43.0384 46.966 42.8751 47.6141 42.6963 48.2552C42.5244 48.8775 42.2082 49.4378 41.8162 49.9518C41.5206 50.3385 41.1579 50.6428 40.7179 50.8611C40.1781 51.1258 39.6435 51.1447 39.1021 50.8852C38.9817 50.8284 38.8614 50.7683 38.7531 50.6909C37.9452 50.1185 37.1752 49.4997 36.5598 48.7176C36.4171 48.5354 36.3346 48.3033 36.2332 48.0902C36.2211 48.0644 36.2624 47.9888 36.2968 47.9699C36.3363 47.9492 36.4137 47.9441 36.4429 47.9682C36.5873 48.085 36.7265 48.2088 36.8537 48.3429C37.4467 48.9634 38.112 49.4963 38.8184 49.9776C38.9938 50.0979 39.176 50.2148 39.3685 50.3007C39.8395 50.5122 40.2898 50.4898 40.7299 50.1821C41.1785 49.8693 41.5223 49.4739 41.7853 48.9995C42.1377 48.3635 42.3491 47.6759 42.5038 46.9695C42.7118 46.0292 42.8029 45.0752 42.7909 44.1109C42.7857 43.7173 42.7874 43.3236 42.7874 42.8354Z" fill="#FFFDE7"/>
<path d="M41.7801 44.9414C41.964 45.4915 41.9245 46.0346 41.7406 46.5658C41.5377 47.1588 41.1768 47.647 40.7058 48.0561C40.1299 48.5563 39.4819 48.6594 38.7703 48.4102C38.1102 48.1799 37.5137 47.8361 36.9774 47.3857C36.7127 47.164 36.4532 46.9354 36.1816 46.7205C35.506 46.1876 34.7721 45.7665 33.9057 45.6221C33.7545 45.5963 33.5826 45.574 33.5276 45.3522C33.7355 45.1116 34.0157 45.0858 34.3114 45.1288C34.9852 45.2233 35.5971 45.4811 36.1231 45.9074C36.5357 46.2426 36.9259 46.607 37.3075 46.9766C37.6959 47.3548 38.1377 47.6384 38.631 47.8498C39.3736 48.1678 40.0027 48.0441 40.5889 47.4287C41.0324 46.9611 41.3641 46.4145 41.4827 45.7613C41.5326 45.4811 41.5566 45.1906 41.7801 44.9414Z" fill="#FFFDE7"/>
<path d="M39.8687 37.5963C38.729 37.3075 37.7303 37.5533 36.7523 37.9298C34.7583 38.6999 32.8881 39.6934 31.2104 41.029C31.0334 41.1682 30.8907 41.3745 30.5882 41.3126C30.7068 40.9379 30.9956 40.7265 31.2586 40.5202C31.8018 40.0939 32.357 39.6831 32.9362 39.3066C34.4884 38.3011 36.1799 37.6169 37.9744 37.1735C38.5365 37.0342 39.0797 37.0583 39.6125 37.28C39.683 37.3092 39.7432 37.3643 39.8051 37.4124C39.8205 37.4244 39.8205 37.4554 39.8687 37.5963Z" fill="#FFFDE7"/>
<path d="M34.6552 47.3166C33.8078 47.0725 32.9878 47.0897 32.1662 47.0759C31.3617 47.0622 30.5882 46.8576 29.8388 46.5706C28.859 46.1941 28.4568 45.3828 28.2591 44.4288C28.2385 44.3359 28.29 44.2225 28.3261 44.1245C28.3399 44.0884 28.4035 44.0506 28.4482 44.0489C28.4877 44.0472 28.541 44.0815 28.5702 44.1142C28.6046 44.1537 28.6218 44.2087 28.6407 44.2586C28.6768 44.3566 28.7077 44.4597 28.7473 44.5577C29.0893 45.4275 29.6583 46.0239 30.6054 46.256C31.3308 46.433 32.0562 46.574 32.8056 46.5895C33.3385 46.5998 33.8696 46.6427 34.3595 46.8817C34.4919 46.947 34.6689 46.9934 34.6552 47.3166Z" fill="#FFFDE7"/>
<path d="M47.5935 45.9432C47.5523 45.9501 47.5024 45.9655 47.4491 45.9724C47.3116 45.9879 47.1672 45.9655 47.126 45.8211C47.1019 45.7386 47.1346 45.5942 47.1965 45.541C47.5832 45.2178 47.927 44.8603 48.2123 44.4426C48.2536 44.379 48.4049 44.3412 48.4857 44.3652C48.5699 44.391 48.6644 44.4907 48.6919 44.5784C48.7693 44.8207 48.6885 45.0494 48.5441 45.247C48.3052 45.5753 47.9923 45.8108 47.5935 45.9432Z" fill="#FFFDE7"/>
<path d="M46.3233 37.7714C46.2132 37.6287 46.1204 37.5617 46.1015 37.4775C45.9417 36.7607 46.5553 35.7534 47.2841 35.5299C47.3288 35.5162 47.3855 35.5454 47.4818 35.5626C47.3976 35.9734 47.0486 36.2209 46.8785 36.5664C46.7031 36.9223 46.545 37.2867 46.3233 37.7714Z" fill="#FFFDE7"/>
<path d="M43.255 30.8563C42.894 31.5439 42.5674 32.1678 42.2425 32.7901C42.0414 32.7712 41.94 32.6491 41.9555 32.4721C42.0173 31.8103 42.3096 31.262 42.8166 30.8305C42.8682 30.7858 42.8716 30.7893 43.255 30.8563Z" fill="#FFFDE7"/>
<path d="M29.0137 35.6919C28.9209 35.5458 28.8469 35.4804 28.8487 35.4186C28.8624 34.9544 29.1134 34.6261 29.4898 34.3889C29.5328 34.3614 29.6359 34.4061 29.6995 34.4405C29.7339 34.4594 29.7666 34.5333 29.758 34.5728C29.7373 34.6743 29.7116 34.7843 29.6531 34.8651C29.4692 35.1212 29.2681 35.367 29.0137 35.6919Z" fill="#FFFDE7"/>
<path d="M35.6952 32.3656C35.5439 32.4086 35.4425 32.3793 35.4184 32.2573C35.329 31.8224 35.3978 31.4202 35.7003 31.0815C35.7433 31.0351 35.8739 30.9939 35.9032 31.0197C35.9702 31.0781 36.0544 31.195 36.0355 31.262C35.9358 31.6402 35.8069 32.0115 35.6952 32.3656Z" fill="#FFFDE7"/>
<path d="M26.865 16.8728C26.5866 16.2987 26.1878 15.4856 25.7959 14.6692C25.1341 13.2957 24.1423 12.1922 22.951 11.2657C22.1414 10.6348 21.2098 10.3478 20.1767 10.4956C19.2691 10.6245 18.4251 10.9408 17.6379 11.4084C16.7646 11.9275 15.9636 12.5446 15.1815 13.1874C13.8373 14.291 12.5859 15.4839 11.5477 16.8849C11.3088 17.2063 11.0836 17.538 10.8722 17.8767C10.4029 18.6296 10.2465 19.4615 10.3565 20.333C10.5164 21.605 11.0974 22.602 12.3109 23.1503C13.5434 23.7073 14.8188 24.0424 16.1888 23.8826C16.6134 23.8345 17.038 23.7949 17.4608 23.7537C18.3289 23.6712 19.1694 23.7898 19.9498 24.1851C20.4483 24.4361 20.9279 24.7283 21.4006 25.0239C22.0624 25.4382 22.7585 25.7631 23.5234 25.9333C24.3502 26.1172 25.1203 25.9951 25.789 25.4623C26.0571 25.2491 26.3012 24.9896 26.4989 24.7111C27.0369 23.9617 27.3841 23.1142 27.4529 22.1963C27.5818 20.4826 27.4323 18.7894 26.865 16.8728ZM27.6214 16.9227C28.1542 18.5814 28.2436 20.2797 28.18 21.9918C28.137 23.1417 27.7125 24.1765 27.0799 25.1254C26.3081 26.2856 24.7903 27.0179 23.2312 26.595C22.3958 26.3699 21.6292 26.0106 20.9072 25.5448C20.5944 25.3419 20.2747 25.1477 19.9498 24.9655C19.1058 24.4911 18.2034 24.3553 17.2442 24.4808C16.6649 24.5564 16.0771 24.6028 15.4926 24.6148C14.1261 24.6441 12.861 24.235 11.6663 23.6076C10.8842 23.1967 10.3324 22.5607 10.0196 21.7236C9.7755 21.067 9.59845 20.4052 9.62252 19.697C9.64315 19.073 9.76175 18.4749 10.0591 17.9265C10.274 17.5277 10.4992 17.1307 10.7604 16.7628C11.8468 15.2278 13.1773 13.9231 14.6229 12.7319C15.4033 12.0873 16.1991 11.4634 17.0655 10.9305C18.1982 10.2309 19.4169 9.80117 20.756 9.7496C20.964 9.74273 21.1823 9.7582 21.3851 9.80461C22.3116 10.0178 23.1315 10.4423 23.8518 11.0697C25.0739 12.1389 26.0262 13.4058 26.6914 14.8875C26.9974 15.5682 27.312 16.2437 27.6214 16.9227Z" fill="#FFFDE7"/>
<path d="M28.2453 6.4442C28.3089 6.49233 28.3966 6.54562 28.4688 6.61438C28.6562 6.78799 28.6321 7.02692 28.4207 7.13177C28.3502 7.16787 28.2763 7.19881 28.1989 7.22288C27.6454 7.38617 27.2965 7.77121 27.0627 8.27486C26.7413 8.97102 26.6691 9.71016 26.7344 10.463C26.7481 10.6195 26.8066 10.7776 26.8771 10.9186C27.0008 11.1764 27.3343 11.4239 27.7503 11.283C28.3777 11.0698 28.773 10.6246 29.0481 10.0539C29.2801 9.56749 29.4142 9.04837 29.4297 8.51035C29.4503 7.84513 29.4417 7.1799 29.44 6.51468C29.4383 5.944 29.2629 5.41113 29.091 4.87827C29.067 4.79748 29.0343 4.66684 28.8762 4.71325C28.6682 5.28049 28.4602 5.8529 28.2453 6.4442ZM29.8388 4.71325C29.9178 5.1172 30.0158 5.50567 30.0708 5.90102C30.2307 7.01489 30.2324 8.13047 30.0433 9.24089C29.923 9.93362 29.6652 10.5713 29.2028 11.1162C28.8263 11.558 28.3588 11.8433 27.7984 11.9826C27.1951 12.1321 26.6141 11.8743 26.3115 11.3259C26.1018 10.9443 26.0073 10.5301 26.0073 10.0969C26.009 9.11713 26.1912 8.19063 26.7825 7.37758C26.9372 7.16271 27.0576 6.92035 27.2037 6.69861C27.7073 5.93197 28.0511 5.10173 28.2367 4.20273C28.2849 3.96724 28.3399 3.73174 28.431 3.51172C28.5719 3.16622 29.0085 3.11981 29.1907 3.43609C29.4279 3.85035 29.6256 4.28868 29.8388 4.71325Z" fill="#FFFDE7"/>
<mask id="mask3_66_499" style="mask-type:luminance" maskUnits="userSpaceOnUse" x="20" y="0" width="6" height="9">
<path d="M20.8196 0H25.22V8.14082H20.8196V0Z" fill="white"/>
</mask>
<g mask="url(#mask3_66_499)">
<path d="M24.2918 1.43723C24.199 1.51459 24.1234 1.55412 24.0821 1.616C23.5441 2.40671 23.0078 3.19913 22.4818 3.99671C22.2171 4.39722 21.961 4.80804 21.8527 5.28075C21.7822 5.58671 21.7152 5.91331 21.7427 6.221C21.8148 7.02201 22.6107 7.36064 23.2742 6.90341C23.6627 6.63526 23.8896 6.2485 24.0821 5.83596C24.3795 5.19136 24.4018 4.57427 23.9944 3.94514C23.661 3.43118 23.7469 3.30398 24.4207 3.22491C24.4671 2.63532 24.5393 2.04401 24.2918 1.43723ZM21.1015 6.57166C20.9829 6.23647 20.9863 5.76376 21.1084 5.28762C21.2493 4.741 21.4779 4.2322 21.7942 3.76294C22.2704 3.05474 22.7482 2.34826 23.2209 1.63835C23.4581 1.28253 23.685 0.921557 23.9171 0.564021C23.9601 0.496983 23.9996 0.426508 24.0529 0.366345C24.1749 0.228832 24.2849 0.0638149 24.5084 0.0895989C24.7319 0.115383 24.9261 0.297589 24.9725 0.572616C25.0911 1.31003 25.1908 2.04917 25.1633 2.79862C25.153 3.08912 25.1375 3.38477 25.0842 3.67011C25.012 4.06547 25.0052 4.4591 25 4.85961C24.9794 5.96488 24.5187 6.87762 23.6163 7.52222C22.7001 8.17541 21.5123 7.76287 21.1015 6.57166Z" fill="#FFFDE7"/>
</g>
<path d="M18.5197 3.48425C18.463 3.47737 18.4355 3.46534 18.4097 3.47049C18.3323 3.48597 18.2515 3.49456 18.1793 3.52722C17.2391 3.94836 16.4363 4.5431 15.8502 5.40428C15.5941 5.77901 15.3861 6.18295 15.2984 6.63503C15.2108 7.09227 15.24 7.53575 15.515 7.93626C15.8829 8.47256 16.4913 8.531 16.9383 8.04799C17.4952 7.44293 17.6121 6.7416 17.3199 5.97325C17.2631 5.82542 17.1652 5.69134 17.1222 5.54008C17.0844 5.40772 17.1445 5.27536 17.2649 5.19629C17.3835 5.11722 17.5141 5.11035 17.631 5.20661C17.7307 5.2874 17.8235 5.37678 17.961 5.50054C18.2103 4.80266 18.4526 4.1701 18.5197 3.48425ZM16.9366 8.90745C16.0874 9.21513 15.4789 9.02262 15.0079 8.4399C14.5472 7.87437 14.4871 7.22978 14.5937 6.55252C14.671 6.07466 14.8635 5.63462 15.1196 5.22208C15.6817 4.31792 16.4501 3.63895 17.3818 3.13702C17.6396 2.99779 17.9043 2.87059 18.1725 2.7537C18.3168 2.6901 18.4715 2.63338 18.6263 2.61447C18.9889 2.56806 19.2708 2.79152 19.2691 3.15249C19.2674 3.44299 19.2382 3.74208 19.1591 4.01883C18.9374 4.78547 18.6967 5.54867 18.4389 6.30328C18.3083 6.67972 18.1398 7.03898 18.0642 7.43605C17.9903 7.83828 17.7891 8.19238 17.4969 8.47256C17.2906 8.67196 17.0414 8.82838 16.9366 8.90745Z" fill="#FFFDE7"/>
<path d="M30.8443 14.7827C31.0454 14.9409 31.2311 15.0251 31.2053 15.2537C31.1864 15.4342 31.0592 15.5253 30.9096 15.5958C30.8374 15.6302 30.7618 15.6628 30.7017 15.7127C30.1499 16.1682 29.7666 16.7285 29.6858 17.4557C29.6273 17.992 29.9574 18.3925 30.4902 18.4475C30.7326 18.475 30.9595 18.4303 31.1744 18.2911C31.5216 18.0624 31.7863 17.7651 31.8877 17.3663C31.9737 17.0362 32.0355 16.6873 32.0338 16.3469C32.0269 15.3878 31.843 14.4493 31.5817 13.5279C31.556 13.4403 31.5388 13.3045 31.3411 13.356C31.2534 13.5778 31.1486 13.8184 31.0609 14.0642C30.9818 14.2877 30.9234 14.518 30.8443 14.7827ZM32.2693 13.3251C32.5461 14.4235 32.7403 15.4428 32.7437 16.4879C32.7455 17.0259 32.6475 17.5502 32.3724 18.0263C32.0527 18.5798 31.6041 18.9769 30.9715 19.1316C30.2719 19.3052 29.4709 18.9391 29.1409 18.3048C28.9621 17.9593 28.9484 17.5897 29.0051 17.215C29.079 16.7303 29.2681 16.2868 29.5706 15.9086C29.813 15.6078 29.9367 15.2743 30.0433 14.9116C30.2169 14.3238 30.4266 13.7462 30.6432 13.1738C30.736 12.9263 30.8546 12.6805 31.0059 12.4656C31.2362 12.1373 31.6385 12.0961 31.8499 12.4759C32.0166 12.7767 32.1559 13.093 32.2693 13.3251Z" fill="#FFFDE7"/>
<path d="M12.3797 8.36261C11.7145 8.70811 11.2899 9.06393 10.9117 9.47647C10.8447 9.54866 10.7622 9.6793 10.7845 9.75149C10.898 10.1211 10.659 10.2672 10.4218 10.4614C9.81333 10.9633 9.63972 11.6354 9.72394 12.4021C9.79098 13.0312 10.47 13.2461 10.922 12.8885C11.2228 12.6513 11.4377 12.3557 11.5735 11.9981C11.7196 11.6165 11.7729 11.2212 11.754 10.8189C11.7316 10.274 11.8399 9.76181 12.0514 9.2616C12.1528 9.01923 12.2336 8.76655 12.3797 8.36261ZM10.8808 13.6724C9.96803 13.98 9.11716 13.4506 9.01919 12.5001C8.95387 11.8537 9.01575 11.2229 9.36297 10.6505C9.43001 10.5353 9.5022 10.4219 9.55549 10.3016C10.0815 9.10002 10.9977 8.27666 12.127 7.6716C12.3814 7.5358 12.6667 7.44986 12.9469 7.37251C13.148 7.3175 13.3767 7.54784 13.344 7.75926C13.3148 7.94147 13.2684 8.12368 13.2048 8.29557C13.0844 8.62044 12.9555 8.94188 12.8111 9.25645C12.5636 9.79791 12.4364 10.3548 12.457 10.9565C12.4794 11.5787 12.3264 12.17 12.0101 12.7132C11.7471 13.167 11.381 13.497 10.8808 13.6724Z" fill="#FFFDE7"/>
<path d="M21.0516 23.5872C21.2407 23.668 21.4092 23.7281 21.5673 23.8107C22.0985 24.0891 22.6605 24.2146 23.2587 24.1974C24.0769 24.1751 24.7508 23.8485 25.2664 23.2125C25.6755 22.7071 25.9488 22.1313 26.0228 21.4815C26.1362 20.4794 26.3253 19.4824 26.2307 18.4648C26.2256 18.427 26.2858 18.384 26.3459 18.3032C26.5195 18.5232 26.59 18.7622 26.6089 19.02C26.676 19.9775 26.6742 20.9366 26.5006 21.882C26.3081 22.9185 25.7907 23.7642 24.8866 24.3435C23.8844 24.9864 22.3683 24.9623 21.4057 24.2885C21.1359 24.0977 21.1066 24.0444 21.0516 23.5872Z" fill="#FFFDE7"/>
<path d="M13.1996 17.2324C13.0879 17.4387 12.9693 17.6415 12.8644 17.8495C12.6513 18.2792 12.4192 18.7021 12.2421 19.1456C12.029 19.6784 12.0084 20.2285 12.2078 20.7854C12.4244 21.3871 12.8094 21.779 13.4351 21.9268C14.035 22.0695 14.6435 22.1296 15.2589 22.121C15.4943 22.1193 15.7298 22.1245 15.9378 22.1262C16.0375 22.2878 15.9791 22.3634 15.876 22.415C15.7814 22.4631 15.6851 22.5164 15.5837 22.5405C14.6194 22.7725 13.6689 22.678 12.7613 22.3239C12.1528 22.0849 11.8262 21.5332 11.6508 20.9315C11.534 20.5242 11.5116 20.0893 11.6096 19.663C11.8348 18.6746 12.3333 17.8495 13.1996 17.2324Z" fill="#FFFDE7"/>
<path d="M13.9662 15.859C14.1158 15.6046 14.2206 15.3897 14.3599 15.2006C14.7724 14.6403 15.2537 14.1435 15.7677 13.6742C16.4192 13.076 17.1377 12.5707 17.9077 12.1444C18.3959 11.8762 18.9202 11.67 19.4307 11.4448C19.4909 11.4173 19.5768 11.4465 19.6989 11.4499C19.6559 11.5428 19.6456 11.6287 19.5992 11.6579C19.0371 12.0138 18.475 12.3696 17.9026 12.7099C16.5601 13.5041 15.3706 14.477 14.396 15.7026C14.3152 15.804 14.2361 15.9209 13.9662 15.859Z" fill="#FFFDE7"/>
<path d="M16.9933 14.9956C16.0565 16.137 15.1489 17.244 14.2361 18.3492C14.2103 18.3802 14.1399 18.375 14.0608 18.3939C14.0367 18.3338 13.9903 18.2685 13.9886 18.2031C13.9869 18.1258 14.0075 18.0398 14.0436 17.9711C14.6641 16.8057 15.4291 15.764 16.5532 15.0283C16.665 14.9544 16.775 14.8753 16.9933 14.9956Z" fill="#FFFDE7"/>
<path d="M27.6231 10.6816C27.6678 10.5596 27.697 10.4289 27.7606 10.3189C28.0786 9.75855 28.3124 9.16724 28.4413 8.53468C28.4568 8.45561 28.4671 8.36794 28.51 8.30606C28.5668 8.23043 28.6476 8.14792 28.7335 8.12214C28.8349 8.0912 28.9295 8.2459 28.9174 8.41607C28.9088 8.57421 28.9054 8.73751 28.8624 8.88878C28.6854 9.50931 28.4172 10.0869 27.9961 10.5836C27.9067 10.6902 27.8018 10.7572 27.6231 10.6816Z" fill="#FFFDE7"/>
<path d="M22.3529 6.62137C22.2875 6.51307 22.2188 6.44947 22.2102 6.379C22.1328 5.69658 22.2652 5.05887 22.6502 4.48474C22.6812 4.43661 22.7946 4.39708 22.8445 4.41771C22.9012 4.44177 22.9562 4.53287 22.9614 4.59819C22.9682 4.70133 22.939 4.8079 22.9132 4.91104C22.7843 5.42671 22.6537 5.94239 22.5162 6.45635C22.5058 6.49932 22.4474 6.52854 22.3529 6.62137Z" fill="#FFFDE7"/>
<path d="M30.1946 17.8458C30.3132 17.679 30.3613 17.5793 30.4387 17.514C30.7619 17.2304 31.0128 16.8935 31.2122 16.5136C31.2621 16.419 31.36 16.3314 31.4649 16.3933C31.5457 16.438 31.6076 16.5428 31.6419 16.6339C31.6677 16.7009 31.6591 16.8006 31.6265 16.8677C31.3944 17.3662 31.0352 17.7392 30.504 17.9179C30.4439 17.9369 30.3631 17.887 30.1946 17.8458Z" fill="#FFFDE7"/>
<path d="M17.27 22.1876C17.8373 21.8078 18.3151 21.7785 18.8153 21.9161C18.9425 21.9522 19.0646 22.0106 19.1849 22.069C19.6129 22.2753 19.8157 22.4902 19.6868 22.5761C19.4445 22.7377 19.2262 22.5572 19.0302 22.461C18.5128 22.2066 17.9593 22.1928 17.27 22.1876Z" fill="#FFFDE7"/>
<path d="M16.1046 6.3291C16.0771 6.86369 16.0547 7.29857 16.0307 7.76956C15.558 7.61314 15.6559 7.23497 15.6577 6.92901C15.6611 6.69008 15.6766 6.40645 16.1046 6.3291Z" fill="#FFFDE7"/>
<path d="M10.384 12.6359C10.286 12.4846 10.2156 12.4244 10.207 12.3574C10.1537 11.8916 10.3067 11.4842 10.5886 11.1215C10.6109 11.0905 10.6848 11.0751 10.7226 11.0905C10.7639 11.1043 10.8034 11.1559 10.8189 11.2006C10.8361 11.2452 10.8378 11.3071 10.8223 11.3518C10.6917 11.7437 10.5559 12.1339 10.384 12.6359Z" fill="#FFFDE7"/>
</svg>
