<svg xmlns="http://www.w3.org/2000/svg" xmlns:xlink="http://www.w3.org/1999/xlink" width="500" zoomAndPan="magnify" viewBox="0 0 375 374.999991" height="500" preserveAspectRatio="xMidYMid meet" version="1.0"><defs><clipPath id="7c342f6b0a"><path d="M 124 120.492188 L 201 120.492188 L 201 245 L 124 245 Z M 124 120.492188 " clip-rule="nonzero"/></clipPath><clipPath id="b345517c98"><path d="M 174.621094 123.828125 L 251.375 123.828125 L 251.375 247.804688 L 174.621094 247.804688 Z M 174.621094 123.828125 " clip-rule="nonzero"/></clipPath></defs><path fill="#5d4037" d="M 188.257812 125.644531 C 132.242188 127.019531 109.636719 196.667969 154.945312 230.007812 C 158.503906 232.535156 162.324219 234.695312 166.359375 236.371094 C 169.097656 237.488281 171.875 238.601562 174.824219 239.003906 C 176.574219 239.261719 178.355469 239.402344 180.125 239.292969 C 180.128906 239.324219 180.144531 239.355469 180.183594 239.371094 C 183.410156 240.480469 186.847656 240.988281 190.257812 240.792969 C 217.132812 239.769531 240.855469 218.625 244.648438 191.949219 C 248.292969 168.960938 236.917969 145.265625 216.878906 133.496094 C 213.875 131.679688 210.699219 130.144531 207.410156 128.914062 C 204.71875 127.957031 201.835938 127.621094 198.984375 127.730469 C 202.6875 129.527344 206.558594 130.917969 210.394531 132.394531 C 221.347656 136.875 230.398438 145.15625 236.328125 155.265625 C 236.097656 155.078125 235.773438 154.96875 235.359375 155 C 233.667969 155.316406 233.761719 157.304688 235.585938 157.160156 C 236.457031 157.074219 236.800781 156.480469 236.71875 155.9375 C 241.707031 164.714844 244.359375 174.816406 243.898438 184.988281 C 243.265625 213.707031 219.28125 238.148438 190.460938 238.761719 C 187.042969 238.824219 183.632812 238.996094 180.21875 239.195312 C 180.171875 239.1875 180.136719 239.21875 180.128906 239.257812 C 177.90625 238.488281 175.660156 237.78125 173.421875 237.050781 C 164.078125 234.535156 155.382812 229.683594 148.582031 222.765625 C 126.671875 201.484375 126.746094 165.070312 148.496094 143.710938 C 158.628906 133.554688 172.792969 127.613281 187.152344 127.675781 C 190.5 127.804688 193.863281 127.683594 197.203125 127.410156 C 194.390625 126.234375 191.316406 125.546875 188.257812 125.644531 " fill-opacity="1" fill-rule="nonzero"/><g clip-path="url(#7c342f6b0a)"><path fill="#5d4037" d="M 144.542969 227.980469 C 118.046875 202.179688 120.710938 157.792969 150.054688 135.308594 C 161.226562 126.65625 175.484375 121.980469 189.625 122.644531 C 193.128906 122.867188 196.648438 122.914062 200.160156 122.738281 C 197.960938 121.738281 195.617188 121.007812 193.210938 120.742188 C 191.875 120.554688 190.523438 120.496094 189.171875 120.523438 C 128.242188 120.910156 101.441406 196.050781 149.230469 234.265625 C 155.953125 239.230469 163.957031 244.457031 172.527344 244.789062 C 169.519531 243.257812 166.417969 241.914062 163.296875 240.625 C 156.304688 237.664062 149.933594 233.328125 144.542969 227.980469 " fill-opacity="1" fill-rule="nonzero"/></g><g clip-path="url(#b345517c98)"><path fill="#5d4037" d="M 234.019531 140.5 C 227.039062 133.296875 215.300781 124.203125 204.988281 123.886719 C 208.402344 125.882812 212.023438 127.460938 215.621094 129.089844 C 259.414062 150.535156 261.441406 212.835938 219.394531 237.371094 C 208.535156 243.816406 195.664062 246.523438 183.109375 245.527344 C 180.308594 245.382812 177.507812 245.324219 174.703125 245.300781 C 187.421875 250.867188 206.867188 246.332031 218.574219 239.714844 C 254.71875 219.769531 262.65625 170.417969 234.019531 140.5 " fill-opacity="1" fill-rule="nonzero"/></g><path fill="#5d4037" d="M 188.164062 128.78125 C 188.167969 128.777344 188.171875 128.777344 188.175781 128.773438 C 188.171875 128.777344 188.167969 128.777344 188.164062 128.78125 Z M 188.820312 129.492188 C 189.402344 128.628906 188.28125 127.28125 187.421875 128.0625 C 186.480469 129.074219 187.882812 130.765625 188.820312 129.492188 " fill-opacity="1" fill-rule="nonzero"/><path fill="#5d4037" d="M 160.695312 136.703125 C 161.578125 136.476562 161.820312 134.789062 160.71875 134.773438 C 160.585938 134.785156 160.472656 134.847656 160.371094 134.933594 C 159.066406 135.089844 159.304688 137.121094 160.695312 136.703125 " fill-opacity="1" fill-rule="nonzero"/><path fill="#5d4037" d="M 141.082031 156.761719 C 141.628906 156.082031 140.96875 154.941406 140.097656 155.285156 C 139.644531 155.480469 139.46875 156.113281 139.746094 156.519531 C 139.746094 157.269531 140.777344 157.398438 141.082031 156.761719 " fill-opacity="1" fill-rule="nonzero"/><path fill="#5d4037" d="M 132.792969 182.550781 C 132.738281 182.597656 132.691406 182.65625 132.648438 182.722656 C 131.632812 183.269531 132.476562 184.722656 133.46875 184.21875 C 134.511719 183.769531 133.933594 181.714844 132.792969 182.550781 " fill-opacity="1" fill-rule="nonzero"/><path fill="#5d4037" d="M 140.363281 209.996094 C 139.738281 210.21875 139.632812 211.136719 140.226562 211.464844 C 140.4375 211.765625 140.859375 211.886719 141.183594 211.695312 C 142.222656 211.128906 141.429688 209.570312 140.363281 209.996094 " fill-opacity="1" fill-rule="nonzero"/><path fill="#5d4037" d="M 161.132812 231.621094 C 162.535156 231.503906 162.332031 229.4375 160.941406 229.644531 C 159.910156 230.015625 159.90625 231.59375 161.132812 231.621094 " fill-opacity="1" fill-rule="nonzero"/><path fill="#5d4037" d="M 214.738281 229.691406 C 213.917969 229.84375 213.984375 231.027344 214.753906 231.214844 C 215.578125 231.488281 216.433594 230.632812 215.859375 229.863281 C 215.597656 229.542969 215.101562 229.636719 214.738281 229.691406 " fill-opacity="1" fill-rule="nonzero"/><path fill="#5d4037" d="M 235.5 210.574219 C 235.503906 210.578125 235.503906 210.578125 235.503906 210.582031 C 235.503906 210.578125 235.503906 210.578125 235.5 210.574219 Z M 235.230469 209.507812 C 234.296875 209.460938 233.511719 210.898438 234.539062 211.355469 C 235.136719 211.664062 236.691406 210.792969 235.984375 210.113281 C 236.140625 209.660156 235.589844 209.460938 235.230469 209.507812 " fill-opacity="1" fill-rule="nonzero"/><path fill="#5d4037" d="M 242.769531 183.539062 Z M 242.792969 184.214844 C 243.960938 183.609375 243.410156 182.269531 242.144531 182.515625 C 240.582031 182.867188 241.382812 184.832031 242.792969 184.214844 " fill-opacity="1" fill-rule="nonzero"/><path fill="#5d4037" d="M 215.261719 137.175781 C 216.546875 136.878906 216.328125 134.976562 214.957031 135.070312 C 213.289062 135.109375 213.730469 137.492188 215.261719 137.175781 " fill-opacity="1" fill-rule="nonzero"/><path fill="#5d4037" d="M 208.503906 139.546875 C 209.917969 139.910156 211.476562 139.253906 212.25 138.054688 C 211.5625 140.078125 211.191406 142.1875 211.253906 144.332031 C 211.171875 147.175781 211.53125 150.019531 212.117188 152.792969 C 211.6875 152.769531 211.253906 152.785156 210.824219 152.859375 C 210.101562 153 209.390625 153.207031 208.699219 153.457031 C 209.902344 153.945312 211.226562 153.992188 212.507812 153.902344 C 212.832031 153.855469 216.054688 153.578125 214.78125 153.355469 C 213.929688 153.097656 213.046875 152.855469 212.152344 152.796875 C 212.769531 149.511719 213.046875 146.121094 212.894531 142.78125 C 212.761719 141.097656 212.816406 139.378906 212.433594 137.730469 C 212.53125 137.527344 212.609375 137.308594 212.660156 137.085938 C 211.429688 138.132812 209.847656 138.660156 208.503906 139.546875 " fill-opacity="1" fill-rule="nonzero"/><path fill="#5d4037" d="M 187.035156 135.398438 C 187.03125 137.597656 189.734375 138.28125 191.277344 137.082031 C 190.503906 137.113281 189.742188 136.898438 189.097656 136.464844 C 188.269531 135.957031 188.929688 134.339844 189.039062 133.546875 C 189.296875 132.753906 189.382812 131.71875 190.257812 131.363281 C 190.808594 131.066406 191.402344 130.886719 192.019531 130.804688 C 191.519531 130.59375 190.984375 130.460938 190.441406 130.492188 C 189.421875 130.425781 188.46875 130.957031 188.015625 131.878906 C 187.351562 132.925781 186.949219 134.148438 187.035156 135.398438 " fill-opacity="1" fill-rule="nonzero"/><path fill="#5d4037" d="M 188.554688 143.085938 C 188 143.894531 187.65625 144.820312 187.40625 145.761719 C 187.351562 146.066406 187.0625 147.035156 187.453125 146.320312 C 188.421875 144.785156 189.808594 143.609375 191.140625 142.402344 C 192.539062 141.101562 193.894531 139.683594 194.847656 138.015625 C 195.558594 136.5 196.121094 134.726562 195.574219 133.070312 C 195.117188 131.671875 193.75 130.71875 192.277344 130.792969 C 195.441406 132.320312 194.148438 135.15625 192.761719 137.492188 C 191.382812 139.375 189.839844 141.136719 188.554688 143.085938 " fill-opacity="1" fill-rule="nonzero"/><path fill="#5d4037" d="M 194.871094 146.359375 C 194.421875 146.304688 193.976562 146.046875 193.53125 145.980469 C 192.742188 145.800781 191.9375 145.703125 191.132812 145.671875 C 191.128906 145.671875 191.128906 145.671875 191.128906 145.671875 C 191.128906 145.671875 191.128906 145.671875 191.132812 145.671875 C 190.890625 145.660156 190.65625 145.65625 190.414062 145.660156 C 189.28125 145.679688 188.089844 145.988281 187.191406 146.710938 C 188.667969 146.714844 190.132812 147.050781 191.613281 147.066406 C 192.324219 147.050781 193.03125 146.964844 193.738281 146.886719 C 194.3125 146.792969 195.074219 146.875 195.414062 146.300781 C 195.289062 146.347656 195.164062 146.367188 195.042969 146.367188 C 195.71875 145.109375 196.472656 143.832031 196.535156 142.371094 C 195.382812 143.367188 194.667969 144.832031 194.871094 146.359375 " fill-opacity="1" fill-rule="nonzero"/><path fill="#5d4037" d="M 184.152344 130.960938 C 184.121094 130.867188 184.089844 130.773438 184.058594 130.675781 C 184.03125 130.789062 184 130.90625 183.972656 131.019531 C 182.898438 131.371094 181.878906 131.871094 180.816406 132.261719 C 181.871094 132.792969 183.027344 132.371094 183.820312 131.59375 C 183.507812 132.742188 183.164062 133.882812 183.003906 135.066406 C 182.523438 138.59375 183.46875 142.085938 183.835938 145.574219 C 184.363281 144.351562 184.441406 142.746094 184.46875 141.351562 C 184.441406 139.898438 184.574219 138.449219 184.484375 136.996094 C 184.359375 135.054688 184.71875 133.042969 184.203125 131.152344 C 184.265625 131.066406 184.324219 130.980469 184.375 130.894531 C 184.300781 130.917969 184.226562 130.9375 184.152344 130.960938 " fill-opacity="1" fill-rule="nonzero"/><path fill="#5d4037" d="M 182.722656 145.714844 C 182.074219 145.722656 181.441406 145.894531 180.878906 146.207031 C 181.828125 146.425781 182.78125 146.707031 183.765625 146.667969 C 184.523438 146.640625 185.285156 146.617188 186.039062 146.527344 C 185.839844 146.414062 185.621094 146.324219 185.40625 146.238281 C 184.558594 145.875 183.644531 145.648438 182.722656 145.714844 " fill-opacity="1" fill-rule="nonzero"/><path fill="#5d4037" d="M 171.191406 137.207031 C 171.171875 137.269531 171.152344 137.332031 171.132812 137.394531 C 170.21875 138.203125 168.722656 138.71875 167.539062 138.957031 C 167.390625 138.984375 167.234375 139.015625 167.085938 139.046875 C 167.652344 139.40625 168.335938 139.59375 169.003906 139.457031 C 169.769531 139.269531 170.546875 138.734375 170.941406 138.019531 C 169.972656 141.296875 169.515625 144.742188 169.898438 148.148438 C 170.023438 149.742188 170 151.386719 170.441406 152.933594 C 170.304688 152.933594 170.167969 152.9375 170.027344 152.953125 C 169.308594 153.042969 168.542969 153.195312 167.953125 153.640625 C 168.777344 153.75 169.601562 153.914062 170.441406 153.847656 C 170.421875 153.847656 170.402344 153.847656 170.382812 153.847656 C 171.230469 153.777344 172.113281 153.777344 172.929688 153.539062 C 172.167969 153.261719 171.378906 152.96875 170.566406 152.9375 C 170.960938 150.207031 171.417969 147.476562 171.476562 144.710938 C 171.5625 142.21875 171.742188 139.652344 171.191406 137.207031 " fill-opacity="1" fill-rule="nonzero"/><path fill="#5d4037" d="M 159.703125 139.191406 C 160.878906 139.433594 162.246094 138.796875 162.527344 137.566406 C 161.898438 138.117188 161.082031 138.300781 160.300781 138.53125 C 159.867188 138.664062 159.449219 138.835938 159.003906 138.933594 C 159.21875 139.058594 159.457031 139.152344 159.703125 139.191406 " fill-opacity="1" fill-rule="nonzero"/><path fill="#5d4037" d="M 160.253906 138.542969 C 160.269531 138.539062 160.285156 138.535156 160.300781 138.53125 C 160.285156 138.535156 160.269531 138.539062 160.253906 138.542969 " fill-opacity="1" fill-rule="nonzero"/><path fill="#5d4037" d="M 163.371094 153.425781 C 163.722656 153.386719 164.082031 153.355469 164.417969 153.253906 C 163.695312 152.953125 162.929688 152.707031 162.144531 152.640625 C 162.472656 150.925781 162.492188 149.167969 162.6875 147.433594 C 162.902344 145.503906 163.015625 143.5625 163.019531 141.625 C 162.988281 140.164062 163.085938 138.640625 162.648438 137.234375 C 161.925781 139.675781 161.324219 142.164062 161.292969 144.726562 C 161.269531 147.371094 161.539062 150.027344 161.980469 152.632812 C 161.832031 152.625 161.679688 152.621094 161.527344 152.628906 C 160.789062 152.6875 160.054688 152.902344 159.378906 153.195312 C 160.660156 153.667969 162.042969 153.574219 163.371094 153.425781 " fill-opacity="1" fill-rule="nonzero"/><path fill="#5d4037" d="M 152.6875 169.570312 C 152.453125 169.449219 152.238281 169.285156 152.042969 169.105469 C 150.582031 167.695312 150.238281 165.625 150.066406 163.6875 C 149.6875 160.910156 150.042969 157.960938 151.242188 155.410156 C 151.65625 154.316406 152.394531 153.292969 153.59375 153.011719 C 155.21875 154.121094 155.464844 156.074219 155.628906 157.902344 C 155.871094 159.332031 155.734375 160.777344 155.601562 162.214844 C 155.390625 164.238281 154.972656 166.253906 154.167969 168.128906 C 153.820312 168.730469 153.304688 169.246094 152.6875 169.570312 Z M 156.234375 166.519531 C 157.390625 164.226562 157.792969 161.574219 157.625 159.023438 C 157.175781 156.597656 156.347656 153.296875 153.457031 152.921875 C 153.5 152.949219 153.539062 152.972656 153.578125 153 C 153.082031 152.90625 152.5625 152.925781 152.085938 153.113281 C 150.859375 153.585938 150.121094 154.792969 149.46875 155.871094 C 149.492188 155.828125 149.511719 155.789062 149.535156 155.746094 C 147.464844 159.324219 147.652344 166.171875 150.828125 169.074219 C 151.53125 169.691406 152.570312 170.167969 153.492188 169.796875 C 153.324219 169.789062 153.164062 169.757812 153.007812 169.707031 C 153.332031 169.652344 153.648438 169.550781 153.9375 169.386719 C 155.101562 168.835938 155.65625 167.597656 156.234375 166.519531 " fill-opacity="1" fill-rule="nonzero"/><path fill="#5d4037" d="M 146.835938 153.15625 C 146.195312 153.476562 145.65625 153.984375 144.960938 154.191406 C 144.339844 154.355469 143.707031 154.519531 143.0625 154.507812 C 143.019531 154.507812 142.972656 154.507812 142.929688 154.507812 C 143.492188 155.082031 144.363281 155.199219 145.121094 155.035156 C 145.636719 154.914062 146.015625 154.570312 146.308594 154.15625 C 145 157.214844 145.539062 161.5625 145.800781 164.679688 C 145.847656 165.835938 146.035156 166.992188 146.105469 168.144531 C 146.027344 168.152344 145.945312 168.160156 145.867188 168.171875 C 144.980469 168.296875 144.128906 168.632812 143.351562 169.0625 C 144.765625 169.472656 146.175781 168.980469 147.582031 168.835938 C 148.234375 168.765625 148.894531 168.863281 147.859375 168.453125 C 147.378906 168.234375 146.855469 168.128906 146.332031 168.136719 C 146.46875 167.765625 146.542969 167.371094 146.625 166.980469 C 146.925781 165.566406 147.179688 164.132812 147.199219 162.683594 C 147.460938 159.496094 146.714844 156.335938 146.863281 153.152344 C 146.867188 153.148438 146.871094 153.140625 146.871094 153.136719 C 146.867188 153.136719 146.867188 153.136719 146.863281 153.140625 C 146.863281 153.128906 146.863281 153.117188 146.867188 153.109375 C 146.855469 153.125 146.847656 153.140625 146.835938 153.15625 " fill-opacity="1" fill-rule="nonzero"/><path fill="#5d4037" d="M 146.902344 183.894531 C 147.082031 182.414062 147.25 180.882812 146.917969 179.414062 C 146.480469 177.398438 144.917969 175.277344 142.660156 175.40625 C 141.890625 175.371094 142.851562 175.613281 143.101562 175.789062 C 145.109375 176.894531 145.382812 179.378906 145.203125 181.449219 C 145.164062 182.113281 145.117188 182.773438 145.0625 183.433594 C 144.414062 184.167969 143.578125 184.890625 142.601562 184.847656 C 141.207031 184.46875 140.445312 183.039062 140.109375 181.730469 C 139.96875 181.203125 139.949219 180.65625 140 180.113281 C 140.046875 179.296875 140.0625 178.472656 140.253906 177.671875 C 140.746094 175.601562 143.109375 175.375 141.664062 175.457031 C 139.644531 175.65625 138.617188 177.660156 138.332031 179.464844 C 137.957031 180.921875 138.039062 182.5 138.683594 183.867188 C 139.425781 185.316406 140.960938 186.460938 142.636719 186.351562 C 143.714844 186.191406 144.492188 185.324219 144.972656 184.335938 C 144.898438 185.015625 144.804688 185.695312 144.6875 186.367188 C 144.488281 187.601562 144.292969 188.878906 143.625 189.957031 C 143.191406 190.796875 142.308594 191.191406 141.5 191.585938 C 142.285156 191.546875 143.128906 191.488281 143.808594 191.050781 C 145.878906 189.625 146.535156 186.253906 146.902344 183.894531 " fill-opacity="1" fill-rule="nonzero"/><path fill="#5d4037" d="M 140.96875 191.480469 C 141.234375 191.367188 140.988281 191.390625 140.839844 191.339844 C 140.296875 190.679688 139.613281 188.824219 138.550781 189.78125 C 138.078125 190.566406 139.078125 191.421875 139.789062 191.613281 C 140.1875 191.726562 140.496094 192.085938 140.941406 192.089844 C 142.417969 192.046875 141.777344 192.0625 140.96875 191.480469 " fill-opacity="1" fill-rule="nonzero"/><path fill="#5d4037" d="M 150.882812 204.167969 C 152.0625 203.785156 153.257812 203 153.382812 201.664062 C 153.472656 200.878906 153.5 200.03125 153.113281 199.320312 C 152.355469 198.089844 150.867188 197.011719 149.367188 197.328125 C 149.125 197.449219 148.707031 197.621094 149.242188 197.589844 C 149.609375 197.636719 149.90625 197.890625 150.210938 198.082031 C 151.605469 199.0625 152.382812 200.976562 151.9375 202.636719 C 151.679688 203.203125 151.25 203.671875 150.882812 204.167969 " fill-opacity="1" fill-rule="nonzero"/><path fill="#5d4037" d="M 149.644531 214.429688 C 149.933594 214.386719 150.125 214.355469 150.234375 214.328125 C 152.027344 214.464844 153.574219 213.0625 154 211.355469 C 154.207031 210.300781 154.117188 209.183594 153.847656 208.144531 C 153.28125 206.1875 149.917969 204.269531 148.261719 203.089844 C 147.441406 202.535156 146.816406 201.640625 146.789062 200.628906 C 146.550781 199.210938 147.632812 197.957031 148.882812 197.453125 C 148.429688 197.433594 147.960938 197.480469 147.527344 197.628906 C 145.328125 198.480469 144.703125 201.421875 145.863281 203.34375 C 146.824219 204.984375 148.753906 205.644531 150.175781 206.808594 C 151.675781 207.84375 151.960938 208.421875 152.148438 210.226562 C 152.46875 212.371094 151.292969 213.546875 149.351562 213.914062 C 148.996094 213.773438 148.625 213.566406 148.371094 213.257812 C 146.789062 211.765625 146.410156 211.265625 146.597656 209.046875 C 146.59375 209.089844 146.589844 209.136719 146.582031 209.183594 C 146.644531 208.023438 147.136719 206.953125 147.667969 205.945312 C 146.460938 206.507812 145.566406 207.613281 145.234375 208.898438 C 144.972656 209.941406 144.75 211.171875 145.316406 212.152344 C 146.070312 213.332031 148.207031 214.742188 149.644531 214.429688 " fill-opacity="1" fill-rule="nonzero"/><path fill="#5d4037" d="M 164.546875 213.171875 C 164.390625 213.175781 164.199219 213.207031 164.070312 213.289062 C 164.078125 212.910156 164.023438 212.527344 163.890625 212.15625 C 163.289062 213.289062 162.996094 214.566406 163.167969 215.84375 C 163.582031 215.214844 163.917969 214.488281 164.027344 213.742188 C 164.058594 213.691406 164.09375 213.625 164.132812 213.574219 C 166.320312 214.71875 169.191406 214.5 170.75 212.433594 C 168.769531 213.171875 166.621094 213.042969 164.546875 213.171875 " fill-opacity="1" fill-rule="nonzero"/><path fill="#5d4037" d="M 166.59375 220.28125 C 165.484375 222.6875 164.71875 225.292969 163.296875 227.523438 C 163.105469 228.207031 163.671875 228.925781 164.378906 228.914062 C 165.453125 228.851562 165.957031 227.691406 166.292969 226.816406 C 166.746094 225.574219 167.066406 224.28125 167.257812 222.96875 C 167.550781 222.324219 167.835938 221.675781 168.105469 221.023438 C 168.667969 219.714844 169.292969 218.4375 169.839844 217.121094 C 170.351562 216 170.761719 214.785156 170.671875 213.539062 C 170.195312 214.632812 169.453125 215.574219 168.777344 216.542969 C 167.976562 217.742188 167.21875 218.980469 166.59375 220.28125 " fill-opacity="1" fill-rule="nonzero"/><path fill="#5d4037" d="M 190.910156 222.015625 C 191.957031 222.492188 192.257812 221.078125 191.765625 220.390625 C 191.335938 219.6875 190.507812 219.207031 189.675781 219.25 C 189.339844 219.246094 189.011719 219.304688 188.707031 219.457031 C 189.207031 219.617188 189.765625 219.828125 190.132812 220.210938 C 190.511719 220.75 190.367188 221.59375 190.910156 222.015625 " fill-opacity="1" fill-rule="nonzero"/><path fill="#5d4037" d="M 191.355469 234.472656 C 192.136719 233.042969 192.636719 231.390625 192.597656 229.75 C 192.4375 226.964844 190.585938 223.824219 187.398438 225.0625 C 186.828125 225.332031 186.402344 225.835938 186.148438 226.402344 C 187.085938 225.609375 188.441406 225.5625 189.421875 226.316406 C 190.5 227.425781 190.621094 229.15625 190.625 230.632812 C 190.609375 231.347656 190.492188 232.058594 190.359375 232.761719 C 190.3125 233.457031 190.042969 234.0625 189.652344 234.597656 C 189.292969 234.765625 188.929688 234.929688 188.566406 235.09375 C 186.941406 235.726562 186 233.023438 185.566406 231.863281 C 184.03125 227.921875 184.882812 222.433594 188.28125 219.710938 C 185.917969 220.164062 184.398438 222.253906 183.582031 224.386719 C 182.964844 225.847656 182.914062 227.460938 183.097656 229.015625 C 183.171875 230.039062 183.289062 231.066406 183.640625 232.039062 C 184.09375 233.871094 185.671875 236.339844 187.460938 236.480469 C 187.402344 236.515625 187.34375 236.554688 187.289062 236.589844 C 187.457031 236.566406 187.628906 236.542969 187.800781 236.511719 C 187.296875 236.800781 186.96875 237.453125 187.140625 237.996094 C 187.347656 238.277344 187.59375 238.609375 187.960938 238.6875 C 188.457031 238.789062 189.089844 238.464844 189.101562 237.914062 C 189.554688 237.359375 189.160156 236.425781 188.460938 236.363281 C 188.535156 236.339844 188.613281 236.316406 188.6875 236.289062 C 189.707031 235.949219 190.726562 235.363281 191.355469 234.472656 " fill-opacity="1" fill-rule="nonzero"/><path fill="#5d4037" d="M 212.679688 218.21875 C 211.816406 218.246094 210.921875 218.40625 210.210938 218.921875 C 209.886719 219.140625 209.628906 219.425781 209.421875 219.75 C 210.398438 217.382812 211.386719 214.835938 210.601562 212.292969 C 209.625 214.410156 208.929688 216.660156 208.976562 219.015625 C 208.984375 219.316406 208.867188 221.273438 209.136719 220.4375 C 209.152344 220.398438 209.171875 220.359375 209.1875 220.320312 C 209.972656 219.660156 210.996094 219.320312 212.027344 219.488281 C 213.15625 219.5625 213.886719 220.324219 214.003906 221.4375 C 214.113281 222.476562 213.964844 223.515625 213.777344 224.535156 C 213.613281 226.332031 212.4375 228.417969 210.386719 228.242188 C 210.238281 228.242188 210.085938 228.242188 209.941406 228.238281 C 210.292969 228.402344 210.644531 228.578125 211.019531 228.671875 C 211.433594 228.765625 211.863281 228.722656 212.273438 228.628906 C 214.636719 228.128906 215.558594 225.476562 215.980469 223.371094 C 216.488281 221.148438 215.328125 218.074219 212.679688 218.21875 " fill-opacity="1" fill-rule="nonzero"/><path fill="#5d4037" d="M 207.167969 223.855469 C 206.449219 224.050781 206.414062 224.917969 206.339844 225.53125 C 206.222656 226.988281 207.636719 228.339844 209.0625 228.296875 C 209.601562 228.339844 208.453125 228.003906 208.40625 227.160156 C 208.351562 226.074219 208.953125 223.679688 207.167969 223.855469 " fill-opacity="1" fill-rule="nonzero"/><path fill="#5d4037" d="M 215.175781 212.738281 C 213.976562 213.78125 211.980469 213.675781 210.816406 212.535156 C 211.15625 214.992188 214.511719 215.046875 215.175781 212.738281 " fill-opacity="1" fill-rule="nonzero"/><path fill="#5d4037" d="M 226.558594 203.789062 C 226.535156 203.832031 226.507812 203.878906 226.480469 203.921875 C 226.472656 203.941406 226.460938 203.960938 226.453125 203.976562 C 226.488281 203.914062 226.523438 203.851562 226.558594 203.789062 " fill-opacity="1" fill-rule="nonzero"/><path fill="#5d4037" d="M 230.152344 209.035156 C 230.148438 209.035156 230.144531 209.035156 230.140625 209.035156 C 230.128906 209.039062 230.117188 209.042969 230.101562 209.046875 C 230.121094 209.042969 230.136719 209.039062 230.152344 209.035156 " fill-opacity="1" fill-rule="nonzero"/><path fill="#5d4037" d="M 226.546875 208.332031 C 225.496094 208.421875 224.457031 208.625 223.398438 208.675781 C 223.261719 208.679688 223.144531 208.671875 223.058594 208.671875 C 223.628906 207.996094 224.210938 207.328125 224.773438 206.648438 C 225.40625 205.78125 225.949219 204.851562 226.480469 203.921875 C 226.761719 203.40625 227.046875 202.886719 227.320312 202.359375 C 227.289062 203.222656 227.304688 204.085938 227.339844 204.949219 C 227.394531 206.070312 227.453125 207.199219 227.558594 208.320312 C 227.222656 208.300781 226.882812 208.300781 226.546875 208.332031 Z M 231.078125 206.8125 C 231.03125 206.964844 230.984375 207.121094 230.945312 207.28125 C 230.945312 207.269531 230.949219 207.257812 230.953125 207.25 C 230.800781 207.746094 230.722656 208.253906 230.699219 208.765625 C 230.320312 208.660156 229.921875 208.628906 229.535156 208.570312 C 229.300781 208.535156 229.066406 208.5 228.832031 208.464844 C 228.945312 207.195312 229 205.921875 228.980469 204.660156 C 228.976562 204.425781 228.96875 204.1875 228.957031 203.949219 C 228.957031 203.949219 228.957031 203.953125 228.957031 203.957031 C 228.925781 202.4375 228.792969 200.917969 228.589844 199.40625 C 228.816406 198.664062 228.964844 197.898438 228.984375 197.105469 C 228.78125 197.394531 228.578125 197.679688 228.375 197.964844 C 228.347656 197.816406 228.324219 197.667969 228.296875 197.515625 C 228.140625 197.886719 228.007812 198.261719 227.890625 198.636719 C 226.832031 200.121094 225.796875 201.617188 225.007812 203.269531 C 224.570312 204.167969 224.214844 205.105469 223.828125 206.027344 C 223.3125 207.105469 222.777344 208.1875 222.492188 209.355469 C 222.648438 209.164062 222.808594 208.972656 222.96875 208.78125 C 223.019531 208.828125 223.109375 208.890625 223.234375 208.980469 C 224.488281 209.730469 226.125 209.753906 227.6875 209.535156 C 227.820312 210.570312 228 211.597656 228.269531 212.609375 C 228.460938 211.539062 228.621094 210.453125 228.742188 209.355469 C 229.234375 209.257812 229.703125 209.144531 230.140625 209.035156 C 230.328125 208.984375 230.511719 208.929688 230.695312 208.871094 C 230.675781 209.546875 230.753906 210.226562 230.882812 210.890625 C 231.523438 209.632812 231.761719 208.101562 231.078125 206.8125 " fill-opacity="1" fill-rule="nonzero"/><path fill="#5d4037" d="M 228.980469 204.6875 C 228.980469 204.707031 228.980469 204.726562 228.980469 204.746094 C 228.980469 204.703125 228.980469 204.660156 228.980469 204.617188 C 228.980469 204.632812 228.980469 204.648438 228.980469 204.660156 C 228.980469 204.714844 228.984375 204.765625 228.984375 204.820312 C 228.984375 204.777344 228.980469 204.730469 228.980469 204.6875 " fill-opacity="1" fill-rule="nonzero"/><path fill="#5d4037" d="M 227.972656 212.71875 C 227.179688 212.785156 226.417969 213.058594 225.710938 213.40625 C 226.6875 213.695312 227.726562 213.753906 228.730469 213.621094 C 229.453125 213.511719 230.15625 213.296875 230.835938 213.042969 C 229.90625 212.808594 228.929688 212.679688 227.972656 212.71875 " fill-opacity="1" fill-rule="nonzero"/><path fill="#5d4037" d="M 232.519531 175.292969 C 231.65625 175.339844 230.6875 175.675781 230.226562 176.453125 C 229.300781 178.238281 230.445312 180.285156 232.339844 179.503906 C 232.339844 179.503906 232.339844 179.503906 232.34375 179.503906 C 231.820312 179.257812 231.132812 179.023438 231.0625 178.359375 C 231.058594 177.78125 231.128906 177.125 231.4375 176.628906 C 232.222656 175.496094 234.128906 175.28125 232.519531 175.292969 " fill-opacity="1" fill-rule="nonzero"/><path fill="#5d4037" d="M 235.855469 175.898438 C 235.09375 175.347656 234.082031 175.433594 233.203125 175.585938 C 233.820312 175.941406 234.578125 176.132812 235.066406 176.671875 C 235.601562 177.597656 235.605469 178.761719 235.539062 179.800781 C 235.546875 179.734375 235.554688 179.667969 235.5625 179.597656 C 235.527344 180.40625 235.308594 181.164062 234.800781 181.804688 C 234.550781 182.210938 234.292969 182.621094 233.890625 182.898438 C 234.261719 183 235.003906 182.53125 235.414062 182.25 C 236.054688 181.863281 236.609375 181.3125 236.832031 180.582031 C 237.46875 179.039062 237.210938 176.972656 235.855469 175.898438 " fill-opacity="1" fill-rule="nonzero"/><path fill="#5d4037" d="M 232.640625 182.660156 C 232.195312 182.703125 231.714844 182.792969 231.367188 183.085938 C 231.140625 183.277344 231.074219 183.617188 231.28125 183.847656 C 231.554688 184.132812 232.011719 183.957031 232.34375 183.875 C 232.726562 183.734375 233.054688 183.476562 233.351562 183.203125 C 233.242188 183.199219 233.125 183.203125 233.015625 183.207031 C 233.34375 183.050781 233.671875 182.894531 234.023438 182.792969 C 233.589844 182.621094 233.101562 182.628906 232.640625 182.660156 " fill-opacity="1" fill-rule="nonzero"/><path fill="#5d4037" d="M 237.601562 188.066406 C 237.78125 187.253906 237.855469 186.398438 237.632812 185.585938 C 237.3125 184.351562 236.214844 183.113281 234.855469 183.148438 C 233.65625 183.171875 235.441406 183.246094 235.976562 184.824219 C 236.351562 185.78125 236.125 186.820312 235.953125 187.796875 C 235.8125 189.128906 235.097656 190.351562 234.066406 191.199219 C 233.847656 191.367188 233.605469 191.511719 233.363281 191.648438 C 233.308594 191.652344 233.253906 191.648438 233.214844 191.636719 C 232.625 191.503906 232.136719 191.101562 231.652344 190.765625 C 230.820312 190.160156 230.164062 189.183594 230.351562 188.117188 C 230.40625 187.53125 230.492188 186.941406 230.742188 186.40625 C 229.144531 187.226562 228.644531 189.652344 229.980469 190.929688 C 230.785156 191.722656 232.523438 192.417969 233.566406 191.785156 C 233.585938 191.773438 233.601562 191.765625 233.613281 191.757812 C 233.929688 191.746094 234.238281 191.710938 234.539062 191.613281 C 236.15625 191.152344 237.308594 189.695312 237.601562 188.066406 " fill-opacity="1" fill-rule="nonzero"/><path fill="#5d4037" d="M 230.355469 188.105469 C 230.355469 188.109375 230.351562 188.113281 230.351562 188.117188 C 230.351562 188.121094 230.351562 188.125 230.351562 188.128906 C 230.351562 188.121094 230.355469 188.113281 230.355469 188.105469 " fill-opacity="1" fill-rule="nonzero"/><path fill="#5d4037" d="M 225.601562 154.152344 C 226.085938 153.609375 226.792969 153.460938 227.476562 153.347656 C 227.039062 153.191406 226.574219 153.066406 226.109375 153.09375 C 224.808594 153.316406 223.390625 154.089844 223.015625 155.445312 C 222.808594 156.339844 222.769531 157.332031 223.132812 158.191406 C 223.535156 159.019531 224.320312 159.871094 225.296875 159.898438 C 225.785156 159.882812 226.246094 159.722656 226.695312 159.550781 C 226.433594 159.46875 226.152344 159.414062 225.886719 159.335938 C 225.144531 159.230469 224.742188 158.550781 224.5 157.90625 C 224.292969 157.175781 224.453125 156.398438 224.519531 155.660156 C 224.65625 155.027344 225.140625 154.570312 225.601562 154.152344 " fill-opacity="1" fill-rule="nonzero"/><path fill="#5d4037" d="M 223.65625 167.808594 C 222.773438 168.898438 224.074219 167.710938 224.460938 167.453125 C 225.207031 166.875 226.03125 166.414062 226.757812 165.808594 C 227.652344 165.0625 228.601562 164.355469 229.316406 163.425781 C 230.25 162.128906 231.097656 160.699219 231.382812 159.109375 C 231.800781 156.648438 231 153.480469 228.085938 153.238281 C 231.195312 155.050781 230.003906 159.191406 228.394531 161.652344 C 227.128906 163.929688 225.105469 165.660156 223.65625 167.808594 " fill-opacity="1" fill-rule="nonzero"/><path fill="#5d4037" d="M 230.382812 168.019531 C 229.777344 168.121094 229.121094 167.863281 228.503906 167.832031 C 227.511719 167.695312 226.492188 167.617188 225.496094 167.789062 C 224.699219 167.933594 223.945312 168.265625 223.257812 168.691406 C 223.722656 168.753906 224.195312 168.804688 224.667969 168.8125 C 226.164062 168.855469 227.65625 169.074219 229.144531 168.800781 C 229.558594 168.730469 230.03125 168.695312 230.40625 168.496094 C 230.421875 168.652344 230.441406 168.808594 230.472656 168.964844 C 230.609375 168.667969 230.746094 168.367188 230.875 168.0625 C 230.992188 167.902344 231.199219 167.683594 230.992188 167.777344 C 231.351562 166.886719 231.621094 165.960938 231.644531 164.992188 C 230.769531 165.757812 230.378906 166.886719 230.382812 168.019531 " fill-opacity="1" fill-rule="nonzero"/><path fill="#5d4037" d="M 218.542969 190.417969 C 219.246094 192.71875 216.714844 191.257812 215.679688 190.570312 C 216.636719 190.601562 217.597656 190.585938 218.542969 190.417969 Z M 205.597656 187.441406 C 204.058594 186.992188 202.535156 186.484375 201.039062 185.90625 C 198.484375 184.984375 196.125 183.136719 193.304688 183.265625 C 192.414062 183.308594 191.4375 183.710938 190.925781 184.453125 C 192.105469 183.757812 193.542969 184.117188 194.714844 184.660156 C 195.8125 185.226562 196.824219 185.957031 197.949219 186.488281 C 197.757812 186.476562 197.566406 186.464844 197.371094 186.457031 C 195.980469 186.242188 191.867188 186.734375 191.28125 185.449219 C 191.121094 185.214844 191 184.953125 190.941406 184.675781 C 189.921875 188.867188 200.214844 188.082031 202.730469 188.597656 C 203.410156 188.730469 204.089844 188.847656 204.769531 188.964844 C 206.75 189.550781 208.769531 189.976562 210.816406 190.234375 C 211.953125 190.605469 213.078125 191.027344 214.1875 191.480469 C 215.085938 191.925781 215.992188 192.367188 216.96875 192.621094 C 218.039062 192.988281 219.6875 192.285156 219.105469 190.960938 C 219.089844 190.8125 218.351562 189.910156 218.476562 190.207031 C 218.476562 190.207031 218.476562 190.207031 218.476562 190.203125 C 218.488281 190.242188 218.5 190.277344 218.507812 190.3125 C 218.511719 190.320312 218.515625 190.332031 218.519531 190.339844 C 216.167969 189.546875 213.75 189.027344 211.308594 188.613281 C 209.730469 188.144531 208.101562 187.867188 206.472656 187.621094 C 206.183594 187.558594 205.890625 187.496094 205.597656 187.441406 " fill-opacity="1" fill-rule="nonzero"/><path fill="#5d4037" d="M 218.511719 190.316406 C 218.511719 190.316406 218.507812 190.3125 218.507812 190.3125 C 218.507812 190.308594 218.507812 190.304688 218.507812 190.304688 C 218.507812 190.308594 218.507812 190.3125 218.511719 190.316406 " fill-opacity="1" fill-rule="nonzero"/><path fill="#5d4037" d="M 223.367188 191.972656 C 224.121094 192.28125 224.859375 192.621094 225.605469 192.953125 C 225.066406 192.964844 224.484375 193.03125 223.8125 193.164062 C 222.4375 193.332031 221.417969 193.292969 220.589844 192.621094 C 220.195312 191.949219 220.183594 191.226562 221.375 191.257812 C 222.074219 191.386719 222.710938 191.71875 223.367188 191.972656 Z M 220.832031 189.789062 C 219.183594 190.097656 218.773438 191.964844 219.894531 192.933594 C 220.824219 195.023438 223.785156 194.964844 226.03125 194.382812 C 226.910156 194.296875 227.800781 194.292969 228.667969 194.148438 C 228.703125 194.15625 228.738281 194.167969 228.773438 194.179688 C 230.519531 194.640625 232.253906 195.242188 234.058594 195.429688 C 234.695312 195.472656 235.316406 195.355469 235.929688 195.222656 C 235.457031 195.09375 234.96875 194.984375 234.511719 194.800781 C 233.417969 194.332031 232.371094 193.734375 231.242188 193.34375 C 229.9375 192.890625 228.601562 192.519531 227.320312 191.984375 C 225.9375 191.335938 224.550781 190.691406 223.105469 190.183594 C 222.390625 189.894531 221.609375 189.621094 220.832031 189.789062 " fill-opacity="1" fill-rule="nonzero"/><path fill="#5d4037" d="M 183.207031 198.449219 C 183.195312 198.515625 183.1875 198.582031 183.175781 198.648438 C 183.171875 198.667969 183.167969 198.6875 183.152344 198.703125 C 183.179688 198.738281 183.257812 198.53125 183.285156 198.472656 C 183.769531 198.617188 184.308594 198.316406 184.46875 197.84375 C 184.941406 196.351562 185.210938 194.800781 185.625 193.289062 C 186.027344 192.40625 186.375 191.496094 186.703125 190.582031 C 187.097656 189.765625 187.277344 188.476562 185.984375 188.582031 C 185.757812 188.625 185.558594 188.761719 185.429688 188.949219 C 184.921875 189.636719 184.667969 190.488281 184.472656 191.3125 C 184.203125 191.953125 183.933594 192.59375 183.699219 193.246094 C 183.316406 194.242188 183.011719 195.269531 182.742188 196.300781 C 182.515625 197.019531 182.300781 198.121094 183.207031 198.449219 " fill-opacity="1" fill-rule="nonzero"/><path fill="#5d4037" d="M 189.878906 183.636719 C 190.007812 184.058594 190.054688 184.640625 189.609375 184.890625 C 189.035156 185.183594 188.3125 185.460938 187.675781 185.242188 C 186.664062 184.503906 186.644531 182.6875 188.140625 182.605469 C 189.523438 182.523438 189.878906 184.101562 189.878906 183.636719 Z M 189.140625 180.25 C 189.050781 180.761719 188.988281 181.277344 188.9375 181.789062 C 188.472656 181.496094 187.890625 181.367188 187.34375 181.433594 C 184.308594 181.84375 184.539062 186.355469 187.296875 186.984375 C 188.816406 187.253906 191.386719 185.753906 190.632812 183.988281 C 190.460938 183.542969 190.097656 183.214844 189.789062 182.867188 C 189.648438 182.410156 189.339844 182.046875 188.953125 181.800781 C 189.292969 181.277344 189.609375 180.742188 189.894531 180.1875 C 192.550781 174.765625 193.847656 168.808594 195.917969 163.15625 C 197.078125 159.824219 198.316406 156.515625 199.46875 153.183594 C 200.824219 149.621094 202.117188 145.980469 202.699219 142.203125 C 201.296875 144.65625 200.285156 147.320312 199.347656 149.980469 C 197.523438 155.480469 195.734375 160.992188 193.742188 166.433594 C 192.136719 171.011719 190.058594 175.460938 189.140625 180.25 " fill-opacity="1" fill-rule="nonzero"/><path fill="#5d4037" d="M 199.335938 150.015625 C 199.339844 150.003906 199.34375 149.992188 199.347656 149.980469 C 199.351562 149.972656 199.355469 149.960938 199.355469 149.953125 C 199.351562 149.972656 199.34375 149.996094 199.335938 150.015625 " fill-opacity="1" fill-rule="nonzero"/><path fill="#5d4037" d="M 173.945312 171.195312 C 174.117188 172.5 174.957031 173.5 175.65625 174.574219 C 174.894531 174.296875 174.097656 174.167969 173.328125 173.945312 C 172.976562 173.839844 172.5625 173.777344 172.417969 173.386719 C 172.910156 172.660156 173.382812 171.875 173.945312 171.195312 Z M 170.699219 170.679688 C 169.40625 170.652344 168.027344 169.984375 167.140625 169.097656 C 166.683594 168.515625 166.25 167.632812 165.863281 167.023438 C 166.894531 167.445312 168.101562 167.800781 169.074219 168.355469 C 170.125 168.839844 170.800781 169.332031 171.363281 170.398438 C 171.269531 170.675781 170.953125 170.675781 170.699219 170.679688 Z M 172.128906 172.566406 C 172.042969 173.0625 171.835938 173.617188 172.035156 174.085938 C 172.054688 174.03125 172.070312 173.980469 172.09375 173.925781 C 172.546875 174.824219 173.855469 175.253906 174.707031 175.789062 C 175.660156 176.265625 176.550781 176.933594 177.367188 177.609375 C 178.292969 178.464844 179.109375 179.375 179.96875 180.277344 C 180.875 181.164062 182.675781 183.554688 184.050781 182.617188 C 183.109375 182.742188 182.632812 181.679688 182.15625 181.058594 C 181.507812 180.113281 180.925781 179.128906 180.238281 178.253906 C 180.84375 178.492188 181.453125 178.714844 182.070312 178.941406 C 182.875 179.207031 183.714844 179.402344 184.367188 179.96875 C 184.863281 180.386719 185.078125 181.144531 184.863281 181.746094 C 184.6875 182.070312 184.398438 182.484375 184.03125 182.632812 C 186.117188 182.453125 186.261719 179.96875 184.902344 178.75 C 184.273438 178.0625 183.300781 177.773438 182.503906 177.335938 C 181.785156 176.941406 181.082031 176.632812 180.378906 176.273438 C 178.78125 175.449219 177.292969 174.503906 176.007812 173.214844 C 175.308594 172.542969 174.585938 171.914062 174.046875 171.074219 L 174.066406 171.050781 C 174.054688 171.050781 174.042969 171.050781 174.03125 171.054688 L 173.898438 170.863281 C 173.90625 170.933594 173.914062 171 173.925781 171.070312 C 173.566406 171.128906 173.289062 171.25 173.019531 171.453125 C 173.007812 171.402344 172.980469 171.355469 172.949219 171.308594 C 172.933594 170.863281 172.457031 170.546875 172.027344 170.648438 C 171.914062 168.335938 170.160156 167.042969 168.257812 166.042969 C 166.710938 165.339844 165.019531 164.953125 163.4375 164.359375 C 162.449219 163.910156 161.417969 163.476562 160.546875 162.820312 C 160.914062 163.796875 161.589844 164.433594 162.335938 165.097656 C 162.957031 165.546875 163.609375 165.976562 163.929688 166.714844 C 164.488281 167.972656 164.785156 169.421875 165.710938 170.46875 C 167.0625 171.859375 169.3125 172.289062 171.117188 171.675781 C 170.875 172.242188 171.527344 172.808594 172.046875 172.480469 C 172.101562 172.511719 172.152344 172.523438 172.207031 172.519531 C 172.1875 172.566406 172.171875 172.613281 172.152344 172.667969 C 172.144531 172.632812 172.136719 172.601562 172.128906 172.566406 " fill-opacity="1" fill-rule="nonzero"/></svg>