<svg width="200" height="200" viewBox="0 0 200 200" fill="none" xmlns="http://www.w3.org/2000/svg">
<mask id="mask0_37_924" style="mask-type:luminance" maskUnits="userSpaceOnUse" x="0" y="0" width="200" height="200">
<path d="M0 0H200V200H0V0Z" fill="white"/>
</mask>
<g mask="url(#mask0_37_924)">
<path d="M199.984 101.568V96.8646C199.984 95.776 199.87 94.6979 199.813 93.5938C199.734 91.4271 199.438 89.2135 199.198 87.0052C198.62 82.5417 197.745 78.1406 196.573 73.7969C196.036 71.5885 195.271 69.4635 194.583 67.2396C194.203 66.1563 193.776 65.0781 193.38 64.0052L192.766 62.3906L192.042 60.8021C188.318 52.0729 183.453 44.0313 177.458 36.6771L175.135 33.9375C174.349 33.0313 173.5 32.1719 172.688 31.2865L171.443 29.9688L170.146 28.7083C169.271 27.875 168.432 26.9948 167.516 26.2031C163.906 22.9219 160.083 19.9063 156.052 17.1563C151.932 14.375 147.635 11.9167 143.151 9.77604C138.672 7.64063 134.057 5.84375 129.307 4.39063C124.557 2.9375 119.729 1.83854 114.818 1.10417C109.906 0.369792 104.969 0 100 0C80.0625 0.0520827 60.125 6.07813 43.9583 17.1927C39.9375 19.9375 36.1302 22.9531 32.526 26.2292C31.6094 27.026 30.7813 27.9063 29.901 28.7344L28.599 30L27.3281 31.3125C26.5104 32.2031 25.6667 33.0625 24.8802 33.9635L22.5625 36.7135C16.5677 44.0677 11.7083 52.1042 7.97917 60.8281L7.25521 62.4271L6.67709 64.0365C6.27604 65.1198 5.85417 66.2031 5.47396 67.2708C4.78646 69.4375 4.03125 71.6042 3.48959 73.8281C2.3125 78.1667 1.4375 82.5729 0.859378 87.0313C0.630211 89.2396 0.333336 91.4219 0.244795 93.6406C0.187503 94.7344 0.0937515 95.849 0.0729195 96.9219C0.0520849 98 0.0729195 99.0885 0.0729195 100.13V101.771L0.13542 103.385L0.276045 106.599C0.35417 107.661 0.468752 108.724 0.562503 109.776C0.656254 110.828 0.744795 111.885 0.911461 112.922C1.96354 121.057 3.99479 128.938 7.00521 136.573C8.91146 141.427 11.1875 146.104 13.8281 150.604C16.474 155.099 19.4479 159.37 22.7552 163.401C26.0677 167.438 29.6667 171.188 33.5677 174.656C37.4635 178.125 41.6042 181.271 45.9948 184.094C50.6302 187.083 55.4844 189.667 60.5573 191.833C61.7135 192.38 62.8906 192.802 64.0208 193.276C65.1563 193.755 66.2656 194.172 67.3802 194.521L70.6198 195.604L73.7552 196.49C80.0781 198.245 86.5156 199.323 93.0677 199.724C95.3229 199.938 97.0625 199.885 98.2292 199.938L100 199.969L98.2292 199.922C97.0625 199.865 95.3438 199.922 93.0781 199.677C84.7135 199.083 76.5729 197.427 68.6406 194.714C60.7135 192 53.2604 188.318 46.2865 183.667C41.1042 180.193 36.2917 176.26 31.849 171.87C26.9323 167.016 22.599 161.682 18.8542 155.875C14.7917 149.578 11.4844 142.906 8.93229 135.865C8.57292 134.969 8.31771 134.031 8.00521 133.104C7.69792 132.182 7.40104 131.25 7.125 130.313L6.40625 127.422L6.02084 125.979L5.70313 124.536L5.08334 121.604C4.88021 120.62 4.75 119.625 4.58334 118.63C4.22396 116.641 4.03125 114.62 3.8125 112.583C3.67709 111.573 3.64063 110.547 3.58334 109.516L3.40625 106.427C3.40625 105.391 3.40625 104.354 3.40625 103.313V100.219C3.45313 99.151 3.4948 98.0885 3.54688 97.0156C3.60417 95.9583 3.73438 94.9323 3.81771 93.8854C3.96354 91.7969 4.32292 89.6875 4.61979 87.5833C5.32292 83.3229 6.30729 79.1302 7.58334 75.0052C8.16667 72.9115 8.96875 70.875 9.6875 68.8073C10.0885 67.7917 10.5208 66.7813 10.9375 65.7604L11.5677 64.2396L12.2865 62.7344C16.0521 54.5521 20.8698 47.0417 26.75 40.2188C29.7344 36.776 32.9323 33.5417 36.3385 30.5208C41.5677 25.9323 47.224 21.9583 53.3125 18.5938C59.401 15.2292 65.776 12.5521 72.4427 10.5625C76.9115 9.23958 81.4583 8.23958 86.0729 7.55729C90.6979 6.92187 95.349 6.59375 100.021 6.57813L103.557 6.66667C104.151 6.66667 104.786 6.66667 105.349 6.72396L107.068 6.85417L108.781 6.97396C109.349 6.97396 109.922 7.05208 110.505 7.14063L113.979 7.56771C120.891 8.56771 127.615 10.3021 134.151 12.776C140.682 15.2448 146.875 18.3906 152.724 22.2188C156.568 24.7344 160.219 27.5052 163.682 30.526C167.094 33.5469 170.292 36.7813 173.271 40.2292C179.161 47.0469 183.99 54.5469 187.76 62.7292L188.484 64.2604L189.109 65.7813C189.521 66.8021 189.958 67.8125 190.354 68.8385C191.078 70.901 191.885 72.9375 192.464 75.0313C193.734 79.1563 194.719 83.349 195.422 87.6094C195.719 89.724 196.078 91.8177 196.229 93.9375C196.318 94.9896 196.448 96.0365 196.505 97.0885C196.563 98.1458 196.594 99.1927 196.641 100.24L196.698 101.771V103.359C196.698 104.417 196.698 105.469 196.698 106.521C196.698 107.568 196.641 108.594 196.526 109.589C196.464 110.604 196.427 111.625 196.297 112.635C195.542 120.594 193.823 128.344 191.146 135.875C188.599 142.922 185.292 149.594 181.234 155.891C177.651 161.406 173.547 166.5 168.927 171.182C164.307 175.859 159.266 180.026 153.797 183.682C146.828 188.333 139.375 192.021 131.448 194.734C123.516 197.448 115.37 199.104 107.01 199.698C104.76 199.922 103.016 199.885 101.849 199.938L100.078 199.984L101.849 199.948C103.016 199.901 104.734 199.948 107.01 199.74C113.563 199.339 120 198.26 126.323 196.505L129.458 195.62L132.698 194.536C133.813 194.188 134.922 193.734 136.063 193.292C137.203 192.854 138.375 192.417 139.531 191.849C144.578 189.677 149.406 187.099 154.016 184.115C158.401 181.292 162.547 178.151 166.443 174.677C170.339 171.208 173.943 167.458 177.25 163.422C180.563 159.391 183.536 155.125 186.177 150.625C188.818 146.125 191.094 141.448 193.005 136.594C196.016 128.964 198.047 121.078 199.104 112.948C199.276 111.906 199.359 110.844 199.458 109.781C199.557 108.724 199.667 107.62 199.745 106.583C199.828 105.552 199.833 104.484 199.885 103.422L199.948 101.833C199.948 101.833 199.984 101.625 199.984 101.568Z" fill="#5D4037"/>
</g>
<path d="M116.828 162.453C123.073 160.745 128.906 158.125 134.333 154.599L134.229 154.5C131.375 156.375 128.38 157.995 125.25 159.365C122.51 160.578 119.698 161.578 116.807 162.375C112.76 163.531 108.641 164.25 104.443 164.542C102.995 164.688 101.875 164.656 101.135 164.693C101.854 164.693 102.995 164.693 104.443 164.557C108.646 164.292 112.776 163.589 116.828 162.453Z" fill="#5D4037"/>
<path d="M157.698 77.2551L158.099 78.2551C158.359 78.9166 158.641 79.5833 158.891 80.2551C159.344 81.6093 159.849 82.9374 160.208 84.3124C161 87.0051 161.609 89.7395 162.031 92.5208C162.203 93.901 162.417 95.2655 162.505 96.6353C162.557 97.3228 162.63 97.9999 162.656 98.6874C162.687 99.3697 162.698 100.052 162.724 100.729V102.76C162.724 103.437 162.708 104.115 162.677 104.786C162.651 105.458 162.604 106.125 162.542 106.786C162.49 107.453 162.464 108.109 162.37 108.766C161.823 113.896 160.661 118.88 158.88 123.724C157.198 128.255 155.031 132.542 152.38 136.583C151.328 138.182 150.219 139.698 149.062 141.135C149.125 141.177 149.187 141.229 149.24 141.286C150.411 139.838 151.547 138.338 152.63 136.745C155.344 132.708 157.573 128.417 159.313 123.875C161.172 119 162.401 113.974 163.01 108.792C163.109 108.13 163.156 107.458 163.214 106.786L163.37 104.766C163.37 104.094 163.396 103.417 163.438 102.734V100.687L163.396 98.6197C163.396 97.901 163.307 97.2395 163.255 96.5468C163.193 95.1614 162.984 93.776 162.823 92.3801C162.422 89.5624 161.828 86.7864 161.047 84.052C160.693 82.6562 160.193 81.3072 159.745 79.927C159.5 79.2499 159.229 78.578 158.969 77.8905L158.573 76.8749L158.125 75.8697C156.365 71.8593 154.208 68.078 151.661 64.5208C151.484 64.828 151.266 65.1041 151.01 65.3489C153.469 68.7603 155.562 72.3801 157.286 76.2187L157.698 77.2551Z" fill="#5D4037"/>
<path d="M41.1459 123.724C39.3542 118.87 38.1823 113.875 37.625 108.729C37.5313 108.073 37.4948 107.406 37.4532 106.745C37.4063 106.078 37.3594 105.406 37.3125 104.745L37.2709 102.729V100.708C37.2709 100.026 37.2917 99.3385 37.3334 98.6562C37.3334 97.9687 37.4375 97.2916 37.4896 96.6145C37.5677 95.2499 37.7813 93.8749 37.9584 92.4999C38.375 89.7187 38.9844 86.9843 39.7761 84.2864C40.1355 82.9166 40.6511 81.5885 41.099 80.2291C41.349 79.5572 41.625 78.901 41.8907 78.2291L42.2969 77.2343L42.7448 76.2551C43.1927 75.2551 43.6771 74.276 44.1875 73.302C43.9792 73.2135 43.8177 73.0728 43.7136 72.8749L43.625 72.6926C43.5886 72.6249 43.5625 72.552 43.5469 72.4739C42.974 73.5937 42.4271 74.7343 41.9271 75.8749L41.4792 76.8801L41.0834 77.901C40.823 78.578 40.5469 79.2499 40.3021 79.9374C39.8542 81.3124 39.3594 82.6666 39.0052 84.0572C38.2292 86.7968 37.6407 89.5728 37.2396 92.3905C37.0782 93.7812 36.875 95.1718 36.8073 96.5624C36.7657 97.2864 36.6927 97.9478 36.6719 98.6405C36.6511 99.3333 36.6719 100.016 36.6302 100.693V102.75C36.6302 103.432 36.6459 104.115 36.6875 104.786L36.8438 106.807C36.9011 107.479 36.9375 108.151 37.0417 108.807C37.6511 113.99 38.8802 119.016 40.7344 123.891C42.4792 128.432 44.7084 132.719 47.4219 136.76C48.2761 138.016 49.1615 139.213 50.0625 140.37C50.1355 140.323 50.2084 140.286 50.2865 140.26C49.3855 139.088 48.5052 137.87 47.6615 136.594C45.0052 132.547 42.8334 128.26 41.1459 123.724Z" fill="#5D4037"/>
<path d="M95.5521 164.51C91.3542 164.224 87.2292 163.5 83.1823 162.349C76.8594 160.589 70.9584 157.901 65.4792 154.286L64.3334 153.516L64.2552 153.641L65.4011 154.411C69.9063 157.365 74.7136 159.693 79.823 161.406C84.9271 163.12 90.1719 164.156 95.5469 164.521C96.9896 164.656 98.1094 164.63 98.8542 164.656C98.1146 164.62 97.0053 164.62 95.5521 164.51Z" fill="#5D4037"/>
<path d="M65.5312 49.4947C73.25 44.3958 81.6823 41.1874 90.8385 39.8541C96.9427 38.9739 103.047 38.9739 109.156 39.8541C112.182 40.3072 115.167 40.9687 118.099 41.8385C121.021 42.7239 123.865 43.8124 126.63 45.1041C129.38 46.401 132.026 47.8801 134.573 49.552C136.083 50.552 137.542 51.6197 138.948 52.7447C139.062 52.3385 139.302 52.0364 139.667 51.828C138.224 50.6926 136.75 49.6041 135.24 48.5728C127.359 43.3072 118.729 39.9791 109.349 38.5833C106.255 38.1353 103.146 37.8958 100.021 37.8645C96.875 37.8905 93.75 38.1353 90.6354 38.5833C87.5468 39.052 84.5 39.7395 81.5104 40.6405C75.5416 42.4687 69.9583 45.1145 64.7708 48.5833L64.6354 48.6874C65.0937 48.7812 65.3906 49.0468 65.5312 49.4947Z" fill="#5D4037"/>
<path d="M142.875 56.1094C143.172 55.9063 143.427 55.6667 143.651 55.3854C143.245 54.9948 142.833 54.6094 142.417 54.2292C142.089 53.9375 141.745 53.6458 141.417 53.3594C141.224 53.5625 141.057 53.7865 140.901 54.0208C140.844 54.1198 140.766 54.1875 140.667 54.2396C141.391 54.8646 142.115 55.5052 142.828 56.1563L142.875 56.1094Z" fill="#5D4037"/>
<path d="M147.526 59.4947C147.563 59.4739 147.599 59.4635 147.641 59.453C146.688 58.3749 145.688 57.3333 144.667 56.3176C144.505 56.677 144.266 56.9635 143.943 57.1822C144.958 58.1874 145.938 59.2187 146.88 60.2812C147.016 59.953 147.229 59.6926 147.526 59.4947Z" fill="#5D4037"/>
<path d="M150.005 63.6874C150.172 63.5624 150.328 63.427 150.474 63.2864C150.531 63.2343 150.589 63.1926 150.656 63.1614C150.042 62.3489 149.417 61.5364 148.766 60.7447L148.557 60.5051C148.51 60.9322 148.333 61.2968 148.021 61.5937C148.641 62.3176 149.25 63.0833 149.839 63.8489C149.891 63.7864 149.943 63.7343 150.005 63.6874Z" fill="#5D4037"/>
<path d="M161.406 53.5936C161.38 53.4947 161.318 53.4426 161.214 53.4426C160.656 53.5051 160.177 53.7239 159.771 54.1093C157.552 55.0832 154.714 58.4426 153.537 59.5884C149.042 63.9634 144.875 68.7291 139.995 72.677C139.719 72.8541 139.422 72.9478 139.099 72.9686C137.755 72.5624 142.787 67.828 143.172 67.4218C144.854 65.6093 146.557 63.8124 148.224 61.9843C151.495 58.427 154.578 54.7082 157.854 51.1561C158.073 51.0259 158.578 50.6041 158.302 50.3332C158.156 50.2239 158.01 50.2239 157.865 50.3332C157.839 50.3228 157.807 50.3228 157.781 50.3332C153.589 52.8905 150.255 56.828 146.583 60.0416C144.417 61.9426 142.203 63.8124 140.089 65.7759C138.557 67.2186 137.099 68.7499 135.193 69.6197C134.995 69.6197 134.807 69.6197 134.641 69.6509C134.641 69.4895 134.641 69.302 134.677 69.1041C135.547 67.1978 137.089 65.7395 138.521 64.2082C140.474 62.0989 142.354 59.8749 144.255 57.7134C147.474 54.052 151.406 50.7082 153.964 46.5103C153.974 46.4843 153.974 46.4582 153.964 46.4322C154.073 46.2864 154.073 46.1405 153.964 45.9947C153.688 45.703 153.24 46.2291 153.135 46.4478C149.573 49.7186 145.849 52.802 142.302 56.0728C140.484 57.7447 138.693 59.4426 136.865 61.1249C136.464 61.4999 131.719 66.5416 131.323 65.1978C131.339 64.8749 131.438 64.578 131.609 64.302C135.557 59.4166 140.318 55.2551 144.698 50.7603C145.833 49.5936 149.208 46.7447 150.182 44.5259C150.563 44.1197 150.781 43.6353 150.839 43.0832C150.839 42.9791 150.787 42.9114 150.688 42.8905C150.318 42.802 149.964 43.1926 149.74 43.4166C149.516 43.6405 149.458 43.7134 149.323 43.8645C147.458 45.3489 145.401 46.6041 143.547 48.1093C140.792 50.3384 138.151 52.6978 135.5 55.0468C130.505 59.4739 125.359 63.7134 120.526 68.3384C117.87 70.8749 115.146 73.2395 113.943 76.5936C112.443 78.4895 112.297 81.4009 111.922 83.6874C111.198 87.8384 108.578 91.052 105.854 94.1145C105.323 94.5989 104.797 95.078 104.281 95.5572C102.516 96.8489 100.828 98.2395 99.2292 99.7239L99.099 99.8489C98.3021 99.0832 97.4636 98.4061 96.6146 97.6822C95.9375 97.0728 95.2552 96.4686 94.573 95.8697C93.8073 95.1145 93 94.4114 92.1511 93.7603C88.6771 89.8905 84.2084 87.3853 85.4636 81.1978C86.0209 78.4426 86.5469 75.552 86.0157 72.7447C84.6771 65.6093 80.0938 59.2707 74.573 54.6926C66.8959 48.3749 55.9584 41.9634 45.7917 44.2864C43.8282 44.5416 41.5521 45.0103 40.5052 46.6978C38.7865 47.7447 38.3386 50.0155 38.0938 51.9791C35.7605 62.1509 42.1511 73.0884 48.4115 80.6718C52.974 86.1926 59.3125 90.7811 66.4636 92.1145C69.2709 92.6405 72.1563 92.1145 74.9167 91.5676C81.099 90.3176 83.5834 94.7707 87.4792 98.2447C88.1303 99.0936 88.8334 99.9009 89.5886 100.667C90.1928 101.385 90.8021 102.042 91.4219 102.729C92.0417 103.417 92.6198 104.172 93.2761 104.896L91.1615 106.656C88.4271 108.932 85.7761 111.292 83.0678 113.588C81.4375 115.088 79.5521 116.141 77.4219 116.75C77.198 116.807 77.0261 116.859 76.8803 116.911L76.5209 116.958C75.9011 116.948 75.3594 117.141 74.8907 117.536C74.6511 117.844 74.5417 118.193 74.5469 118.578L74.4323 118.76C73.6875 119.781 72.823 120.687 71.8438 121.489L70.3386 122.88C70.25 122.948 70.1719 123.021 70.0938 123.099L70.0313 123.146C70 123.135 69.9688 123.135 69.9375 123.146C62.948 129.734 54.9115 135.016 47.9115 141.588C47.724 141.76 47.5469 141.958 47.3594 142.151C44.5105 144.656 41.9688 149.37 42.6198 153.406C42.6667 154.021 42.8282 154.599 43.1042 155.146C43.323 156.057 43.6927 156.906 44.2032 157.687C44.25 157.76 44.3125 157.823 44.3802 157.87C44.5261 158.266 44.7292 158.635 44.9844 158.974C45.3334 159.489 45.8125 159.812 46.4271 159.943C46.4532 159.974 46.4792 160.005 46.5105 160.031C47.2969 160.542 48.1459 160.906 49.0521 161.125C49.599 161.406 50.1823 161.573 50.7917 161.62C54.823 162.276 59.5469 159.734 62.0521 156.88C62.2448 156.698 62.4323 156.51 62.6146 156.323C69.1719 149.349 74.4688 141.292 81.0157 134.318C81.0313 134.286 81.0313 134.255 81.0157 134.224C81.0365 134.203 81.0573 134.182 81.0678 134.156C81.1459 134.083 81.2188 134 81.2865 133.911L82.6771 132.411C83.474 131.427 84.3855 130.562 85.4063 129.818L85.5886 129.703C85.974 129.713 86.323 129.599 86.6303 129.364C87.0261 128.896 87.2188 128.349 87.2084 127.734C87.2084 127.625 87.2084 127.5 87.2553 127.37C87.3073 127.239 87.3594 127.052 87.4167 126.828C88.0261 124.698 89.0782 122.818 90.5782 121.182C92.8803 118.474 95.2396 115.828 97.5105 113.088L98.9532 111.38L100.469 113.198C102.745 115.937 105.104 118.583 107.401 121.292C108.901 122.927 109.953 124.807 110.563 126.937C110.62 127.161 110.672 127.333 110.724 127.479C110.771 127.625 110.724 127.734 110.771 127.844C110.76 128.458 110.953 129 111.349 129.474C111.656 129.708 112.005 129.823 112.391 129.812L112.573 129.927C113.594 130.672 114.5 131.536 115.302 132.521L116.693 134.016C116.76 134.104 116.833 134.187 116.912 134.266C116.922 134.292 116.938 134.312 116.958 134.333C116.948 134.364 116.948 134.396 116.958 134.427C123.51 141.396 128.807 149.453 135.365 156.432C135.537 156.62 135.724 156.802 135.922 156.984C138.427 159.833 143.141 162.375 147.182 161.724C147.797 161.682 148.375 161.521 148.922 161.239C149.833 161.021 150.682 160.656 151.464 160.146C151.495 160.12 151.526 160.088 151.552 160.057C152.063 159.891 152.51 159.614 152.896 159.234C153.276 158.849 153.552 158.406 153.719 157.891C153.75 157.864 153.781 157.838 153.807 157.807C154.318 157.021 154.682 156.172 154.901 155.266C155.182 154.719 155.339 154.141 155.385 153.531C156.042 149.5 153.5 144.771 150.651 142.266C150.469 142.073 150.281 141.885 150.099 141.713C143.125 135.156 135.068 129.854 128.094 123.307C128.063 123.292 128.031 123.292 128 123.307C127.979 123.286 127.958 123.271 127.938 123.255C127.859 123.177 127.771 123.104 127.682 123.042L126.182 121.646C125.198 120.849 124.333 119.937 123.589 118.917L123.474 118.734C123.479 118.349 123.37 118.005 123.135 117.698C122.662 117.297 122.12 117.104 121.5 117.12L121.141 117.068C120.995 117.016 120.823 116.969 120.599 116.911C118.469 116.302 116.583 115.245 114.953 113.745C112.245 111.443 109.594 109.083 106.859 106.807L104.63 104.948C106.042 103.396 107.365 101.771 108.599 100.073L109.323 99.3489C110.693 98.1093 112.089 96.9009 113.443 95.6457C115.927 93.3436 118.5 92.8436 121.74 92.4895C124.787 92.1561 127.667 91.4218 129.958 89.2499C132.125 87.8489 133.938 85.828 135.833 83.8436C140.448 79.0103 144.698 73.8697 149.125 68.8645C151.474 66.2186 153.833 63.5676 156.063 60.8228C157.573 58.9686 158.823 56.9114 160.313 55.0468C160.469 54.9166 160.615 54.7759 160.76 54.6301C161.104 54.302 161.5 53.9634 161.406 53.5936ZM89.4584 98.9739C88.9167 98.1874 88.2657 97.5051 87.5 96.9322C84.2188 92.9374 81.125 88.9114 75.4375 89.7134C71.6823 90.2447 68.6042 90.7811 64.823 89.8384C60.7448 88.8228 57.0677 86.3541 53.9219 83.677C50.7344 80.9478 47.9167 77.8801 45.4584 74.4843L46.8386 76.1561C46.8386 76.203 46.9323 76.1561 46.9011 76.0936C46.0365 75.0051 45.1615 73.927 44.3177 72.8228C40.0782 66.427 37.349 58.9114 38.7865 51.828C38.9896 51.2186 39.1927 50.6145 39.4011 50.0155C39.8177 48.9843 40.3021 47.9843 40.8438 47.0155C41.8125 46.4739 42.8125 45.9947 43.8438 45.5728L45.6511 44.9582C52.7448 43.5155 60.2448 46.2551 66.6667 50.4895C67.7605 51.3332 68.8282 52.2082 69.9271 53.078C69.9688 53.078 70.0365 53.078 69.9948 53.0103L68.323 51.6301C71.7188 54.0884 74.7813 56.9061 77.5105 60.0884C80.1928 63.2395 82.6667 66.9166 83.6771 70.9895C84.6198 74.7707 84.0782 77.8489 83.5469 81.6041C82.7448 87.2916 86.7709 90.3801 90.7657 93.6666C91.3386 94.4322 92.0209 95.0832 92.8073 95.6249C94.5625 97.3072 96.4167 98.8957 98.224 100.521C96.9011 101.755 95.5469 102.948 94.1667 104.13C92.5834 102.427 91.0678 100.651 89.4584 98.9739ZM107.198 108.396C109.938 110.672 112.526 113.12 115.313 115.323C117.359 116.937 119.302 117.385 121.547 118.354C120.469 118.521 119.406 118.437 118.365 118.109C117.323 117.786 116.406 117.245 115.62 116.489C115.62 116.489 115.552 116.489 115.583 116.526C117.026 118.036 119.87 119.568 122.021 118.693C122.646 119.687 123.422 120.547 124.354 121.266C124.833 121.766 125.359 122.219 125.922 122.62C128.214 124.75 130.62 126.734 133.141 128.583C133.625 128.995 134.115 129.401 134.583 129.792C137.891 132.677 141.344 135.443 144.693 138.359C149.568 142.583 157.313 149.911 152.781 157.135C152.474 157.427 152.172 157.734 151.87 158.042C151.568 158.354 151.255 158.651 150.958 158.953C143.74 163.489 136.448 155.739 132.188 150.864C129.302 147.5 126.537 144.052 123.62 140.76C123.229 140.26 122.818 139.771 122.412 139.312C120.563 136.792 118.573 134.385 116.448 132.094C116.042 131.531 115.589 131.01 115.089 130.526C114.37 129.599 113.516 128.818 112.521 128.193C113.37 126.031 111.839 123.229 110.354 121.755C110.354 121.755 110.297 121.755 110.318 121.792C111.073 122.578 111.615 123.495 111.938 124.536C112.266 125.578 112.349 126.641 112.182 127.719C111.208 125.463 110.734 123.526 109.146 121.479C106.938 118.693 104.49 116.109 102.224 113.364C101.417 112.401 100.604 111.437 99.7917 110.474C101.162 108.844 102.557 107.239 104.016 105.698C105.063 106.609 106.125 107.516 107.198 108.406V108.396ZM154.656 61.0832C152.318 63.7082 149.99 66.3384 147.667 68.9843C143.25 74.0364 139.005 79.2082 134.266 83.9999C131.948 86.3593 129.698 89.0989 126.229 89.6614C123.995 90.0311 121.641 89.9009 119.438 90.4322C116.234 91.328 113.563 93.0572 111.427 95.6093C110.469 96.4999 109.583 97.4634 108.781 98.4999C109.016 98.1614 109.255 97.8228 109.5 97.4895C109.521 97.4999 109.542 97.4999 109.557 97.4895C112.078 94.427 116.339 88.4061 120.818 88.7134C123.229 88.8801 125.552 89.4999 127.849 88.5468C127.906 88.5468 127.849 88.4322 127.813 88.453C124.339 89.7239 120.464 87.0884 117.234 89.4582C114.281 91.677 111.724 94.2811 109.552 97.2707C108.214 98.7655 106.969 100.338 105.828 101.984C104.859 103.078 103.901 104.151 102.938 105.219C100.521 107.807 98.2553 110.521 95.9948 113.239C93.7344 115.963 91.2709 118.573 89.0678 121.359C87.4532 123.401 87.0052 125.344 86.0365 127.594C85.8698 126.516 85.948 125.458 86.2761 124.417C86.6042 123.375 87.1459 122.458 87.9011 121.667C87.9011 121.667 87.9011 121.604 87.8646 121.63C86.3542 123.078 84.823 125.927 85.698 128.073C84.7032 128.698 83.8438 129.474 83.125 130.406C82.625 130.885 82.1719 131.406 81.7709 131.969C79.6407 134.266 77.6563 136.672 75.8073 139.193C75.4011 139.682 74.9896 140.167 74.599 140.635C71.7136 143.943 68.948 147.396 66.0313 150.745C61.8073 155.62 54.474 163.364 47.2552 158.828C46.6927 158.26 46.1146 157.667 45.5 157.156C45.4896 157.099 45.4688 157.047 45.4427 156.995C40.9011 149.776 48.6563 142.484 53.5313 138.224C56.8959 135.333 60.349 132.573 63.6407 129.651C64.1459 129.255 64.6355 128.854 65.125 128.443C67.6355 126.594 70.0313 124.604 72.3125 122.484C72.875 122.078 73.3959 121.625 73.875 121.125C74.8073 120.406 75.5834 119.552 76.2084 118.557C78.375 119.406 81.1771 117.875 82.6511 116.391L82.6146 116.354C81.823 117.109 80.9063 117.646 79.8646 117.974C78.823 118.302 77.7657 118.38 76.6875 118.219C78.9375 117.239 80.875 116.771 82.9167 115.182C85.7032 112.974 88.2969 110.526 91.0313 108.26C93.7709 105.995 96.4688 103.734 99.0521 101.312C100.099 100.333 101.219 99.3697 102.287 98.427C103.901 97.2864 105.432 96.0572 106.896 94.7291C109.885 92.5572 112.49 89.9999 114.708 87.0468C117.078 83.8176 114.443 79.9426 115.714 76.4686C115.714 76.4114 115.641 76.3749 115.62 76.4322C114.656 78.7291 115.287 81.0624 115.453 83.4634C115.76 87.9426 109.74 92.203 106.677 94.7239C106.667 94.7395 106.667 94.7603 106.677 94.7811C106.057 95.1926 105.453 95.6301 104.854 96.078L105.365 95.5884C106.031 95.1249 106.63 94.5832 107.162 93.9634L107.276 93.8645C110.333 91.6978 112.917 88.3384 113.776 84.8228C114.313 82.6197 114.188 80.2603 114.547 78.0311C115.109 74.5624 117.849 72.3124 120.208 69.9947C125.005 65.2916 130.172 61.0103 135.229 56.5936C137.875 54.2759 140.51 51.9478 143.125 49.6041C145.292 47.6614 147.792 45.9947 149.885 43.9426C149.349 45.1718 147.76 46.4895 146.995 47.302C145.51 48.9322 144 50.5259 142.432 52.0884C139.745 54.7603 136.656 57.2916 134 60.1301C133.474 60.5207 133.005 60.9739 132.594 61.4895C130.99 62.9322 129.031 65.0103 129.594 66.7291C129.609 66.7811 129.646 66.802 129.698 66.7864C129.75 66.7707 129.771 66.7395 129.755 66.6874C129.662 65.7759 129.901 64.9634 130.474 64.2551C130.297 64.6405 130.276 65.0311 130.412 65.4374C130.417 65.5832 130.464 65.7186 130.542 65.8384C130.609 65.9374 130.698 66.0207 130.802 66.078C131.016 66.2707 131.266 66.3749 131.552 66.4009C131.839 66.4218 132.099 66.3541 132.339 66.1926C131.427 66.9166 130.448 67.427 129.948 66.9166C129.906 66.8645 129.844 66.9166 129.875 66.9895C130.266 67.4895 130.938 67.1978 131.422 66.9895C132.49 66.5155 133.406 65.8332 134.162 64.9374C135.198 63.9999 136.125 62.9114 136.412 62.5989C141.5 57.2291 147.781 52.8436 152.651 47.2916C152.281 47.7759 151.849 48.3801 151.641 48.5832C150.667 49.6249 149.75 50.7186 148.891 51.8541C146.802 54.3697 144.229 56.6301 142.005 59.078C140.208 61.0311 138.526 63.0884 136.698 65.0155C136.135 65.5989 135.604 66.203 135.104 66.8384C134.568 67.3645 134.104 67.9478 133.714 68.5832C133.323 69.177 132.896 69.7916 133.177 70.5051C133.016 69.7343 133.526 68.9843 134.167 68.3384C133.912 68.8436 133.74 69.3749 133.646 69.927C133.625 70.0468 133.662 70.1457 133.745 70.2239C133.734 70.2968 133.75 70.3593 133.807 70.4114H133.849V70.453C133.901 70.5103 133.964 70.5259 134.037 70.5103C134.115 70.6041 134.214 70.6353 134.333 70.6145C134.885 70.5207 135.417 70.3436 135.922 70.0936C135.24 70.7291 134.474 71.2395 133.755 71.0832C134.474 71.3645 135.083 70.9374 135.677 70.5468C136.313 70.1561 136.896 69.6926 137.422 69.1561C138.057 68.6561 138.662 68.1197 139.24 67.5572C141.172 65.7343 143.229 64.052 145.182 62.2551C147.604 60.0311 149.865 57.4634 152.406 55.3697C153.542 54.5103 154.635 53.5936 155.677 52.6197C155.875 52.4114 156.484 51.9791 156.969 51.6093C151.422 56.4739 147.042 62.7603 141.667 67.8489C140.859 68.5416 140.083 69.2707 139.344 70.0364C138.448 70.7916 137.766 71.703 137.292 72.7707C137.089 73.2551 136.792 73.927 137.292 74.3124C137.344 74.3489 137.417 74.3124 137.365 74.2395C136.823 73.7447 137.365 72.7916 138.089 71.8489C137.927 72.0884 137.859 72.3541 137.885 72.6405C137.906 72.927 138.016 73.1718 138.208 73.3853C138.271 73.4843 138.344 73.5728 138.443 73.6405C138.563 73.7186 138.698 73.7603 138.844 73.7707C139.25 73.9009 139.641 73.8801 140.031 73.703C139.318 74.2759 138.505 74.5207 137.594 74.427C137.547 74.4166 137.521 74.4374 137.505 74.4843C137.495 74.5259 137.51 74.5572 137.552 74.578C139.276 75.1405 141.359 73.1822 142.792 71.5832C143.307 71.1718 143.76 70.6978 144.151 70.1718C146.995 67.5259 149.526 64.3957 152.203 61.7395C153.755 60.1718 155.359 58.6666 156.99 57.177C157.797 56.453 159.156 54.8436 160.349 54.2864C158.276 56.453 156.604 58.9322 154.656 61.1093V61.0832Z" fill="#5D4037"/>
<path d="M133.38 84.5572C133.094 84.776 132.828 85.0208 132.578 85.276C132.563 85.3072 132.568 85.3281 132.589 85.3541C132.609 85.3749 132.635 85.3801 132.667 85.3645C132.922 85.1093 133.172 84.8541 133.443 84.6406C133.495 84.5833 133.422 84.5208 133.38 84.5572Z" fill="#5D4037"/>
<path d="M128.125 88.3959C128.057 88.3959 128.125 88.5261 128.172 88.5105C129.781 88.0782 131.063 86.8282 132.297 85.7449C132.297 85.7449 132.297 85.6824 132.26 85.7032C130.979 86.7553 129.599 87.6511 128.125 88.3959Z" fill="#5D4037"/>
<path d="M68.3489 147.219C64.2031 151.38 58.7291 158.359 52.3177 157.589C52.4531 157.406 52.6249 157.286 52.8437 157.229C52.9114 157.229 52.8802 157.125 52.8437 157.135C52.5885 157.182 52.3854 157.313 52.2395 157.531C52.2291 157.547 52.2291 157.557 52.2395 157.573C51.4374 157.469 50.6614 157.25 49.9218 156.932C49.8437 156.932 49.7708 157.01 49.8489 157.052C57.1718 160.922 64.0052 151.74 68.4062 147.25C68.3906 147.229 68.3593 147.198 68.3489 147.219Z" fill="#5D4037"/>
<path d="M58.875 152.172C58.4114 151.661 57.026 151.911 57.1458 152.75C57.2135 153.193 57.6823 153.807 58.052 153.25C58.052 153.198 58.0052 153.141 57.9635 153.182C57.5573 153.646 56.7708 152.13 57.9635 152.219C58.8229 152.281 58.9843 153.052 58.7291 153.724C58.4166 154.542 57.3698 155.312 56.6718 154.208C56.5364 153.958 56.3489 153.755 56.1145 153.594C55.1093 152.932 54.9323 154.677 54.8229 155.172C54.8229 155.255 54.9323 155.312 54.9739 155.229C55.0729 154.958 55.1354 154.682 55.1718 154.396C55.2083 153.995 55.5208 153.859 56.1093 154L56.3698 154.38C56.4218 154.474 56.4791 154.562 56.5416 154.641C56.7239 154.88 56.9635 155.031 57.2552 155.099C57.5416 155.172 57.8229 155.141 58.0937 155.01C59.0625 154.51 59.6875 153.068 58.875 152.172Z" fill="#5D4037"/>
<path d="M54.7605 155.604C54.4271 155.812 54.1563 156.266 53.7344 156.26C53.4375 156.26 53.1355 156.172 52.8386 156.187C52.3542 156.146 51.9688 156.323 51.6771 156.708C51.6094 156.786 51.7188 156.896 51.7917 156.823C51.9219 156.646 52.0886 156.526 52.2969 156.458C52.5105 156.396 52.7188 156.401 52.9219 156.474C53.1928 156.536 53.4584 156.552 53.7344 156.526C54.25 156.422 54.6042 156.13 54.7917 155.641C54.7917 155.641 54.7813 155.594 54.7605 155.604Z" fill="#5D4037"/>
<path d="M54.9115 155.516C54.9532 155.463 54.9115 155.365 54.8282 155.406C54.8177 155.38 54.8021 155.365 54.7709 155.365C54.7396 155.365 54.7188 155.38 54.7084 155.406C54.7136 155.49 54.75 155.51 54.823 155.474C54.849 155.5 54.875 155.51 54.9115 155.516Z" fill="#5D4037"/>
<path d="M53.9219 155.573C54.4635 155.396 54.3958 154.604 54.6406 154.188C54.6406 154.146 54.6406 154.099 54.5781 154.135C54.2187 154.557 54.3125 155.531 53.5104 155.328C53.1302 155.172 52.75 155.172 52.3698 155.328C52.3385 155.344 52.3333 155.365 52.3437 155.391C52.3542 155.422 52.375 155.432 52.4062 155.422C52.9167 155.234 53.3698 155.76 53.9219 155.573Z" fill="#5D4037"/>
<path d="M52.2865 155.422C52.0105 155.578 51.7709 155.776 51.5677 156.016L51.6198 156.063C51.8438 155.844 52.0834 155.641 52.3386 155.453L52.2865 155.422Z" fill="#5D4037"/>
<path d="M50.974 156.594C50.9896 156.62 51.0104 156.646 51.0417 156.667C51.1198 156.724 51.2344 156.604 51.1771 156.526C51.1563 156.5 51.1354 156.479 51.1042 156.464C51.0625 156.448 51.0261 156.453 51 156.484C50.9688 156.516 50.9584 156.552 50.974 156.594Z" fill="#5D4037"/>
<path d="M54.8438 153.443C54.8438 153.495 54.8958 153.557 54.9323 153.51C55.099 153.307 55.2656 153.083 55.5573 153.083V153.042C55.2344 153.021 54.9948 153.156 54.8438 153.443Z" fill="#5D4037"/>
<path d="M56.974 153.495V153.453C55.7969 152.729 57.1927 151.287 58.1302 151.083C58.2865 151.047 58.4427 151.026 58.599 151.026C58.7604 151.026 58.9167 151.047 59.073 151.083C59.224 151.125 59.375 151.177 59.5157 151.255C59.6563 151.328 59.7813 151.422 59.9011 151.526C60.0209 151.636 60.1198 151.755 60.2084 151.891C60.2969 152.021 60.3698 152.162 60.4219 152.313C60.474 152.464 60.5105 152.615 60.5261 152.776C60.5417 152.932 60.5365 153.094 60.5105 153.25C60.5 153.307 60.5209 153.344 60.5782 153.359C60.6354 153.375 60.6719 153.354 60.6927 153.302C61.3594 151.74 59.4063 150.005 57.9011 150.766C57.0782 151.182 55.5157 152.875 56.974 153.495Z" fill="#5D4037"/>
<path d="M59.2396 155.047C59.3802 154.948 59.4948 154.823 59.5886 154.677C59.5886 154.636 59.5521 154.583 59.5157 154.63C59.4792 154.672 59.3646 154.917 59.2396 155.047Z" fill="#5D4037"/>
<path d="M60.0781 153.792C60.0781 153.792 60.0781 153.714 60.0781 153.667C60.0781 153.667 60.0521 153.714 60.0781 153.792Z" fill="#5D4037"/>
<path d="M60.1302 152.922C60.1042 152.87 60.073 152.818 60.0365 152.766C60.0677 152.818 60.099 152.87 60.1302 152.922Z" fill="#5D4037"/>
<path d="M55.2708 152.484C55.3229 152.484 55.401 152.448 55.3594 152.396C55.3125 152.349 55.3594 152.24 55.3594 152.156C55.3698 152.135 55.3698 152.109 55.3594 152.089C55.5833 151.745 55.1615 151.427 54.8021 151.573C54.3281 151.813 54.0052 152.182 53.8281 152.677C53.8281 152.677 53.8281 152.734 53.8646 152.677C54.0521 152.443 55.099 151.302 55.2188 152.021C55.1198 152.208 55.0885 152.349 55.2708 152.484Z" fill="#5D4037"/>
<path d="M57.9844 156.156C58.0573 156.156 58.0313 156.021 57.9844 156.042C57.2656 156.255 56.901 155.537 56.2396 155.417C56.2031 155.417 56.1875 155.432 56.1875 155.464C56.1875 155.5 56.2031 155.516 56.2396 155.516C56.8177 155.76 57.2396 156.412 57.9844 156.156Z" fill="#5D4037"/>
<path d="M56.0365 155.63C56.0729 155.589 56.0365 155.526 55.9688 155.568C55.8646 155.672 55.8073 155.797 55.7969 155.948C55.7969 155.979 55.8125 155.995 55.8438 155.995C55.8698 155.995 55.8854 155.979 55.8854 155.948C55.8958 155.823 55.9479 155.719 56.0365 155.63Z" fill="#5D4037"/>
<path d="M55.8177 156.427L55.8855 156.297L55.8177 156.417C55.8177 156.417 55.8125 156.432 55.8177 156.427Z" fill="#5D4037"/>
<path d="M55.0052 156.969C54.9375 156.969 54.9584 157.078 55.0052 157.078C55.3281 157.057 55.5677 156.906 55.724 156.62C55.724 156.62 55.724 156.578 55.6875 156.62C55.5052 156.823 55.2761 156.938 55.0052 156.969Z" fill="#5D4037"/>
<path d="M53.5729 157.104C53.5312 157.104 53.5 157.162 53.5729 157.182C53.8281 157.323 54.099 157.375 54.3906 157.328V157.287C54.1042 157.281 53.8333 157.224 53.5729 157.104Z" fill="#5D4037"/>
<path d="M56.3542 157.099C56.5208 156.979 56.6979 156.875 56.8802 156.787C56.8802 156.787 56.8802 156.729 56.8802 156.745C56.6875 156.813 56.5 156.901 56.3229 157.005C56.2396 157.042 56.2865 157.136 56.3542 157.099Z" fill="#5D4037"/>
<path d="M118.974 71.6667C119.234 71.4167 119.474 71.151 119.698 70.8646C119.698 70.8229 119.698 70.7604 119.63 70.8021C119.401 71.0781 119.141 71.3281 118.911 71.5833C118.885 71.6406 118.911 71.6719 118.974 71.6667Z" fill="#5D4037"/>
<path d="M118.5 71.9478C117.417 73.1613 116.167 74.4634 115.734 76.0728C115.734 76.1353 115.818 76.1874 115.849 76.1145C116.594 74.6353 117.495 73.2603 118.542 71.979C118.542 71.979 118.51 71.927 118.5 71.9478Z" fill="#5D4037"/>
<path d="M46.6719 152.036C46.6875 152.047 46.698 152.047 46.7136 152.036C46.9323 151.891 47.0625 151.687 47.1094 151.427C47.1094 151.37 47.0313 151.344 47.0157 151.427C46.9584 151.646 46.8386 151.823 46.6563 151.958C45.8855 145.547 52.8646 140.073 57.0261 135.927C52.5365 140.318 43.349 147.161 47.2188 154.484C47.2657 154.562 47.3802 154.484 47.3438 154.411C47.0052 153.651 46.7813 152.859 46.6719 152.036Z" fill="#5D4037"/>
<path d="M50.6511 148.13C50.4896 147.896 50.2865 147.708 50.0365 147.573C48.9323 146.854 49.7031 145.828 50.5208 145.516C51.1927 145.266 51.9636 145.422 52.0313 146.281C52.1146 147.474 50.5833 146.687 51.0625 146.281C51.1042 146.24 51.0625 146.167 50.9948 146.193C50.4427 146.557 51.0521 147.031 51.4948 147.088C52.3333 147.213 52.5833 145.828 52.0729 145.365C51.1615 144.547 49.7188 145.177 49.2344 146.156C49.1042 146.427 49.0781 146.708 49.1458 147C49.2136 147.292 49.3646 147.526 49.6042 147.713C49.6823 147.776 49.7708 147.833 49.8646 147.885L50.2448 148.151C50.3854 148.74 50.2552 149.052 49.849 149.088C49.5625 149.125 49.2865 149.187 49.0156 149.286C48.9323 149.328 49.0156 149.458 49.0833 149.437C49.5677 149.312 51.3021 149.141 50.6511 148.13Z" fill="#5D4037"/>
<path d="M48.6042 149.458C48.1042 149.641 47.7969 149.995 47.6875 150.521C47.6615 150.792 47.6823 151.062 47.7396 151.328C47.8177 151.536 47.8229 151.745 47.7552 151.953C47.6927 152.161 47.5729 152.333 47.3958 152.463C47.3125 152.536 47.3958 152.635 47.5104 152.578C47.8958 152.286 48.0677 151.901 48.0313 151.417C48.0313 151.12 47.9635 150.818 47.9583 150.521C47.9583 150.088 48.4063 149.797 48.6146 149.495C48.651 149.458 48.6198 149.458 48.6042 149.458Z" fill="#5D4037"/>
<path d="M48.7292 149.333C48.7084 149.354 48.6876 149.375 48.6771 149.401C48.6407 149.474 48.6615 149.51 48.7449 149.516C48.7709 149.505 48.7865 149.484 48.7865 149.453C48.7865 149.422 48.7709 149.401 48.7449 149.396C48.8803 149.349 48.7813 149.292 48.7292 149.333Z" fill="#5D4037"/>
<path d="M50.099 149.698C50.1354 149.698 50.099 149.609 50.0521 149.63C49.6302 149.849 48.8438 149.781 48.6667 150.354C48.4844 150.922 49.0052 151.349 48.8177 151.901C48.8177 151.958 48.8802 151.984 48.9115 151.937C49.0677 151.557 49.0677 151.172 48.9115 150.792C48.7083 149.963 49.6823 150.057 50.099 149.698Z" fill="#5D4037"/>
<path d="M48.1823 152.651L48.2291 152.698C48.4739 152.495 48.6718 152.255 48.8229 151.979C48.625 152.214 48.4114 152.438 48.1823 152.651Z" fill="#5D4037"/>
<path d="M47.6875 153.068C47.6094 153.01 47.4948 153.125 47.5521 153.208C47.5729 153.234 47.5938 153.255 47.625 153.271C47.6667 153.297 47.7083 153.297 47.7448 153.26C47.7761 153.224 47.7813 153.182 47.7552 153.141C47.7396 153.109 47.7188 153.089 47.6875 153.068Z" fill="#5D4037"/>
<path d="M50.7917 149.401C51.0834 149.245 51.2188 149.005 51.198 148.677H51.1563C51.1563 148.974 50.9219 149.135 50.724 149.307C50.6875 149.349 50.75 149.458 50.7917 149.401Z" fill="#5D4037"/>
<path d="M53.4635 146.323C54.1875 144.818 52.4896 142.865 50.9323 143.531C50.875 143.552 50.8542 143.589 50.8698 143.646C50.8854 143.703 50.9219 143.724 50.9844 143.714C51.1406 143.688 51.2969 143.682 51.4583 143.698C51.6146 143.714 51.7708 143.75 51.9167 143.802C52.0677 143.854 52.2083 143.927 52.3438 144.016C52.474 144.104 52.5937 144.203 52.7031 144.323C52.8073 144.443 52.901 144.568 52.974 144.708C53.0521 144.849 53.1094 145 53.1458 145.151C53.1875 145.307 53.2031 145.464 53.2083 145.625C53.2083 145.781 53.1875 145.938 53.1458 146.094C52.9687 147.031 51.5313 148.427 50.7813 147.25H50.7344C51.3698 148.734 53.0625 147.156 53.4635 146.323Z" fill="#5D4037"/>
<path d="M49.5938 144.693C49.6407 144.693 49.5938 144.599 49.5469 144.62C49.4011 144.713 49.2761 144.828 49.1771 144.969C49.3282 144.88 49.4636 144.792 49.5938 144.693Z" fill="#5D4037"/>
<path d="M50.5781 144.167H50.4531C50.4531 144.167 50.5 144.193 50.5781 144.167Z" fill="#5D4037"/>
<path d="M51.474 144.203C51.4219 144.167 51.3698 144.135 51.3125 144.109L51.474 144.203Z" fill="#5D4037"/>
<path d="M48.0886 146.26C47.8333 146.984 48.4844 147.427 48.7292 148.063C48.7292 148.099 48.7448 148.115 48.7813 148.115C48.8125 148.115 48.8281 148.099 48.8281 148.063C48.7083 147.401 47.9948 147.068 48.2031 146.318C48.2188 146.219 48.1094 146.188 48.0886 146.26Z" fill="#5D4037"/>
<path d="M48.6145 148.208C48.5208 148.297 48.4166 148.344 48.2864 148.354C48.2604 148.354 48.2448 148.37 48.2448 148.396C48.2448 148.427 48.2604 148.438 48.2864 148.443C48.4375 148.438 48.5677 148.38 48.6718 148.276C48.7291 148.229 48.6562 148.172 48.6145 148.208Z" fill="#5D4037"/>
<path d="M47.948 148.359L47.8177 148.417L47.9427 148.354L47.948 148.359Z" fill="#5D4037"/>
<path d="M47.276 149.234C47.3229 148.969 47.4479 148.745 47.651 148.573C47.651 148.573 47.651 148.521 47.651 148.536C47.3646 148.687 47.2135 148.932 47.1979 149.255C47.1719 149.286 47.2656 149.302 47.276 149.234Z" fill="#5D4037"/>
<path d="M46.9167 149.891C46.8698 150.182 46.9219 150.453 47.0625 150.708C47.0625 150.745 47.1563 150.708 47.1407 150.708C47.0261 150.448 46.9688 150.177 46.9688 149.891C46.9688 149.891 46.9167 149.865 46.9167 149.891Z" fill="#5D4037"/>
<path d="M47.5001 147.396C47.5001 147.396 47.5001 147.349 47.4584 147.396C47.3699 147.578 47.2657 147.755 47.1459 147.922C47.1094 147.979 47.2084 148.036 47.2396 147.969C47.349 147.786 47.4324 147.594 47.5001 147.396Z" fill="#5D4037"/>
<path d="M51.6458 153.286C52.3021 153.062 52.875 152.708 53.3646 152.224C53.6302 151.943 53.7917 151.557 54.0885 151.307C54.3594 151.031 54.6875 150.859 55.0677 150.781C55.1771 150.719 55.2917 150.682 55.4115 150.677C55.5365 150.667 55.6563 150.687 55.7708 150.734C55.8854 150.781 55.9844 150.849 56.0625 150.943C56.1458 151.031 56.2031 151.135 56.2396 151.255C55.8646 151.604 55.7344 152.026 55.849 152.526H55.8906C55.901 152.068 56.0729 151.682 56.4167 151.37V151.333C56.8594 150.708 55.7396 150.427 55.2552 150.427C54.5729 150.479 54.026 150.776 53.6094 151.323C53.401 151.557 53.2917 151.849 53.1094 152.094C52.6719 152.578 52.151 152.948 51.5469 153.208C51.5573 153.219 51.5937 153.307 51.6458 153.286Z" fill="#5D4037"/>
<path d="M49.4427 156.724C49.5886 156.714 49.7344 156.688 49.875 156.651C50.2188 156.635 50.4844 156.484 50.6719 156.193H50.7084C51.2396 155.724 51.5573 155.068 52.3334 154.948C52.6615 154.922 52.9844 154.87 53.3073 154.786C53.5365 154.802 53.7032 154.703 53.8125 154.505C53.8854 154.271 53.9427 154.026 53.9792 153.781V153.74C54.2604 153.229 54.6771 152.865 55.2188 152.656C54.8959 152.682 54.6094 152.792 54.349 152.979C54.0886 153.172 53.8959 153.417 53.7761 153.719C53.7396 153.766 53.7084 153.818 53.6823 153.87C53.5313 153.979 53.3594 154.047 53.1719 154.073C53.2761 153.99 53.375 153.896 53.4636 153.792C53.25 153.885 53.0313 153.958 52.8021 154.005C52.7604 153.984 52.7188 153.984 52.6771 154.005C52.2709 154.078 51.8854 154.214 51.5261 154.417L51.3854 154.49C51.6615 154.089 52.0417 153.849 52.5261 153.771C52.9896 153.708 53.375 153.505 53.6875 153.161C53.6875 153.125 53.6875 153.052 53.6302 153.089C52.9115 153.63 51.7709 153.427 51.1771 154.182C50.5834 154.932 50.9167 156.125 49.8073 156.349C50.375 155.797 50.4532 154.182 51.0834 153.865C51.1407 153.865 51.0834 153.755 51.0313 153.781C50.5886 154.094 50.2969 154.516 50.1563 155.042C49.9063 155.651 49.7552 156.208 49.0469 156.109C49.2292 155.943 49.375 155.755 49.4896 155.536C49.4896 155.495 49.4427 155.438 49.4063 155.479C49.1979 155.781 48.9219 155.99 48.5729 156.099C48.5469 156.104 48.5313 156.12 48.5209 156.135L48.3229 155.995C48.2865 155.995 48.2292 155.995 48.2761 156.042C48.4584 156.229 48.6563 156.391 48.875 156.536H48.9167C49.0104 156.615 49.1146 156.661 49.2344 156.677C49.349 156.734 49.4636 156.792 49.5886 156.839C49.7136 156.88 49.5886 156.839 49.5886 156.792L49.4427 156.724ZM48.8594 156.354L48.7084 156.26H48.75C48.7604 156.292 48.7813 156.313 48.8073 156.333H48.8646L48.8594 156.354Z" fill="#5D4037"/>
<path d="M56.7292 150.302C56.8125 150.365 56.8906 150.359 56.9636 150.286C57.0365 150.214 57.0469 150.135 56.9844 150.052C56.9011 149.99 56.8177 149.995 56.7448 150.068C56.6719 150.141 56.6667 150.219 56.7292 150.302Z" fill="#5D4037"/>
<path d="M57.0313 149.292C56.9115 149.26 56.8438 149.307 56.8334 149.432C56.8229 149.557 56.8802 149.615 57.0052 149.604C57.1302 149.594 57.1771 149.531 57.1459 149.406C57.1354 149.344 57.099 149.302 57.0313 149.292Z" fill="#5D4037"/>
<path d="M56.8542 148.938C56.9167 148.974 56.9792 148.969 57.0365 148.917C57.0938 148.865 57.1042 148.807 57.0782 148.734C57.0105 148.698 56.948 148.703 56.8907 148.755C56.8334 148.807 56.823 148.87 56.8542 148.938Z" fill="#5D4037"/>
<path d="M56.9531 148.266C56.9427 148.234 56.9167 148.214 56.8906 148.203C56.8542 148.167 56.8177 148.167 56.7813 148.203C56.7656 148.24 56.7656 148.276 56.7813 148.313C56.8021 148.474 57.0156 148.406 56.9531 148.266Z" fill="#5D4037"/>
<path d="M56.6302 148.016C56.6666 148.031 56.6979 148.026 56.7291 148C56.7552 147.969 56.7604 147.937 56.7447 147.901C56.6718 147.797 56.5468 147.922 56.6302 148.016Z" fill="#5D4037"/>
<path d="M56.526 147.568C56.4895 147.531 56.4531 147.531 56.4166 147.568C56.3802 147.604 56.3802 147.641 56.4166 147.677C56.4531 147.713 56.4895 147.713 56.526 147.677C56.5625 147.641 56.5625 147.604 56.526 147.568Z" fill="#5D4037"/>
<path d="M49.4583 155.161H49.6093C49.6354 155.151 49.6458 155.135 49.6458 155.109C49.6458 155.083 49.6354 155.062 49.6093 155.052C49.5572 155.036 49.5051 155.036 49.4531 155.052C49.401 155.088 49.4062 155.172 49.4583 155.161Z" fill="#5D4037"/>
<path d="M49.6615 154.729H49.5105C49.5105 154.729 49.5105 154.651 49.5105 154.615C49.5105 154.578 49.4532 154.537 49.4167 154.578C49.3802 154.62 49.3646 154.651 49.3646 154.75C49.4271 154.792 49.474 154.844 49.5157 154.901C49.6198 154.901 49.6094 154.901 49.6875 154.854C49.7709 154.802 49.7188 154.708 49.6615 154.729Z" fill="#5D4037"/>
<path d="M51.0521 152.636C51.3125 152.031 51.6823 151.511 52.1667 151.068C52.4115 150.88 52.7084 150.771 52.9375 150.573C53.4844 150.156 53.7813 149.604 53.8334 148.922C53.8334 148.443 53.5573 147.323 52.9219 147.761H52.8907C52.5782 148.104 52.1928 148.281 51.7344 148.287V148.323C52.2292 148.438 52.6563 148.307 53.0053 147.938C53.1303 147.969 53.2448 148.026 53.3438 148.115C53.4375 148.203 53.5105 148.307 53.5573 148.432C53.6042 148.552 53.6198 148.682 53.6042 148.813C53.5886 148.943 53.5417 149.063 53.4636 149.172C53.3855 149.547 53.2136 149.875 52.9375 150.151C52.6771 150.448 52.3021 150.604 52.0209 150.875C51.5365 151.365 51.1823 151.938 50.9584 152.594C50.9323 152.651 51.0261 152.688 51.0521 152.636Z" fill="#5D4037"/>
<path d="M51.5365 150.354C51.5365 150.354 51.5365 150.406 51.5365 150.391C52.0365 150.214 52.4063 149.886 52.6407 149.417C52.7813 149.052 52.4688 148.636 52.1302 148.859C52.1042 148.844 52.0834 148.844 52.0573 148.859H51.8125C51.7605 148.823 51.6875 148.896 51.724 148.948C51.849 149.125 52 149.104 52.1563 148.948C52.9167 149.109 51.7761 150.182 51.5365 150.354Z" fill="#5D4037"/>
<path d="M48.1459 155.677C48.2552 155.328 48.4584 155.047 48.7605 154.839C48.8021 154.802 48.7605 154.734 48.698 154.76C48.4844 154.87 48.2917 155.016 48.1302 155.198C48.0365 154.474 48.5834 154.339 49.198 154.089C49.724 153.948 50.1407 153.656 50.4532 153.214C50.4532 153.156 50.3959 153.109 50.375 153.161C50.0782 153.792 48.4427 153.885 47.8907 154.443C48.0782 153.328 49.3334 153.641 50.0573 153.068C50.7813 152.5 50.6042 151.359 51.1459 150.615C51.1459 150.573 51.1459 150.526 51.0782 150.557C50.7344 150.87 50.5313 151.255 50.4688 151.719C50.3907 152.203 50.1511 152.583 49.7448 152.859L49.8177 152.724C50.0261 152.359 50.1615 151.969 50.2292 151.557C50.2552 151.521 50.2552 151.479 50.2292 151.438C50.2813 151.203 50.3542 150.979 50.448 150.766C50.3698 150.844 50.3021 150.927 50.2396 151.016C50.2605 150.828 50.323 150.661 50.4323 150.505L50.5938 150.411C50.8907 150.292 51.1355 150.099 51.3282 149.839C51.5209 149.583 51.6302 149.292 51.6511 148.969C51.4427 149.516 51.0834 149.927 50.573 150.208H50.5261C50.2813 150.245 50.0417 150.302 49.8073 150.375C49.599 150.484 49.5052 150.651 49.5157 150.88C49.4323 151.203 49.3802 151.526 49.3594 151.854C49.2344 152.63 48.5782 152.948 48.1094 153.479C48.1042 153.49 48.1042 153.505 48.1094 153.516C47.823 153.703 47.6719 153.969 47.6511 154.313C47.6146 154.453 47.5938 154.599 47.5834 154.745L47.4792 154.594C47.4792 154.594 47.4271 154.594 47.4375 154.594C47.4427 154.594 47.5469 154.828 47.5938 154.948C47.6146 155.068 47.6615 155.172 47.7396 155.266V155.307C47.8802 155.526 48.0469 155.724 48.2292 155.906C48.2292 155.943 48.3177 155.906 48.2813 155.854C48.2448 155.807 48.1875 155.724 48.1459 155.661C48.1459 155.667 48.1459 155.672 48.1459 155.677ZM47.9792 155.536L47.8855 155.385V155.443C47.9011 155.474 47.9271 155.495 47.9584 155.5L47.9792 155.536Z" fill="#5D4037"/>
<path d="M54.1875 147.292C54.1041 147.229 54.026 147.235 53.9531 147.307C53.8802 147.386 53.8698 147.464 53.9375 147.547C54.0208 147.61 54.0989 147.604 54.1718 147.526C54.2448 147.453 54.25 147.375 54.1875 147.292Z" fill="#5D4037"/>
<path d="M54.9531 147.219C54.9375 147.167 54.9062 147.13 54.8541 147.12C54.7291 147.088 54.6666 147.135 54.6562 147.26C54.6458 147.385 54.7031 147.443 54.8281 147.432C54.9531 147.422 55 147.354 54.9687 147.234L54.9531 147.219Z" fill="#5D4037"/>
<path d="M55.5313 147.161C55.4532 147.088 55.375 147.088 55.3021 147.161C55.224 147.24 55.224 147.318 55.3021 147.396C55.375 147.469 55.4532 147.469 55.5313 147.391C55.6094 147.318 55.6094 147.24 55.5313 147.161Z" fill="#5D4037"/>
<path d="M56.0417 147.349C56.0313 147.323 56.0104 147.297 55.9792 147.286C55.8438 147.219 55.7708 147.437 55.9063 147.463C55.9427 147.479 55.9792 147.479 56.0156 147.463C56.0677 147.437 56.0781 147.401 56.0417 147.349Z" fill="#5D4037"/>
<path d="M56.3541 147.5C56.3177 147.484 56.2864 147.49 56.2552 147.521C56.2239 147.547 56.2187 147.578 56.2396 147.62C56.3541 147.698 56.4479 147.573 56.3541 147.5Z" fill="#5D4037"/>
<path d="M56.5729 147.828C56.6406 147.891 56.7448 147.792 56.6771 147.719C56.6458 147.698 56.6094 147.703 56.5833 147.729C56.5573 147.76 56.5521 147.792 56.5729 147.828Z" fill="#5D4037"/>
<path d="M49.0833 154.781C49.0833 154.838 49.1563 154.838 49.1771 154.781C49.1927 154.729 49.1927 154.672 49.1771 154.62C49.1771 154.547 49.0781 154.557 49.0677 154.62C49.0625 154.687 49.0885 154.734 49.0833 154.781Z" fill="#5D4037"/>
<path d="M133.833 78.6979C132.911 79.6667 131.943 81.0833 130.677 81.5885C127.646 82.8646 127.651 78.8021 127.51 77.4531C127.365 76.099 127.146 75.1042 125.911 74.5625C122.542 73.0156 121.828 80.7344 118.578 76.474C118.505 76.3802 118.339 76.474 118.411 76.5729C119.135 77.7135 120.125 78.6927 121.417 77.7396C122.042 77.1458 122.615 76.5052 123.135 75.8125C124.724 74.1302 126.917 74.4427 127.271 76.9948C127.51 78.724 127.333 81.2656 129.302 81.9948C130.99 82.6198 133.01 79.6979 133.906 78.75C133.922 78.7292 133.922 78.7083 133.896 78.6875C133.87 78.6719 133.849 78.6771 133.833 78.6979Z" fill="#5D4037"/>
<path d="M95.6458 109.12C92.0365 112.62 87.875 115.516 84.276 119.026C81.9635 121.276 78.8281 124.281 77.9479 127.531C77.2292 130.208 77.3333 134.339 73.8125 134.484C71.0781 134.599 67.9479 134.339 65.474 135.714C65.401 135.755 65.474 135.865 65.5365 135.828C68.6875 134.219 71.7969 135.609 74.9896 134.781C76.7865 134.313 77.1562 131.891 77.474 130.448C79.4531 120.766 89.1042 115.646 95.7031 109.193C95.7344 109.141 95.6823 109.083 95.6458 109.12Z" fill="#5D4037"/>
<path d="M64.0208 137.323C64.0729 137.276 64.0208 137.208 63.9479 137.25C63.5833 137.583 63.0521 137.682 62.6875 138.016C62.6406 138.052 62.6875 138.115 62.75 138.078C63.125 137.74 63.651 137.651 64.0208 137.323Z" fill="#5D4037"/>
<path d="M59.1927 137.516C59.2396 137.536 59.2396 137.516 59.1927 137.516Z" fill="#5D4037"/>
<path d="M58.6407 141.682C60.5105 142.151 62.3542 142.734 64.2292 143.125V143.068C62.3802 142.536 60.5365 141.969 58.6719 141.49C58.6042 141.479 58.5677 141.505 58.5625 141.573C58.5521 141.635 58.5782 141.672 58.6407 141.682Z" fill="#5D4037"/>
<path d="M151.5 152.021C151.318 151.891 151.198 151.714 151.141 151.495C151.141 151.427 151.042 151.458 151.047 151.495C151.094 151.755 151.224 151.953 151.443 152.099C151.458 152.109 151.474 152.109 151.49 152.099C151.38 152.901 151.167 153.677 150.844 154.417C150.844 154.5 150.922 154.573 150.969 154.49C154.839 147.172 145.651 140.333 141.161 135.938C145.286 140.13 152.276 145.604 151.5 152.021Z" fill="#5D4037"/>
<path d="M146.089 145.458C145.573 145.922 145.828 147.307 146.667 147.182C147.104 147.12 147.719 146.651 147.161 146.287C147.109 146.287 147.052 146.333 147.099 146.375C147.557 146.781 146.042 147.568 146.13 146.375C146.193 145.516 146.969 145.359 147.641 145.609C148.453 145.922 149.229 146.969 148.125 147.667C147.875 147.807 147.672 147.99 147.51 148.224C146.844 149.229 148.594 149.406 149.083 149.526C149.172 149.526 149.229 149.417 149.146 149.37C148.88 149.276 148.604 149.208 148.318 149.177C147.911 149.141 147.781 148.823 147.922 148.24L148.302 147.969C148.396 147.922 148.479 147.865 148.563 147.797C148.802 147.615 148.953 147.375 149.021 147.089C149.089 146.797 149.063 146.516 148.932 146.245C148.432 145.271 146.99 144.641 146.089 145.458Z" fill="#5D4037"/>
<path d="M149.552 149.552C149.76 149.875 150.219 150.151 150.208 150.583C150.208 150.88 150.125 151.182 150.135 151.479C150.094 151.963 150.271 152.349 150.656 152.641C150.734 152.708 150.844 152.599 150.771 152.526C150.594 152.396 150.474 152.229 150.411 152.021C150.344 151.807 150.349 151.599 150.427 151.396C150.484 151.125 150.505 150.859 150.474 150.583C150.354 150.073 150.047 149.729 149.552 149.552Z" fill="#5D4037"/>
<path d="M149.323 149.51C149.292 149.521 149.276 149.542 149.276 149.573C149.276 149.599 149.292 149.62 149.323 149.63C149.38 149.687 149.437 149.687 149.495 149.63C149.552 149.573 149.552 149.516 149.495 149.458C149.484 149.432 149.469 149.411 149.443 149.396C149.37 149.38 149.276 149.458 149.323 149.51Z" fill="#5D4037"/>
<path d="M148.052 149.792C148.469 150.151 149.443 150.057 149.24 150.859C149.083 151.24 149.083 151.62 149.24 152C149.255 152.026 149.276 152.037 149.307 152.026C149.333 152.016 149.344 151.995 149.333 151.964C149.146 151.417 149.677 150.969 149.49 150.417C149.302 149.87 148.521 149.943 148.099 149.698C148.052 149.703 148.052 149.755 148.052 149.792Z" fill="#5D4037"/>
<path d="M149.333 152.052C149.49 152.328 149.688 152.568 149.927 152.771L149.979 152.724C149.755 152.495 149.552 152.255 149.365 152L149.333 152.052Z" fill="#5D4037"/>
<path d="M150.443 153.156C150.411 153.172 150.391 153.198 150.375 153.229C150.349 153.271 150.354 153.307 150.385 153.344C150.422 153.38 150.463 153.385 150.505 153.359C150.536 153.344 150.557 153.318 150.578 153.292C150.635 153.214 150.521 153.068 150.443 153.156Z" fill="#5D4037"/>
<path d="M146.995 148.781H146.953C146.932 149.109 147.068 149.349 147.359 149.5C147.406 149.5 147.474 149.453 147.422 149.417C147.219 149.234 146.995 149.068 146.995 148.781Z" fill="#5D4037"/>
<path d="M144.672 146.417C145.089 147.255 146.781 148.823 147.401 147.365H147.359C146.635 148.542 145.193 147.146 144.99 146.208C144.953 146.057 144.932 145.896 144.932 145.74C144.932 145.578 144.953 145.422 144.99 145.266C145.031 145.115 145.083 144.964 145.161 144.828C145.234 144.688 145.328 144.557 145.432 144.438C145.542 144.323 145.661 144.219 145.792 144.13C145.927 144.042 146.068 143.969 146.219 143.917C146.37 143.865 146.521 143.828 146.682 143.813C146.839 143.797 147 143.802 147.156 143.828C147.198 143.823 147.229 143.797 147.24 143.755C147.255 143.708 147.24 143.672 147.208 143.646C145.646 142.958 143.922 144.912 144.672 146.417Z" fill="#5D4037"/>
<path d="M148.984 145.063C148.88 144.922 148.76 144.807 148.615 144.714C148.573 144.714 148.521 144.75 148.562 144.781C148.604 144.807 148.828 144.969 148.958 145.078L148.984 145.063Z" fill="#5D4037"/>
<path d="M146.839 144.203C146.781 144.229 146.729 144.26 146.677 144.297L146.839 144.203Z" fill="#5D4037"/>
<path d="M149.427 148.156C149.677 147.521 150.323 147.099 150.073 146.354C150.073 146.281 149.937 146.313 149.958 146.354C150.167 147.078 149.453 147.438 149.328 148.099C149.307 148.136 149.318 148.162 149.349 148.182C149.385 148.198 149.411 148.193 149.427 148.156Z" fill="#5D4037"/>
<path d="M149.87 148.448C149.745 148.437 149.635 148.391 149.547 148.302C149.5 148.302 149.437 148.302 149.479 148.37C149.583 148.474 149.714 148.536 149.865 148.542C149.896 148.542 149.911 148.531 149.911 148.5C149.917 148.469 149.901 148.448 149.87 148.448Z" fill="#5D4037"/>
<path d="M150.505 148.667C150.713 148.839 150.838 149.062 150.88 149.328C150.88 149.385 150.99 149.37 150.99 149.328C150.958 149.021 150.807 148.792 150.536 148.641C150.536 148.641 150.484 148.651 150.505 148.667Z" fill="#5D4037"/>
<path d="M151.24 149.979C151.24 149.979 151.193 149.979 151.198 149.979C151.193 150.25 151.135 150.51 151.026 150.76C151.026 150.802 151.083 150.828 151.104 150.76C151.234 150.516 151.281 150.255 151.24 149.979Z" fill="#5D4037"/>
<path d="M151.01 148.016C150.891 147.849 150.792 147.672 150.698 147.49C150.698 147.49 150.641 147.49 150.651 147.49C150.719 147.682 150.813 147.865 150.917 148.042C150.938 148.099 151.047 148.016 151.01 148.016Z" fill="#5D4037"/>
<path d="M81.1197 78.4063C82.0572 76.323 82.4895 74.1459 82.4114 71.8646C82.2395 69.724 81.7031 67.6823 80.7916 65.7396C79.8854 63.7969 78.6666 62.073 77.1354 60.573C77.0989 60.5365 77.0416 60.573 77.0781 60.6303C82.0156 65.7709 82.9687 71.724 80.5833 78.2761C79.1406 82.1823 82.3541 85.4271 84.802 88.224C84.8958 88.323 85.0416 88.1823 84.9531 88.073C82.7239 85.4063 79.677 82.0938 81.1197 78.4063Z" fill="#5D4037"/>
<path d="M75.4739 58.6772C75.5104 58.7136 75.5677 58.6772 75.5312 58.6199C74.0208 56.974 72.4219 55.4219 70.7292 53.9636C70.6719 53.9115 70.5833 53.9636 70.6406 54.0522C72.3542 55.4897 73.901 57.0886 75.4739 58.6772Z" fill="#5D4037"/>
<path d="M148.245 157.042C147.5 157.359 146.729 157.573 145.927 157.682C145.938 157.667 145.938 157.651 145.927 157.641C145.781 157.422 145.578 157.286 145.323 157.24C145.302 157.25 145.292 157.266 145.292 157.286C145.292 157.312 145.302 157.328 145.323 157.333C145.542 157.396 145.714 157.516 145.849 157.698C139.438 158.469 133.964 151.49 129.818 147.328C134.208 151.818 141.052 161.005 148.375 157.135C148.396 157.12 148.323 157.005 148.245 157.042Z" fill="#5D4037"/>
<path d="M140.182 153.292C140.156 153.276 140.135 153.281 140.115 153.297C140.094 153.312 140.089 153.333 140.094 153.359C140.464 153.911 140.932 153.302 140.995 152.859C141.12 152.021 139.724 151.771 139.271 152.281C138.453 153.193 139.083 154.635 140.063 155.12C140.333 155.25 140.615 155.276 140.906 155.208C141.198 155.141 141.432 154.99 141.62 154.75C141.682 154.667 141.74 154.583 141.792 154.49L142.057 154.109C142.641 153.963 142.953 154.109 142.99 154.5C143.021 154.786 143.089 155.062 143.182 155.333C143.229 155.422 143.359 155.333 143.333 155.271C143.219 154.786 143.047 153.042 142.036 153.698C141.802 153.859 141.615 154.062 141.479 154.312C140.76 155.417 139.734 154.641 139.422 153.828C139.172 153.156 139.328 152.38 140.188 152.318C141.365 152.229 140.578 153.792 140.182 153.292Z" fill="#5D4037"/>
<path d="M143.349 155.745C143.542 156.234 143.896 156.531 144.411 156.635C144.682 156.661 144.953 156.646 145.219 156.583C145.427 156.51 145.635 156.505 145.844 156.568C146.057 156.63 146.224 156.755 146.354 156.932C146.427 157.005 146.536 156.932 146.469 156.818C146.177 156.427 145.792 156.255 145.307 156.297C145.01 156.297 144.708 156.359 144.411 156.37C143.979 156.37 143.687 155.922 143.385 155.714C143.359 155.703 143.344 155.734 143.349 155.745Z" fill="#5D4037"/>
<path d="M143.276 155.547C143.214 155.5 143.156 155.594 143.198 155.651C143.214 155.677 143.234 155.693 143.266 155.703C143.286 155.719 143.312 155.719 143.339 155.703C143.359 155.687 143.375 155.667 143.37 155.641C143.401 155.609 143.401 155.578 143.37 155.547C143.339 155.516 143.307 155.516 143.276 155.547Z" fill="#5D4037"/>
<path d="M145.76 155.531C145.792 155.536 145.812 155.526 145.823 155.5C145.833 155.474 145.823 155.453 145.797 155.437C145.417 155.281 145.036 155.281 144.656 155.437C143.854 155.641 143.937 154.667 143.589 154.245C143.589 154.208 143.5 154.245 143.526 154.297C143.74 154.713 143.677 155.5 144.245 155.682C144.818 155.865 145.219 155.349 145.76 155.531Z" fill="#5D4037"/>
<path d="M146.604 156.125C146.401 155.88 146.161 155.682 145.885 155.531C146.141 155.719 146.38 155.922 146.604 156.146C146.609 156.135 146.609 156.13 146.604 156.125Z" fill="#5D4037"/>
<path d="M147.099 156.781C147.125 156.76 147.146 156.734 147.161 156.708C147.193 156.667 147.187 156.625 147.151 156.589C147.115 156.552 147.073 156.552 147.031 156.578C147 156.594 146.979 156.615 146.958 156.641C146.896 156.714 147.016 156.839 147.099 156.781Z" fill="#5D4037"/>
<path d="M142.578 153.193C142.875 153.193 143.031 153.422 143.208 153.62C143.24 153.667 143.328 153.62 143.292 153.552C143.141 153.26 142.896 153.13 142.573 153.146C142.573 153.146 142.547 153.193 142.578 153.193Z" fill="#5D4037"/>
<path d="M137.604 153.365C137.578 153.208 137.573 153.047 137.588 152.891C137.604 152.734 137.641 152.578 137.693 152.427C137.745 152.276 137.818 152.135 137.906 152.005C137.995 151.87 138.099 151.75 138.213 151.646C138.333 151.536 138.463 151.448 138.604 151.37C138.745 151.297 138.891 151.24 139.042 151.198C139.198 151.161 139.354 151.141 139.516 151.141C139.672 151.141 139.833 151.161 139.984 151.198C140.922 151.38 142.318 152.818 141.141 153.557V153.604C142.583 152.984 141.026 151.292 140.193 150.875C138.687 150.151 136.734 151.849 137.401 153.406C137.417 153.474 137.458 153.5 137.521 153.484C137.588 153.474 137.615 153.432 137.604 153.365Z" fill="#5D4037"/>
<path d="M138.88 155.156C138.771 155.026 138.693 154.891 138.583 154.75C138.474 154.615 138.49 154.75 138.51 154.802C138.604 154.948 138.719 155.068 138.859 155.172L138.88 155.156Z" fill="#5D4037"/>
<path d="M138.099 152.88C138.068 152.932 138.036 152.984 138.005 153.042C138.005 153.042 138.063 152.937 138.099 152.88C138.135 152.823 138.109 152.865 138.099 152.88Z" fill="#5D4037"/>
<path d="M141.651 151.438C142.031 151.76 142.224 152.167 142.24 152.667H142.281C142.396 152.172 142.271 151.75 141.906 151.401C141.911 151.385 141.911 151.365 141.906 151.349C141.938 151.229 142 151.125 142.078 151.031C142.161 150.937 142.26 150.87 142.375 150.823C142.495 150.776 142.615 150.755 142.734 150.766C142.859 150.776 142.974 150.813 143.083 150.875C143.464 150.953 143.792 151.13 144.063 151.401C144.359 151.661 144.521 152.036 144.786 152.318C145.281 152.802 145.854 153.156 146.505 153.38C146.563 153.38 146.594 153.312 146.542 153.286C145.938 153.026 145.417 152.656 144.974 152.172C144.786 151.927 144.677 151.63 144.474 151.401C144.063 150.854 143.516 150.552 142.828 150.5C142.354 150.5 141.266 150.766 141.641 151.37C141.635 151.396 141.641 151.417 141.651 151.438Z" fill="#5D4037"/>
<path d="M141.927 155.531C141.266 155.651 140.932 156.37 140.182 156.156C140.109 156.156 140.078 156.245 140.182 156.276C140.901 156.526 141.344 155.875 141.984 155.63C142.021 155.615 142.026 155.589 142.005 155.552C141.99 155.521 141.964 155.511 141.927 155.531Z" fill="#5D4037"/>
<path d="M142.167 155.677C142.13 155.63 142.063 155.677 142.099 155.74C142.188 155.833 142.234 155.937 142.245 156.062C142.245 156.094 142.26 156.109 142.286 156.109C142.318 156.109 142.333 156.094 142.333 156.062C142.328 155.911 142.276 155.781 142.167 155.677Z" fill="#5D4037"/>
<path d="M142.276 156.406L142.339 156.536L142.276 156.411V156.406Z" fill="#5D4037"/>
<path d="M142.432 156.734C142.588 157.021 142.828 157.172 143.156 157.193C143.219 157.193 143.234 157.099 143.156 157.083C142.885 157.042 142.667 156.917 142.49 156.708C142.49 156.708 142.417 156.677 142.432 156.734Z" fill="#5D4037"/>
<path d="M143.781 157.438C144.073 157.485 144.344 157.432 144.599 157.292C144.635 157.292 144.599 157.198 144.599 157.214C144.349 157.323 144.094 157.38 143.818 157.386L143.781 157.438Z" fill="#5D4037"/>
<path d="M141.266 156.901C141.448 156.99 141.625 157.094 141.792 157.214C141.849 157.25 141.906 157.156 141.839 157.12C141.667 157.016 141.479 156.927 141.286 156.859L141.266 156.901Z" fill="#5D4037"/>
<path d="M72.0625 86.7865C65.526 89.172 59.5677 88.2292 54.4167 83.2761C54.401 83.2605 54.3802 83.2605 54.3594 83.2761C54.3437 83.297 54.3437 83.3178 54.3594 83.3334C55.8646 84.8699 57.5885 86.0886 59.5313 86.9949C61.474 87.9063 63.5156 88.4428 65.651 88.6147C67.9323 88.6928 70.1146 88.2605 72.1927 87.323C75.8906 85.8751 79.1979 88.922 81.8542 91.1615C81.9583 91.2501 82.1094 91.1042 82 91.0105C79.2188 88.5574 75.9688 85.3647 72.0625 86.7865Z" fill="#5D4037"/>
<path d="M47.8437 76.8438C47.7917 76.7865 47.7135 76.8438 47.7552 76.9323C49.2135 78.6198 50.7656 80.224 52.4115 81.7344C52.4323 81.7396 52.4479 81.7396 52.4583 81.724C52.474 81.7084 52.4792 81.6928 52.4687 81.6771C50.8958 80.0938 49.2865 78.5573 47.8385 76.8438H47.8437Z" fill="#5D4037"/>
<path d="M145.208 150.667C145.443 150.875 145.734 150.984 145.979 151.172C146.464 151.609 146.833 152.13 147.089 152.734C147.089 152.786 147.208 152.734 147.182 152.698C146.958 152.047 146.609 151.474 146.125 150.984C145.802 150.755 145.5 150.516 145.208 150.26C144.932 149.984 144.755 149.656 144.677 149.276C144.62 149.172 144.583 149.057 144.573 148.932C144.568 148.807 144.583 148.693 144.63 148.578C144.677 148.464 144.75 148.365 144.839 148.281C144.932 148.198 145.036 148.141 145.156 148.109H145.208C145.557 148.474 145.979 148.599 146.469 148.484V148.443C145.974 148.427 145.568 148.229 145.24 147.854C145.224 147.849 145.208 147.849 145.193 147.854C144.583 147.474 144.318 148.578 144.318 149.042C144.375 149.714 144.672 150.255 145.208 150.667Z" fill="#5D4037"/>
<path d="M145.964 149.099C146.125 149.219 146.276 149.24 146.396 149.099C146.396 149.047 146.359 148.969 146.313 149.01H146.073C146.042 148.99 146.016 148.99 145.984 149.01C145.646 148.786 145.333 149.208 145.474 149.568C145.708 150.042 146.078 150.365 146.578 150.542C146.578 150.542 146.635 150.542 146.578 150.5C146.37 150.266 145.214 149.198 145.964 149.099Z" fill="#5D4037"/>
<path d="M150.729 154.75L150.63 154.901C150.62 154.755 150.594 154.609 150.557 154.469C150.542 154.125 150.391 153.859 150.099 153.677C150.099 153.677 150.099 153.677 150.099 153.641C149.63 153.104 148.974 152.786 148.854 152.016C148.828 151.693 148.776 151.38 148.698 151.068C148.724 150.823 148.625 150.646 148.411 150.526C148.177 150.453 147.932 150.396 147.687 150.354C147.177 150.073 146.818 149.656 146.604 149.109C146.635 149.438 146.75 149.734 146.953 149.995C147.151 150.255 147.406 150.443 147.714 150.557L147.797 150.604C147.917 150.766 147.99 150.948 148.016 151.146C147.953 151.057 147.88 150.974 147.807 150.896C147.901 151.109 147.974 151.333 148.021 151.557C148 151.599 148 151.641 148.021 151.682C148.089 152.089 148.224 152.474 148.427 152.839L148.5 152.984C148.094 152.703 147.854 152.323 147.776 151.839C147.714 151.38 147.516 150.995 147.177 150.677C147.141 150.677 147.068 150.677 147.104 150.734C147.646 151.458 147.443 152.599 148.193 153.193C148.948 153.781 150.135 153.443 150.323 154.557C149.776 153.995 148.156 153.911 147.839 153.276C147.839 153.219 147.724 153.276 147.755 153.328C148.068 153.771 148.484 154.062 149.01 154.203C149.625 154.453 150.182 154.604 150.078 155.313C149.917 155.135 149.724 154.984 149.51 154.875C149.464 154.875 149.406 154.911 149.453 154.948C149.75 155.156 149.953 155.432 150.062 155.781C150.073 155.807 150.083 155.823 150.099 155.833C150.057 155.901 150.016 155.964 149.964 156.031C149.911 156.094 149.964 156.125 150.016 156.078C150.198 155.896 150.365 155.698 150.505 155.479V155.427C150.583 155.339 150.63 155.229 150.651 155.109C150.698 154.995 150.766 154.891 150.807 154.766C150.854 154.641 150.745 154.729 150.729 154.75ZM150.167 155.646C150.167 155.63 150.167 155.615 150.167 155.594C150.198 155.589 150.224 155.568 150.24 155.536V155.479L150.167 155.646Z" fill="#5D4037"/>
<path d="M144.203 147.62C144.266 147.531 144.26 147.453 144.188 147.38C144.109 147.307 144.031 147.302 143.948 147.365C143.885 147.448 143.891 147.526 143.969 147.599C144.042 147.672 144.12 147.682 144.203 147.62Z" fill="#5D4037"/>
<path d="M143.458 147.479C143.505 147.422 143.51 147.359 143.474 147.297C143.437 147.229 143.38 147.203 143.307 147.214C143.25 147.224 143.219 147.261 143.208 147.313C143.193 147.386 143.219 147.438 143.276 147.479C143.339 147.516 143.396 147.516 143.458 147.479Z" fill="#5D4037"/>
<path d="M142.844 147.495C142.922 147.417 142.922 147.339 142.844 147.266C142.766 147.187 142.693 147.187 142.615 147.266C142.536 147.339 142.536 147.417 142.615 147.495C142.693 147.573 142.766 147.573 142.844 147.495Z" fill="#5D4037"/>
<path d="M142.172 147.385C142.141 147.401 142.12 147.422 142.109 147.453C142.073 147.49 142.073 147.521 142.109 147.557C142.146 147.573 142.182 147.573 142.219 147.557C142.38 147.547 142.276 147.292 142.172 147.385Z" fill="#5D4037"/>
<path d="M141.901 147.719C141.922 147.682 141.922 147.646 141.891 147.609C141.859 147.578 141.823 147.573 141.781 147.594C141.76 147.635 141.76 147.672 141.792 147.703C141.823 147.734 141.859 147.74 141.901 147.719Z" fill="#5D4037"/>
<path d="M141.464 147.818C141.401 147.891 141.5 147.995 141.573 147.927C141.646 147.865 141.552 147.745 141.464 147.818Z" fill="#5D4037"/>
<path d="M149.063 154.891V154.734C149.052 154.714 149.036 154.698 149.005 154.698C148.979 154.698 148.964 154.714 148.953 154.734C148.937 154.792 148.937 154.844 148.953 154.896C148.99 154.948 149.068 154.938 149.063 154.891Z" fill="#5D4037"/>
<path d="M144.255 152.807C144.255 152.807 144.302 152.807 144.286 152.807C144.109 152.312 143.786 151.943 143.312 151.703C142.953 151.557 142.536 151.875 142.76 152.219C142.74 152.245 142.74 152.271 142.76 152.297V152.542C142.714 152.594 142.792 152.667 142.844 152.63C143.026 152.505 143.005 152.359 142.844 152.203C142.995 151.417 144.062 152.562 144.255 152.807Z" fill="#5D4037"/>
<path d="M149.63 156.24C149.62 156.219 149.604 156.208 149.583 156.203C149.234 156.094 148.953 155.891 148.745 155.588C148.708 155.547 148.641 155.588 148.667 155.646C148.776 155.865 148.927 156.052 149.104 156.219C148.38 156.318 148.255 155.76 147.995 155.146C147.854 154.625 147.562 154.203 147.12 153.891C147.062 153.891 147.016 153.948 147.068 153.979C147.698 154.276 147.792 155.911 148.349 156.453C147.234 156.266 147.547 155.01 146.974 154.323C146.406 153.641 145.266 153.776 144.521 153.234C144.474 153.234 144.432 153.234 144.464 153.307C144.776 153.646 145.167 153.849 145.625 153.906C146.109 153.984 146.49 154.224 146.766 154.63L146.604 154.51C146.245 154.312 145.865 154.177 145.458 154.109C145.417 154.088 145.375 154.088 145.333 154.109C145.109 154.057 144.885 153.984 144.672 153.891C144.75 153.969 144.833 154.036 144.922 154.099C144.724 154.078 144.542 154.005 144.38 153.885L144.333 153.797C144.219 153.49 144.031 153.24 143.771 153.036C143.51 152.838 143.214 152.724 142.891 152.693C143.432 152.901 143.849 153.266 144.13 153.776C144.172 154.021 144.229 154.26 144.302 154.5C144.422 154.713 144.599 154.812 144.844 154.786C145.156 154.865 145.469 154.911 145.792 154.937C146.563 155.062 146.891 155.719 147.417 156.182H147.453C147.641 156.474 147.906 156.625 148.255 156.635C148.396 156.672 148.542 156.698 148.688 156.708L148.536 156.807C148.536 156.807 148.536 156.859 148.536 156.854C148.656 156.807 148.771 156.75 148.891 156.693C149.005 156.677 149.115 156.625 149.208 156.547H149.255C149.474 156.406 149.672 156.245 149.854 156.057C149.891 156.057 149.854 155.969 149.807 156.005L149.63 156.24ZM149.292 156.463H149.349C149.38 156.448 149.396 156.422 149.406 156.391H149.458L149.292 156.463Z" fill="#5D4037"/>
<path d="M141.161 150.182C141.078 150.266 141.078 150.354 141.167 150.438C141.255 150.521 141.339 150.521 141.422 150.432C141.505 150.349 141.505 150.26 141.417 150.177C141.333 150.094 141.245 150.094 141.161 150.182Z" fill="#5D4037"/>
<path d="M141.276 149.661C141.339 149.604 141.349 149.536 141.307 149.464C141.26 149.391 141.198 149.365 141.12 149.396C141.062 149.406 141.031 149.443 141.016 149.495C141.005 149.568 141.026 149.625 141.094 149.667C141.156 149.708 141.219 149.703 141.276 149.661Z" fill="#5D4037"/>
<path d="M141.302 149.042C141.375 148.964 141.375 148.885 141.302 148.807C141.224 148.729 141.146 148.729 141.068 148.807C140.99 148.885 140.99 148.964 141.068 149.042C141.146 149.115 141.224 149.115 141.302 149.042Z" fill="#5D4037"/>
<path d="M141.255 148.313C141.224 148.323 141.203 148.344 141.193 148.375C141.125 148.511 141.344 148.583 141.37 148.448C141.385 148.412 141.385 148.375 141.37 148.339C141.344 148.287 141.307 148.276 141.255 148.313Z" fill="#5D4037"/>
<path d="M141.401 147.979C141.38 148.016 141.385 148.052 141.417 148.083C141.448 148.114 141.484 148.12 141.526 148.094C141.547 148.052 141.542 148.021 141.505 147.989C141.474 147.958 141.438 147.953 141.401 147.979Z" fill="#5D4037"/>
<path d="M141.724 147.776C141.792 147.703 141.687 147.604 141.62 147.667C141.599 147.703 141.604 147.734 141.63 147.766C141.656 147.792 141.693 147.797 141.724 147.776Z" fill="#5D4037"/>
<path d="M148.542 155.234H148.693C148.75 155.234 148.75 155.161 148.693 155.141C148.641 155.125 148.589 155.125 148.536 155.141C148.469 155.141 148.469 155.234 148.542 155.234Z" fill="#5D4037"/>
<path d="M148.484 154.828C148.427 154.828 148.406 154.896 148.448 154.922C148.49 154.953 148.521 154.974 148.62 154.974C148.661 154.917 148.714 154.864 148.771 154.823C148.771 154.724 148.771 154.734 148.724 154.651C148.672 154.562 148.615 154.651 148.63 154.687C148.641 154.724 148.63 154.765 148.63 154.802L148.484 154.828Z" fill="#5D4037"/>
<path d="M64.0885 70.8176C66.375 72.0312 67.4583 74.5989 64.1302 75.7239C63.5468 75.9218 62.4635 76.1562 62.125 76.7239C61.8541 77.177 61.5312 77.5103 61.875 78.0937C62.3958 79.0208 62.6875 80.0155 62.7656 81.0728C62.8385 82.1301 62.6823 83.1562 62.302 84.1458C62.2604 84.2655 62.4531 84.3176 62.5 84.1926C63.0989 82.6874 63.901 81.6249 63.4427 79.9999C63.2135 79.1718 60.4635 77.4791 62.8177 76.5103C63.4531 76.2551 64.3229 76.052 64.9843 75.7916C66.6562 75.0676 67.5 73.6249 66.3541 71.9999C65.2083 70.3749 62.5104 69.703 60.7343 69.1093C59.2031 68.6666 57.7239 68.0833 56.2968 67.3645C53.4062 65.6822 55.4895 63.0312 58.3489 62.953C61.2083 62.8749 64.7864 63.8489 67.3958 62.0937C68.7448 61.1718 68.427 59.4374 67.5312 58.3333C63.052 52.7916 55.5156 47.9062 48.3385 47.7239C48.2604 47.7239 48.2604 47.8489 48.3385 47.8489C54.0625 48.1145 58.6666 50.8801 62.9687 54.4478C63.9635 55.2708 65.0312 56.0155 65.9791 56.901C66.6875 57.4791 67.2812 58.1562 67.7552 58.9374C69.3073 62.1458 65.7395 62.8176 64.0156 62.8176C62.2864 62.8176 53.7604 61.4374 54.3177 65.552C54.7604 68.7603 61.8489 69.6249 64.0885 70.8176Z" fill="#5D4037"/>
<path d="M63.125 86.4114C63.1042 86.4374 63.1042 86.4583 63.125 86.4843C63.151 86.5051 63.1719 86.5051 63.1979 86.4843C63.224 86.4583 63.224 86.4374 63.1979 86.4114C63.1719 86.3853 63.151 86.3853 63.125 86.4114Z" fill="#5D4037"/>
<path d="M120.427 129.088C120.714 129.896 121.177 130.594 121.807 131.177C122.437 131.76 123.167 132.161 123.995 132.391C125.495 132.896 127.427 133.177 128.771 134C129.292 134.318 125.964 135.443 125.74 135.5C125.646 135.531 125.625 135.588 125.667 135.677C128.354 139.568 132.729 141.453 136.359 144.286C136.443 144.349 136.547 144.245 136.469 144.182C134.469 142.536 132.24 141.292 130.151 139.755C130.51 140.021 125.026 136.146 126.75 135.463C127.698 135.104 128.63 134.745 129.641 134.469C129.682 134.448 129.703 134.411 129.703 134.359C129.703 134.312 129.682 134.276 129.641 134.255C127.609 133.016 125.172 132.953 123.141 131.807C120.547 130.359 120.464 128 119.292 125.604C116.693 120.266 111.24 116.818 107.812 112.036H107.76C109.865 115.005 112.484 117.422 114.984 120.073C117.609 122.984 118.932 125.568 120.427 129.088Z" fill="#5D4037"/>
</svg>
