<svg width="646" height="600" viewBox="0 0 646 600" fill="none" xmlns="http://www.w3.org/2000/svg">
<mask id="mask0_55_648" style="mask-type:luminance" maskUnits="userSpaceOnUse" x="0" y="149" width="646" height="451">
<path d="M0 149.059H645.162V600H0V149.059Z" fill="white"/>
</mask>
<g mask="url(#mask0_55_648)">
<path d="M50.1344 465.793C52.5873 462.567 54.9059 459.341 57.3588 456.25C61.3575 451.344 66.129 447.749 72.6814 446.976C73.3199 446.841 74.0927 446.068 74.3615 445.43C77.0833 438.71 79.7715 431.888 82.594 425.202C83.6357 422.749 83.4005 420.665 82.2244 418.212C66.9018 385.114 72.3118 343.75 95.4973 316.801C101.68 309.576 108.905 303.797 117.406 299.529C118.448 299.025 118.683 298.622 118.683 297.345C118.582 295.027 118.952 292.708 119.355 290.39C119.724 288.206 121.539 287.029 123.32 286.122C124.362 285.618 124.899 284.845 124.899 283.669C124.899 278.024 125 272.211 125.134 266.532C125.269 262.802 125.538 259.207 126.042 255.443C126.814 249.798 129.771 245.934 135.585 244.489C135.954 244.388 136.358 244.254 136.727 244.119C136.862 239.986 136.089 236.257 133.636 232.762C127.856 224.395 122.681 215.759 117.406 207.123C116.129 205.074 115.222 202.755 114.18 200.437C113.911 199.899 113.81 199.395 113.407 199.126C111.223 197.715 110.719 195.531 110.45 193.212C109.812 185.719 109.946 178.394 111.358 171.035C112.265 166.666 114.953 163.441 119.086 162.029C123.723 160.349 128.629 158.938 133.501 158.165C151.176 155.712 168.952 155.578 186.727 156.855C201.042 157.896 215.222 159.711 229.032 163.441C232.897 164.482 236.626 166.028 240.356 167.171C245.397 168.582 247.816 172.345 249.261 176.982C250.672 181.989 250.941 187.029 250.538 192.171C250.403 194.489 249.765 196.808 249.362 199.126C248.858 202.621 247.177 205.712 244.489 207.896C239.315 212.029 235.988 217.708 232.224 222.849C227.991 228.763 223.858 234.98 219.624 240.894C215.995 245.934 212.399 250.672 208.77 255.712C208.669 255.847 208.401 256.115 208.401 256.351C208.401 259.576 208.401 262.802 208.401 266.297C214.18 265.759 218.851 267.439 221.673 272.849C225.672 270.531 229.671 268.851 233.905 268.347C246.169 266.667 257.359 269.489 267.406 276.848C269.22 278.259 270.397 279.939 270.128 282.527C271.808 281.989 273.354 281.619 274.899 281.115C275.269 280.981 275.672 280.443 275.806 280.074C276.311 278.024 276.815 275.941 277.218 273.891C277.722 271.438 279.402 269.892 281.72 269.489C289.315 268.212 296.942 266.532 304.671 265.759C315.759 264.617 326.848 264.751 338.038 265.625C344.22 266.162 350.302 267.07 356.351 268.212C364.483 269.892 370.262 276.344 371.673 285.114C371.942 286.391 372.446 286.761 373.622 287.164C377.991 288.441 382.393 289.852 386.761 291.297C401.579 296.068 414.583 304.167 426.579 313.978C427.487 314.617 428.259 315.524 428.898 316.431C430.444 318.851 429.167 321.841 426.311 322.211C424.395 322.48 422.211 322.48 420.262 322.076C417.708 321.572 415.121 320.665 412.265 319.758C412.265 325.302 412.265 330.712 412.265 335.753C419.12 335.988 425.807 336.257 432.527 336.391C433.165 336.391 434.073 336.122 434.442 335.753C441.264 328.797 449.798 325.437 459.308 324.261C464.852 323.622 470.262 324.261 475.807 325.168C482.124 326.075 488.441 326.478 494.758 327.117C513.575 328.931 532.527 330.712 551.344 332.661C565.256 334.072 579.167 335.349 593.078 337.164C600.067 338.071 607.023 339.482 613.71 341.297C620.531 343.078 626.613 346.572 632.527 350.437C636.526 353.024 639.617 356.351 642.709 359.98C642.977 360.249 643.213 360.484 643.481 360.753C644.758 361.895 645.161 363.206 644.523 364.751C643.885 366.297 642.44 366.935 640.894 366.667C636.929 366.297 632.93 365.759 629.066 365.255C628.797 365.255 628.394 365.121 628.024 365.121C628.293 366.667 628.663 368.111 628.797 369.657C629.167 378.528 629.704 387.567 629.94 396.438C630.343 407.93 630.477 419.523 630.713 430.981C630.847 434.341 628.159 437.567 624.664 438.34C623.118 438.71 621.573 438.978 619.893 439.113C618.75 439.247 618.213 439.617 617.708 440.793C616.936 443.111 615.793 445.296 614.752 447.48C614.617 447.883 614.348 448.253 614.483 448.656C615.659 453.024 610.249 462.063 605.612 463.474C599.53 465.39 592.07 462.567 592.44 454.2C592.44 453.797 592.44 453.427 592.07 452.89C591.936 453.293 591.801 453.797 591.667 454.2C590.39 457.392 589.987 461.021 587.164 463.34C586.257 464.113 584.98 464.886 583.804 465.155C580.477 465.659 576.983 465.524 573.757 463.844C570.296 462.063 569.12 458.938 568.616 455.343C568.347 452.89 567.977 450.437 567.708 448.118C567.574 448.118 567.44 448.118 567.204 447.984C567.07 448.656 566.801 449.16 566.936 449.798C567.977 456.25 563.71 466.7 554.167 467.977C551.714 468.347 549.16 467.843 546.707 467.339C544.624 466.935 543.213 465.524 542.305 463.609C538.307 467.473 534.073 471.203 527.89 469.12C521.842 467.07 520.161 461.929 519.489 456.116C516.028 455.981 512.668 455.847 509.308 455.611C505.981 455.343 502.487 454.973 498.891 454.57C498.488 456.384 497.581 458.165 497.984 460.383C498.622 464.482 497.48 468.481 495.397 472.11C493.851 474.664 491.297 475.437 488.441 475.202C487.534 475.202 486.626 475.336 485.753 475.571C482.527 476.747 479.436 476.982 476.344 475.571C475.437 475.202 474.899 475.202 474.261 475.974C472.48 477.755 470.262 479.066 467.574 478.797C467.305 478.797 467.036 478.797 466.936 478.931C462.298 480.746 458.165 479.57 454.536 476.109C453.663 477.755 452.89 479.435 451.983 480.981C450.672 483.199 448.891 485.383 446.438 485.249C441.667 484.98 436.492 486.29 432.393 482.661C429.301 486.929 426.075 490.793 420.027 489.886C414.583 489.113 410.35 486.794 409.073 480.847C394.221 481.25 379.671 481.754 364.718 482.157C366.532 487.702 363.575 490.793 359.577 492.708C358.804 501.109 357.124 509.073 352.487 515.927C349.53 520.296 344.893 522.749 339.449 523.118C336.626 523.387 333.804 523.017 330.813 522.883C326.311 537.063 313.811 543.75 302.722 540.524C302.083 541.835 301.579 543.246 300.538 544.254C298.992 545.934 297.077 547.379 295.397 548.925C295.262 549.026 294.993 549.026 294.859 549.16C292.036 552.89 287.668 552.251 283.905 552.655C278.898 553.024 273.723 553.427 268.582 552.52C266.768 552.251 264.852 552.655 263.172 551.243C260.585 549.026 258.266 546.707 257.493 543.38C257.124 541.7 256.351 541.431 254.671 541.431C250.403 541.7 246.169 541.566 241.767 541.297C237.534 541.062 233.266 540.39 228.898 540.02C228.36 543.38 227.856 546.976 227.453 550.571C226.445 559.476 225.403 568.38 224.362 577.251C223.723 583.065 219.724 587.433 213.81 587.97C209.812 588.34 205.813 588.105 201.815 588.105C189.953 588.105 178.125 588.105 166.129 588.206C138.172 588.743 110.181 591.431 82.2244 593.38C74.7647 593.884 67.2715 594.792 59.6774 595.43C59.2741 595.43 58.9045 595.565 58.5013 595.833C53.2258 599.059 44.59 597.614 40.5913 592.977C40.0873 592.339 39.4489 591.835 38.7768 591.297C27.5873 583.333 16.4986 575.336 5.27547 567.473C5.04026 567.204 4.77144 566.969 4.36821 566.969C1.68004 566.7 1.176 564.617 0.638369 562.433C-7.45466e-05 559.341 0.134332 556.25 1.81444 553.562C2.45288 552.52 3.36015 551.344 4.36821 550.84C6.04832 550.202 6.68676 549.026 6.95558 547.48C8.36686 539.247 9.77816 530.981 11.3575 522.883C13.004 513.743 14.0456 504.335 17.0026 495.43C17.7755 493.246 18.6827 491.028 19.3212 488.71C20.6317 484.745 23.4542 482.426 27.4529 481.384C28.5954 480.981 28.9986 480.477 28.9986 479.301C29.2674 476.21 29.5026 473.118 30.0403 470.027C31.1827 463.978 34.8118 460.887 40.9946 460.484C41.3642 460.484 41.7674 460.484 42.2714 460.383C47.1774 460.249 48.0846 460.753 49.9999 465.255C49.8655 465.39 49.9999 465.659 50.1344 465.793ZM44.3212 465.793C44.2204 465.39 44.2204 465.155 44.086 464.751C41.633 465.02 39.0456 465.02 36.7271 465.524C35.4502 465.793 34.2741 466.935 34.1397 468.616C33.7701 473.387 33.3669 478.159 33.1317 482.93C32.9973 484.745 32.3588 485.887 30.9139 486.525C29.9058 487.063 28.8642 487.298 27.8225 487.702C26.176 488.206 24.9999 489.113 24.3615 490.659C23.4542 493.38 22.1774 495.934 21.5389 498.656C20.2284 503.931 19.1868 509.207 18.0443 514.516C15.7257 525.974 13.4072 537.567 11.0886 549.026C10.6854 551.243 9.77816 553.159 7.86283 554.57C7.35881 554.973 6.82117 555.612 6.82117 556.116C6.58595 558.434 6.31713 560.753 6.18273 563.071C6.18273 563.474 6.68676 564.113 7.22439 564.382C11.4583 567.07 15.8601 569.657 20.094 572.379C28.8642 578.024 37.4999 583.703 46.2701 589.382C46.6397 589.651 47.043 589.751 47.4126 589.751C51.68 589.886 55.9475 590.659 60.3158 589.751C73.0846 586.929 85.9543 585.753 98.9919 584.879C121.001 583.434 143.044 581.888 165.087 580.746C177.856 580.108 190.726 579.469 203.495 580.477C206.082 580.746 208.77 581.015 211.358 581.25C213.172 581.384 214.852 580.746 215.726 579.066C216.767 577.016 217.54 574.798 217.944 572.48C219.355 564.247 220.632 555.88 221.942 547.614C223.488 537.198 225.034 526.747 226.445 516.297C226.949 512.433 228.629 509.745 232.493 508.569C234.442 508.064 235.316 506.754 235.081 504.57C234.946 503.427 235.215 502.117 235.081 500.84C234.946 499.16 234.677 497.345 234.442 495.564C232.997 495.934 231.855 496.337 230.813 496.707C228.125 497.749 225.403 498.79 222.715 499.664C222.043 499.933 221.169 499.798 220.397 499.798C220.632 499.025 220.901 498.253 221.169 497.48C221.27 497.245 221.673 496.976 221.942 496.707C225.034 494.153 228.36 492.07 232.224 490.793C233.401 490.39 234.039 489.886 234.543 488.71C237.399 482.157 240.759 475.974 246.035 470.934C248.723 468.347 251.714 466.935 255.444 467.07C255.948 467.07 256.351 466.935 256.855 466.935C260.45 466.431 263.945 465.927 267.54 465.39C274.63 464.482 281.351 462.836 286.223 456.754C288.811 453.528 292.44 451.109 296.539 450.302C305.309 448.656 314.079 446.976 322.984 445.665C332.762 444.388 342.54 443.481 352.487 442.473C354.167 442.339 355.444 441.566 356.082 439.751C355.444 439.617 354.94 439.348 354.402 439.247C349.765 438.34 345.128 437.433 340.491 436.794C337.534 436.257 334.308 435.618 331.351 436.021C310.854 438.474 290.222 441.163 269.724 443.616C265.087 444.12 262.13 446.573 259.812 450.202C258.669 451.882 257.628 453.528 256.452 455.208C254.671 457.93 252.218 459.61 249.126 460.383C245.766 461.156 242.406 461.794 239.079 462.164C234.173 462.567 229.267 462.567 224.362 462.567C220.397 462.567 217.406 463.978 216.129 467.977C222.715 470.564 224.261 472.883 223.992 480.074C223.858 483.064 223.589 486.021 223.354 488.844C223.219 490.255 223.085 491.801 222.816 493.246C222.446 495.161 221.035 496.203 219.489 495.934C217.944 495.699 216.902 494.388 217.036 492.473C217.036 491.7 217.171 490.927 217.272 490.155C217.675 486.66 218.044 483.199 218.582 479.435C217.54 479.704 216.902 479.973 216.129 480.208C212.13 481.384 208.266 480.981 204.772 478.797C204.133 478.427 203.763 477.655 203.36 477.117C204.133 476.882 204.906 476.613 205.679 476.613C207.493 476.613 209.173 476.982 210.988 476.982C213.038 476.982 214.953 476.21 216.902 474.798C213.306 473.891 210.215 472.11 206.72 472.883C204.906 473.253 202.991 473.521 202.453 475.437C201.042 480.074 199.765 484.845 198.858 489.617C198.219 493.246 196.673 495.027 192.944 495.027C190.356 495.027 187.903 494.926 185.316 494.657C174.63 493.884 163.945 492.843 153.36 492.204C133.501 490.927 113.676 489.886 93.8172 488.71C90.0873 488.474 86.3575 488.71 82.594 488.474C78.629 488.206 74.6303 487.702 70.4973 487.164C67.5403 486.794 64.5833 486.156 61.7271 485.517C61.0887 485.383 60.6854 484.476 60.1814 483.837C60.8198 483.569 61.5927 483.064 62.2311 483.064C67.4059 483.199 72.4126 483.434 77.5873 483.703C78.2258 483.703 78.9986 483.703 79.5026 483.703C81.9556 472.749 89.0457 465.02 95.7661 456.754C94.8588 456.62 94.086 456.519 93.3131 456.384C87.2647 455.981 81.1828 455.611 75.1344 455.208C73.4543 455.074 71.7742 455.074 70.2285 454.57C68.9516 454.2 68.0443 454.2 67.137 454.973C65.3561 456.519 63.5416 458.064 62.1303 459.845C59.543 462.937 57.4932 466.431 54.7715 469.254C52.1841 471.976 50.9072 474.664 51.8145 478.427C52.3185 480.343 51.0416 481.888 49.3615 482.023C47.8158 482.157 46.5389 481.116 46.1357 479.2C45.7661 476.882 45.6317 474.563 45.3628 472.245C45.3628 471.573 45.2284 471.068 45.094 470.43C43.9516 470.665 42.9099 471.203 42.0026 471.203C40.2217 471.203 38.4072 471.068 36.5927 470.665C36.0886 470.564 35.4502 469.657 35.4502 469.254C35.4502 468.884 36.3575 468.347 36.8615 468.112C37.3655 467.843 38.004 467.977 38.5416 467.843C40.5913 466.935 42.5403 466.297 44.3212 465.793ZM81.8212 449.664C87.2647 450.067 92.5403 450.437 97.8158 450.706C98.3199 450.706 99.0927 450.202 99.4959 449.664C101.176 447.48 103.226 446.068 105.948 445.934C108.401 445.8 110.719 445.564 113.138 445.564C127.856 446.203 142.406 446.976 157.09 447.749C162.13 447.984 167.171 448.521 172.177 449.53C174.496 449.933 176.176 450.067 178.36 449.025C186.862 445.161 194.59 440.255 200.806 433.165C218.716 412.937 226.311 389.348 223.723 362.433C222.715 351.21 219.086 340.658 212.265 331.62C209.308 327.755 205.679 324.261 202.453 320.531C202.083 320.027 202.083 319.119 201.815 318.347C202.587 318.347 203.226 318.212 203.898 318.347C204.402 318.481 205.04 318.75 205.444 319.119C208.535 321.707 211.761 324.025 214.449 326.982C220.128 333.165 223.858 340.658 226.311 348.622C232.997 370.161 231.216 391.297 222.312 411.929C213.945 431.116 200.806 446.068 181.586 455.074C181.452 455.208 181.317 455.343 180.679 455.847C181.586 456.116 182.224 456.519 182.863 456.519C186.996 456.519 191.129 456.25 195.262 456.62C202.352 457.157 209.442 457.661 215.491 462.063C217.944 459.845 220.766 458.703 223.992 458.3C225.907 458.064 227.991 457.93 229.906 457.661C234.039 457.157 238.038 456.754 242.171 456.25C241.263 454.435 240.222 452.89 239.718 451.109C238.542 447.211 237.634 443.246 236.626 439.348C235.081 433.064 235.988 427.117 238.811 421.203C241.398 416.028 243.952 410.753 245.632 405.343C248.589 396.304 250.403 386.895 251.445 377.386C252.722 365.759 252.083 354.57 246.539 343.985C242.305 335.618 237.399 327.755 230.175 321.707C229.402 321.068 228.36 320.296 229.133 318.985C229.906 317.708 231.216 318.212 232.124 318.851C234.173 320.161 236.358 321.438 238.172 323.118C242.944 327.386 246.27 332.796 249.362 338.206C253.495 345.665 256.72 353.528 257.493 362.029C258.401 372.749 257.359 383.434 255.444 393.985C253.36 405.208 250.538 416.163 243.851 425.706C241.398 429.167 241.129 432.661 242.406 436.525C244.489 442.574 246.405 448.521 248.488 455.074C249.765 454.066 250.941 453.528 251.714 452.655C253.259 450.84 254.671 448.757 256.216 446.841C258.401 444.12 260.585 441.431 264.315 440.659C269.355 439.751 274.395 438.844 279.402 438.071C281.989 437.702 284.577 437.164 287.13 436.794C286.626 434.341 286.223 432.157 285.719 429.973C285.081 426.848 285.585 424.16 287.13 421.337C289.583 416.431 292.44 411.66 293.985 406.485C298.622 390.894 299.126 375.302 293.851 359.577C290.995 351.075 287.265 343.347 281.082 336.895C280.309 336.122 279.536 335.349 279.133 334.442C278.898 333.669 279.032 332.796 279.032 331.888C279.906 331.888 280.948 331.754 281.586 332.124C285.719 334.98 289.214 338.34 292.171 342.439C298.858 352.117 301.949 363.071 303.629 374.395C305.309 385.753 303.763 397.077 300.538 407.93C298.858 413.71 295.766 418.985 293.313 424.529C292.809 425.571 292.54 426.982 292.675 428.024C293.078 430.611 293.851 433.064 294.355 435.618C294.624 435.618 294.993 435.618 295.262 435.618C305.444 434.073 315.625 432.157 325.941 430.981C330.444 430.477 332.493 428.528 334.173 424.664C344.22 399.933 342.54 375.941 330.578 352.386C325.941 343.347 319.22 335.887 310.35 330.712C309.812 330.477 308.905 330.074 308.669 330.343C306.485 331.888 304.536 330.981 302.621 329.805C296.808 325.941 290.625 323.387 283.804 322.211C280.948 321.707 278.125 321.438 275.168 321.068C275.269 323.253 275.269 325.302 273.354 325.941C271.035 326.848 268.448 327.621 265.86 326.075C258.132 321.438 249.899 317.977 241.129 315.894C232.493 313.844 223.992 310.484 214.852 311.122C214.079 311.122 213.172 311.122 212.399 310.988C210.215 310.484 207.997 309.711 205.813 309.207C196.673 307.124 187.399 305.477 178.226 303.125C172.816 301.714 167.54 300.806 162.13 300.941C152.587 301.075 143.044 301.21 133.501 301.344C131.956 301.344 130.679 301.344 129.771 302.89C129.402 303.528 128.495 303.898 127.722 304.167C112.265 309.711 100.638 319.892 92.6747 333.938C77.1841 361.021 75.9072 388.978 88.5416 417.574C89.4489 419.523 89.9529 421.438 89.5833 423.656C88.1384 432.157 85.4502 440.255 82.2244 448.253C82.2244 448.521 81.9556 449.025 81.8212 449.664ZM241.129 197.58C241.129 197.446 241.263 197.345 241.398 197.211C242.675 190.625 242.036 184.173 241.129 177.755C240.995 177.218 240.356 176.579 239.852 176.31C235.988 174.899 231.989 173.353 227.991 172.345C214.852 168.716 201.31 166.666 187.634 165.356C171.27 163.81 154.906 162.937 138.542 165.255C132.224 166.129 125.907 167.171 120.128 169.892C119.456 170.127 118.817 171.035 118.582 171.673C117.036 179.301 117.137 186.895 117.406 194.489C117.406 195.128 117.675 195.8 118.044 196.304C121.909 201.982 125.773 207.527 129.637 213.172C134.173 219.892 138.81 226.445 143.179 233.165C143.952 234.207 144.456 235.618 144.456 236.895C144.456 239.348 144.086 241.935 143.817 244.489C143.683 246.707 142.54 248.353 140.491 249.261C139.046 249.899 137.5 250.571 136.089 251.21C134.039 252.117 132.728 253.662 132.359 255.981C132.224 256.989 131.956 257.896 131.956 258.938C131.452 268.212 130.813 277.621 130.41 286.895C130.309 289.617 129.133 291.297 127.218 292.574C126.042 293.347 125.672 294.388 126.176 295.8C127.453 295.8 128.864 296.068 130.175 295.8C143.179 293.078 156.317 292.943 169.489 293.481C171.909 293.615 174.63 293.481 176.68 295.396C176.949 295.665 177.587 295.665 177.991 295.8C183.401 296.707 188.81 297.614 194.086 298.622C197.816 299.261 201.579 300.033 205.309 300.806C205.444 300.706 205.544 300.571 205.679 300.437C205.309 299.798 205.175 299.025 204.671 298.757C201.579 297.076 200.403 294.388 200.672 291.163C201.31 282.661 201.949 274.261 202.856 265.894C203.36 261.257 203.495 261.391 199.126 260.08C196.405 259.308 193.716 258.165 190.995 257.762C180.544 256.351 170.128 255.074 159.677 253.797C156.72 253.394 153.864 253.125 150.907 252.755C149.63 252.621 148.219 252.117 148.353 250.437C148.454 248.891 149.765 248.488 151.042 248.488C151.815 248.488 152.722 248.353 153.495 248.353C168.952 248.118 184.173 249.529 199.261 252.99C199.765 253.125 200.538 252.755 200.907 252.352C203.898 248.353 206.72 244.388 209.812 240.49C216.499 232.258 223.354 224.126 230.04 215.759C232.897 212.298 235.316 208.535 238.038 204.939C237.265 204.671 236.626 204.435 235.854 204.301C221.405 200.806 206.72 198.219 191.902 197.076C182.09 196.304 172.312 195.531 162.5 194.623C153.36 193.716 144.22 193.347 135.047 194.489C132.09 194.892 129.133 194.623 126.042 194.623C124.866 194.623 123.858 193.851 124.093 192.708C124.227 191.935 125.134 191.028 125.773 190.625C126.814 190.121 128.091 190.121 129.267 189.852C138.273 187.937 147.581 187.029 156.855 187.668C171.27 188.709 185.853 189.852 200.269 190.759C213.945 191.162 227.453 194.119 241.129 197.58ZM535.618 439.482C536.761 439.482 537.534 439.617 538.307 439.482C545.296 438.844 552.251 438.071 559.207 437.298C575.706 435.484 592.305 433.837 608.804 432.023C612.803 431.62 616.801 431.25 620.8 430.847C621.842 430.746 622.749 430.611 622.749 428.931C622.346 417.843 621.976 406.754 621.842 395.531C621.707 385.114 621.707 374.664 623.118 363.978C593.481 361.021 563.844 357.93 533.669 354.939C533.938 367.439 534.342 379.704 534.577 391.935C536.122 391.667 537.433 391.297 538.844 391.297C543.75 391.431 548.622 391.801 553.394 391.935C570.8 392.574 588.206 393.111 605.612 393.75C608.703 393.884 611.66 394.12 614.752 394.523C615.524 394.657 616.667 395.43 616.667 395.934C616.936 397.077 615.659 397.345 614.752 397.345C612.299 397.48 609.846 397.614 607.393 397.614C586.022 397.345 564.751 397.077 543.347 396.841C540.524 396.841 537.668 396.841 534.577 396.841C534.98 411.156 535.35 425.302 535.618 439.482ZM363.307 436.66C363.307 429.57 363.307 422.883 363.307 416.163C363.441 383.434 363.441 350.706 363.575 318.078C363.575 312.802 364.214 307.661 364.483 302.486C364.483 302.117 364.214 301.344 363.811 301.075C355.074 295.396 345.766 290.759 335.585 288.441C315.121 283.804 294.355 282.896 273.488 285.349C272.312 285.484 271.169 285.753 269.993 285.887C270.128 287.433 270.262 288.71 270.397 289.852C270.397 289.986 270.531 290.121 270.632 290.39C270.901 290.39 271.169 290.39 271.304 290.255C279.268 288.071 287.534 287.533 295.766 287.802C297.581 287.802 299.395 288.206 301.176 288.575C305.578 289.617 308.535 292.843 309.173 297.345C309.442 299.664 309.442 302.117 309.442 304.57C309.442 309.072 309.308 313.441 309.442 317.977C309.577 320.934 309.946 323.757 313.575 324.529C313.945 324.664 314.348 324.933 314.718 325.033C322.581 329.301 328.629 335.618 333.401 343.078C340.894 354.435 344.993 366.935 346.673 380.343C348.858 397.48 347.211 413.978 339.449 429.704C339.348 429.939 339.214 430.343 339.079 430.847C347.312 431.888 355.444 432.527 363.307 436.66ZM368.851 304.805C368.851 305.343 368.851 305.712 368.851 306.115C368.985 312.433 369.221 318.75 369.221 324.933C369.12 356.62 368.985 388.34 368.851 420.027C368.851 434.207 368.851 448.387 368.985 462.567C368.985 464.617 371.169 466.801 373.085 466.7C374.765 466.566 376.445 466.431 378.259 466.297C384.711 465.524 391.129 464.617 397.715 463.71C399.126 463.609 399.53 462.836 399.664 461.391C400.807 427.52 401.983 393.481 403.259 359.577C403.764 345.531 404.032 331.351 405.712 317.204C405.309 317.07 404.671 316.801 404.032 316.667C397.446 314.617 390.894 312.668 384.308 310.618C380.712 309.442 376.983 308.568 373.488 307.258C371.808 306.888 370.531 305.847 368.851 304.805ZM442.574 337.164C445.128 337.433 447.85 337.567 450.437 337.802C456.485 338.575 462.534 339.482 468.616 340.39C471.573 340.894 473.891 342.574 475.437 345.296C476.075 346.304 476.848 347.345 477.487 348.387C480.712 353.797 485.854 356.754 491.667 358.568C493.985 359.341 496.573 359.476 497.48 362.433C497.48 362.567 497.715 362.668 497.85 362.668C500.034 363.978 501.075 366.163 501.479 368.481C501.983 371.572 502.352 374.664 502.621 377.755C504.167 397.749 504.94 417.843 503.663 437.937C503.663 438.34 503.797 438.71 503.797 439.247C512.299 439.247 520.665 439.247 529.436 439.247C529.436 411.257 529.436 383.031 529.436 354.805C528.528 354.704 527.756 354.57 526.983 354.57C520.531 353.797 514.079 352.89 507.762 352.117C505.981 351.848 504.57 350.84 503.528 349.294C503.26 348.757 502.89 348.253 502.487 347.849C490.256 335.618 475.672 329.939 458.434 332.023C452.487 332.527 447.346 334.341 442.574 337.164ZM433.938 359.476C433.938 359.98 433.804 360.249 433.938 360.349C434.308 368.985 434.946 377.621 435.215 386.257C435.854 405.847 435.35 425.571 437.164 445.161C437.164 445.564 437.298 446.068 437.399 446.573C457.124 444.892 476.579 443.246 496.169 441.566C496.304 440.659 496.304 440.255 496.304 439.751C496.438 427.117 496.707 414.617 496.573 401.982C496.438 391.431 496.035 380.847 495.531 370.296C495.397 366.431 495.262 366.431 491.532 365.759C491.028 365.659 490.524 365.524 489.987 365.524C475.437 363.844 460.854 362.029 446.438 360.349C442.305 359.845 438.172 359.711 433.938 359.476ZM278.259 533.837C278.36 534.106 278.495 534.207 278.629 534.476C280.444 533.972 282.359 533.569 284.173 533.064C297.446 528.427 310.854 523.79 323.488 517.473C326.848 515.793 328.495 513.34 329.268 510.114C329.671 508.703 329.671 507.292 329.805 505.88C329.805 502.117 331.216 499.025 334.039 496.841C335.719 495.564 337.668 494.254 339.583 493.481C345.262 491.163 351.075 489.113 356.72 486.929C357.258 486.66 357.897 486.29 358.031 485.753C358.669 482.661 358.401 479.435 357.493 476.478C353.259 477.52 348.992 478.528 344.893 479.435C342.675 479.973 340.491 480.477 338.307 480.746C335.081 481.116 333.266 479.839 332.258 476.882C331.72 475.571 331.216 474.429 330.813 473.118C330.175 471.337 329.032 471.068 327.218 471.337C318.212 473.017 309.039 474.664 300.034 476.344C295.128 477.251 290.356 478.159 285.35 479.2C285.45 479.704 285.585 480.074 285.719 480.477C289.583 493.884 291.532 507.292 288.172 521.203C286.626 526.882 284.577 531.754 278.259 533.837ZM85.047 483.703C86.2231 483.837 86.8615 483.972 87.5 483.972C107.09 484.745 126.68 485.618 146.27 486.525C147.816 486.66 148.219 486.156 148.589 484.745C149.496 480.612 150.269 476.344 153.091 473.118C158.266 467.339 163.81 461.66 169.086 455.981C169.22 455.746 169.489 455.611 169.724 455.074C163.038 454.301 156.72 453.528 150.269 452.89C140.491 451.982 130.679 451.344 120.901 450.437C117.036 450.202 113.138 449.53 109.274 449.429C107.359 449.294 105.41 449.429 103.999 451.344C100.134 456.62 96.1357 461.929 92.4059 467.339C89.9529 470.8 87.9032 474.664 85.9543 478.427C85.1814 479.973 85.3158 481.888 85.047 483.703ZM412.03 340.39C410.618 376.478 409.308 412.298 407.897 448.253C415.356 447.749 422.581 447.211 430.074 446.707C430.074 446.337 430.208 445.8 430.208 445.296C430.309 436.257 430.444 427.251 430.444 418.347C430.444 398.757 430.444 379.066 430.309 359.476C430.309 358.938 430.074 358.3 429.671 358.031C423.219 354.167 418.985 348.757 417.809 341.163C415.894 340.894 413.945 340.658 412.03 340.39ZM496.438 333.938C501.21 337.802 505.343 342.07 508.938 346.841C509.207 347.211 509.846 347.345 510.35 347.345C519.12 348.118 527.89 348.757 536.761 349.664C567.204 352.621 597.48 355.578 627.89 358.703C629.167 358.804 630.477 358.804 631.754 358.804C631.754 358.703 631.889 358.568 631.889 358.3C630.847 357.527 629.839 356.62 628.663 355.847C619.523 350.067 609.577 346.169 599.026 344.12C598.522 343.985 597.984 344.254 597.48 344.254C596.069 344.388 594.758 344.892 593.347 344.758C588.206 344.388 582.93 343.75 577.756 343.212C555.074 340.658 532.527 338.071 509.98 335.618C505.444 335.114 500.941 334.442 496.438 333.938ZM253.36 473.656C257.762 483.3 261.223 493.38 262.668 503.931C264.214 514.617 262.265 525.067 258.77 535.652C266.532 532.157 273.488 528.797 280.04 524.429C280.444 524.16 280.948 523.79 281.082 523.253C281.989 519.254 283.905 515.155 283.669 511.156C283.132 501.982 281.72 492.843 280.175 483.703C279.402 478.931 277.218 474.429 275.806 470.027C272.312 470.43 269.22 470.934 266.129 471.203C261.761 471.573 257.359 471.438 253.36 473.656ZM268.078 318.615C268.179 318.481 268.313 318.481 268.448 318.347C267.944 317.843 267.54 317.204 267.036 316.801C264.315 314.751 263.038 312.164 263.038 308.804C262.903 301.21 262.668 293.481 262.668 285.887C262.668 284.072 262.13 283.031 260.719 281.989C253.763 276.848 245.766 275.168 237.265 275.302C232.762 275.437 228.36 276.579 223.858 278.125C224.765 280.981 225.806 283.535 226.579 286.122C227.587 289.348 229.267 292.171 231.72 294.624C235.316 298.387 236.492 302.486 234.039 307.023C245.397 310.887 256.72 314.751 268.078 318.615ZM229.032 535.517C233.132 535.517 236.862 535.517 240.759 535.517C243.851 535.517 246.808 535.753 249.899 535.887C251.311 535.887 252.218 535.383 252.487 533.972C252.991 531.754 253.763 529.57 254.402 527.386C256.855 520.296 256.989 512.937 256.082 505.612C255.444 500.571 254.032 495.564 252.856 490.659C251.714 485.887 250.269 481.116 248.992 476.21C248.858 476.109 248.589 475.974 248.488 475.84C247.95 476.613 247.446 477.251 246.942 478.024C244.724 481.25 242.675 484.61 240.491 487.836C239.18 489.751 238.542 491.431 239.852 493.884C241.633 497.48 241.532 501.613 240.995 505.612C240.625 508.703 239.18 510.887 236.626 512.433C235.854 512.836 235.215 513.34 234.442 513.609C232.762 514.247 231.855 515.524 231.586 517.339C230.813 523.253 229.906 529.335 229.032 535.517ZM154.536 486.391C155.04 486.525 155.175 486.66 155.309 486.66C167.54 487.298 179.772 487.836 192.171 488.474C193.582 488.474 194.489 487.836 194.859 486.391C195.901 482.796 196.808 479.2 198.085 475.571C199.496 471.438 202.587 469.019 206.586 467.843C207.863 467.473 209.308 467.339 210.854 466.935C209.543 465.02 207.628 464.247 205.544 463.978C199.126 463.206 192.675 462.567 186.223 461.929C184.173 461.66 182.09 461.525 179.772 461.29C179.772 462.164 179.772 462.836 179.772 463.609C179.671 469.12 179.536 474.664 179.402 480.208C179.402 481.25 179.133 482.527 178.495 483.199C177.856 483.972 176.546 484.745 175.538 484.61C174.63 484.476 173.589 483.434 172.95 482.661C172.581 482.157 172.581 481.116 172.681 480.208C173.454 473.891 174.227 467.574 175.269 461.391C175.672 459.341 175.134 458.165 173.353 457.157C169.355 461.525 165.356 465.927 161.492 470.43C159.946 472.11 158.535 473.891 157.09 475.706C156.586 476.344 156.216 477.251 155.948 478.024C155.41 480.612 155.04 483.434 154.536 486.391ZM294.859 468.347C297.312 461.391 302.083 457.527 308.905 457.023C315.491 456.519 321.539 457.796 325.034 465.02C325.403 463.978 325.538 463.474 325.807 462.836C326.949 459.61 328.898 457.023 332.258 455.746C337.534 453.663 343.078 453.528 348.488 454.839C349.899 455.074 350.941 455.847 351.311 457.392C351.311 457.661 351.445 457.93 351.714 458.165C355.175 461.29 356.855 465.39 357.762 469.892C357.897 470.564 358.669 471.068 359.039 471.573C360.215 472.883 361.492 474.025 362.534 475.336C363.172 476.109 363.307 477.251 363.676 478.159C378.259 475.706 392.944 476.109 407.762 474.798C406.989 467.204 409.073 460.249 411.122 453.293C410.081 453.159 408.938 452.89 407.762 452.755C407.628 453.159 407.628 453.427 407.628 453.663C407.527 457.292 407.393 460.887 407.258 464.382C407.124 467.204 404.94 469.523 402.218 470.296C393.347 472.614 384.173 473.118 375.034 473.79C369.758 474.16 365.625 472.883 363.575 467.473C363.441 467.204 363.307 467.07 363.172 466.801C360.988 463.978 359.173 460.618 355.578 459.207C355.074 458.938 354.536 458.165 354.402 457.527C354.167 456.384 354.032 455.074 354.032 453.931C354.032 451.882 354.032 449.664 354.032 447.48C353.125 447.614 352.352 447.749 351.579 447.883C343.985 449.025 336.358 450.302 328.763 451.21C318.313 452.52 307.762 453.159 297.312 454.57C291.667 455.343 288.038 459.341 284.677 463.844C288.945 463.474 292.305 464.617 294.859 468.347ZM275.672 316.163C285.35 315.39 294.758 317.843 303.898 322.48C304.032 321.707 304.268 321.169 304.268 320.531C304.167 313.71 304.032 306.754 303.898 299.933C303.898 298.253 302.722 297.076 301.176 296.572C299.496 296.068 297.715 295.531 296.035 295.531C287.769 295.396 279.536 295.531 271.169 295.531C271.035 295.531 271.035 295.665 271.035 295.665C271.035 300.706 271.035 305.578 271.035 310.349C271.035 310.753 271.405 311.122 271.673 311.525C272.95 312.937 274.126 314.348 275.672 316.163ZM420.262 341.163C421.808 344.892 423.219 348.253 425.807 350.84C428.259 353.259 431.216 355.074 434.711 355.343C447.984 356.115 461.391 356.754 474.664 357.527C475.168 357.527 475.672 357.527 476.21 357.527C474.899 355.712 473.622 354.167 472.581 352.486C469.12 347.076 469.12 346.841 462.668 345.8C454.301 344.523 445.901 343.615 437.534 342.708C431.989 342.204 426.311 341.801 420.262 341.163ZM363.172 283.938C361.492 278.528 359.039 276.478 354.032 275.437C345.397 273.622 336.626 273.253 327.856 272.581C312.903 271.572 297.95 272.076 283.132 273.488C282.493 273.488 281.586 273.891 281.485 274.395C280.813 276.075 280.444 277.755 279.906 279.57C280.309 279.671 280.444 279.671 280.578 279.671C291.532 278.259 302.487 278.259 313.575 278.797C315.759 278.898 318.078 279.301 320.262 279.167C329.671 278.394 338.945 279.671 348.085 281.216C352.991 282.124 358.031 283.031 363.172 283.938ZM455.847 451.882C448.891 452.755 441.532 451.613 434.442 453.024C431.754 453.528 429.032 453.528 426.075 453.797C428.898 458.3 429.167 463.34 429.536 468.347C429.536 469.254 429.671 470.296 429.805 471.203C429.94 472.48 430.309 473.017 431.855 472.749C437.399 471.337 443.078 470.027 448.622 468.616C449.395 468.347 450.437 467.574 450.672 466.801C452.352 461.929 454.032 457.023 455.847 451.882ZM208.266 273.118C208.266 273.118 208.132 273.253 208.132 273.353C207.997 279.435 207.863 285.349 207.863 291.398C207.863 291.801 208.132 292.305 208.535 292.574C211.862 294.624 212.903 297.849 212.903 301.478C212.903 302.486 213.172 303.125 214.315 303.259C217.406 303.663 220.397 304.167 223.488 304.301C224.63 304.435 226.579 304.167 226.949 303.528C227.722 302.117 226.311 300.941 225.403 299.933C222.715 297.076 220.632 293.985 219.489 290.255C218.313 286.391 216.902 282.661 215.86 278.797C214.583 275.033 212.265 273.118 208.266 273.118ZM563.441 441.801C552.251 441.7 541.667 443.111 530.847 445.43C532.661 447.984 534.342 450.571 536.122 452.755C536.761 453.528 538.071 454.066 538.979 453.931C545.296 452.89 551.479 451.747 557.661 450.571C558.3 450.437 558.938 450.067 559.342 449.664C560.753 447.211 561.895 444.657 563.441 441.801ZM494.254 448.891C485.753 449.933 477.621 450.84 469.758 451.747C470.665 455.612 471.573 459.61 472.581 463.609C478.528 463.071 484.207 461.66 489.751 459.61C490.39 459.341 491.028 458.568 491.297 457.93C492.44 454.973 493.212 452.117 494.254 448.891ZM356.485 288.575C360.215 290.625 363.945 292.439 367.574 294.624C370.766 296.572 373.622 299.16 376.579 301.344C377.352 301.848 377.991 302.486 378.898 302.755C387.937 305.074 397.077 307.258 406.082 309.576C406.485 309.711 406.855 309.711 407.628 309.845C392.305 297.984 374.261 293.716 356.485 288.575ZM352.991 494.926C347.984 496.707 343.448 498.253 338.811 499.933C338.441 500.067 337.802 500.84 337.903 501.21C338.575 505.477 339.079 509.845 341.532 513.609C343.078 516.062 346.539 515.927 347.715 513.34C350.538 507.661 351.579 501.478 352.991 494.926ZM582.393 441.297C583.3 443.347 583.938 445.161 584.846 446.976C585.114 447.48 586.022 447.883 586.526 447.883C593.481 448.118 600.168 447.48 606.889 445.564C609.98 444.657 611.122 442.977 611.122 439.617C601.613 440.255 592.204 440.793 582.393 441.297ZM273.354 536.66C269.624 538.071 265.995 539.382 262.265 540.793C262.534 541.566 262.769 542.339 263.038 543.112C264.079 545.934 265.995 547.883 269.086 547.749C273.488 547.614 277.856 547.48 282.258 547.245C283.031 547.245 283.804 546.976 284.442 546.841C283.401 544.926 282.359 543.112 281.351 541.297C281.216 540.927 280.679 540.524 280.309 540.659C277.083 541.163 274.63 539.886 273.354 536.66ZM418.582 483.972C417.036 474.664 415.625 465.659 420.531 457.157C418.481 457.157 416.264 457.157 414.214 457.157C413.811 457.157 413.441 457.661 413.307 458.064C412.937 459.476 412.668 461.021 412.399 462.567C411.391 468.884 411.257 475.067 413.811 481.116C415.255 483.972 415.625 484.073 418.582 483.972ZM500.437 450.302C506.889 450.571 513.206 450.84 519.489 451.109C520.161 449.025 520.8 446.976 521.438 444.892C515.39 444.657 509.308 444.254 503.394 444.019C502.487 445.934 501.579 447.984 500.437 450.302ZM462.937 474.664C460.618 467.339 461.895 460.249 465.255 453.427C465.491 453.024 465.121 452.251 464.987 451.478C461.257 453.797 458.804 456.62 457.897 460.618C457.124 464.113 456.082 467.574 455.208 470.934C455.074 471.337 455.208 471.707 455.309 472.11C456.485 474.429 460.35 475.706 462.937 474.664ZM343.716 459.341C337.399 457.292 329.402 458.434 328.763 464.382C334.577 465.02 335.988 469.892 338.307 474.429C339.214 466.801 340.222 464.247 343.716 459.341ZM423.118 459.073C422.85 459.073 422.581 459.073 422.346 459.073C419.489 466.7 420.128 474.294 422.581 481.888C423.118 483.703 425.168 483.837 426.445 482.292C427.352 481.116 427.89 479.57 428.394 478.159C428.528 477.655 428.125 476.747 427.755 476.344C426.075 475.067 424.899 473.521 424.53 471.438C424.126 469.657 424.126 467.708 423.992 465.927C423.622 463.71 423.354 461.391 423.118 459.073ZM352.218 471.203C351.714 468.112 351.848 465.02 349.765 462.433C348.219 460.618 347.077 460.383 345.901 462.567C344.22 465.524 343.078 468.75 341.667 471.976C341.398 472.48 341.398 473.017 341.264 473.656C344.993 472.883 348.488 472.11 352.218 471.203ZM578.797 443.75C577.89 446.976 577.117 450.202 577.621 453.427C578.024 455.847 578.663 458.3 581.116 459.61C581.62 459.845 582.527 459.98 583.031 459.711C585.114 458.568 586.257 456.754 586.391 454.301C586.526 453.159 586.122 452.52 584.846 452.251C582.796 451.982 581.351 450.84 580.578 448.891C579.94 447.211 579.436 445.564 578.797 443.75ZM528.024 446.337C525.168 446.976 523.253 448.253 522.984 449.664C522.077 454.066 522.346 458.165 524.799 462.063C525.706 463.474 527.117 464.113 529.032 464.247C525.571 459.341 525.706 454.435 527.352 449.294C527.621 448.521 527.756 447.48 528.024 446.337ZM529.301 449.664C529.167 450.302 529.167 450.974 529.032 451.613C528.394 455.746 529.436 459.341 532.124 462.567C533.434 463.978 534.577 463.609 535.887 462.702C537.164 461.794 538.206 459.61 537.668 458.837C537.534 458.568 537.164 458.568 537.03 458.3C535.887 457.392 534.442 456.754 533.569 455.746C531.889 453.797 530.712 451.747 529.301 449.664ZM576.344 459.341C573.118 453.159 574.664 447.345 576.983 441.566C575.706 441.566 574.664 441.566 573.622 441.566C573.387 441.566 572.85 441.935 572.749 442.204C571.438 447.345 571.069 452.386 572.749 457.527C573.253 459.073 574.53 459.476 576.344 459.341ZM472.346 468.481C470.262 468.347 468.481 467.843 467.809 465.793C467.44 464.617 467.171 463.34 467.036 462.063C466.801 460.484 466.667 458.938 466.398 457.527C464.987 462.567 464.079 467.574 466.028 472.614C466.667 474.294 467.944 474.664 469.489 473.656C471.169 472.48 471.942 470.665 472.346 468.481ZM296.942 470.161C299.899 469.523 302.722 468.884 305.578 468.112C305.813 467.977 306.351 467.843 306.351 467.574C307.258 465.524 308.031 463.609 308.804 461.525C301.848 461.66 299.395 463.844 296.942 470.161ZM297.581 535.887C293.212 537.298 289.214 538.609 284.677 540.02C286.122 541.431 287.265 542.708 288.542 543.616C290.356 544.926 291.902 544.657 293.448 543.112C295.531 541.297 296.405 538.844 297.581 535.887ZM362.802 442.339C362.668 442.339 362.668 442.339 362.668 442.339C361.122 443.75 359.039 444.892 358.401 446.573C357.762 448.253 358.804 450.571 359.039 452.655C359.442 455.746 359.442 455.847 362.903 456.754C362.802 451.882 362.802 447.11 362.802 442.339ZM550.437 457.93C550.941 460.484 552.756 461.391 554.94 461.929C556.62 462.298 558.031 461.66 558.938 460.383C560.114 458.703 560.887 456.888 561.895 454.839C557.897 455.981 554.167 457.023 550.437 457.93ZM335.215 502.386C335.081 502.386 334.946 502.386 334.812 502.386C334.173 507.426 333.535 512.567 332.897 517.843C334.946 517.607 337.265 517.339 339.852 517.07C336.492 512.433 335.585 507.426 335.215 502.386ZM280.444 470.161C281.216 471.438 281.855 472.614 282.628 473.656C282.897 473.891 283.401 474.16 283.804 474.16C285.988 473.387 288.172 472.614 290.356 471.841C287.668 468.481 283.905 467.843 280.444 470.161ZM601.21 451.882C601.613 454.839 602.89 456.519 604.57 456.384C606.754 456.25 608.165 454.066 608.165 450.706C605.847 451.109 603.663 451.478 601.21 451.882ZM492.305 465.02C489.751 465.659 487.399 466.297 485.081 466.801C485.081 469.019 486.626 470.43 488.945 470.665C490.625 470.8 491.801 469.019 492.305 465.02ZM304.402 536.156C307.493 535.517 310.45 534.98 313.575 534.341C312.668 532.93 311.996 532.023 311.223 530.981C309.577 531.653 307.897 532.426 306.082 532.93C304.805 533.3 304.167 534.106 304.402 536.156ZM448.757 474.664C445.665 475.336 443.347 475.974 440.625 476.478C441.163 477.386 441.398 478.024 441.801 478.663C443.481 480.981 445.262 480.981 446.808 478.528C447.581 477.52 448.118 476.344 448.757 474.664ZM314.583 529.435C316.768 532.426 318.985 532.426 320.901 529.704C321.808 528.427 322.446 527.016 323.354 525.571C323.219 525.47 323.085 525.47 323.085 525.336C320.128 526.613 317.44 528.024 314.583 529.435ZM476.983 471.707C478.797 471.438 480.578 471.337 482.527 471.068C482.393 469.657 482.124 468.481 481.989 467.473C477.755 467.473 477.352 467.708 476.983 471.707ZM595.296 452.52C595.027 456.62 596.976 459.207 599.395 458.165C598.891 456.25 598.387 454.301 597.85 452.251C597.077 452.386 596.203 452.386 595.296 452.52ZM547.211 458.064C546.169 458.165 545.027 458.3 543.851 458.434C544.624 462.063 546.169 463.474 548.891 463.071C548.387 461.391 547.85 459.845 547.211 458.064ZM311.626 466.431C311.761 466.566 311.761 466.7 311.895 466.801C314.079 466.431 316.263 465.927 318.985 465.39C317.54 464.382 316.667 463.609 315.625 462.937C315.222 462.702 314.449 462.836 314.214 463.071C313.172 464.113 312.399 465.39 311.626 466.431ZM437.937 480.343C437.668 478.931 437.399 478.024 437.164 476.882C436.122 476.982 435.081 476.982 434.173 477.117C433.804 477.251 433.401 477.655 433.3 478.024C433.165 478.293 433.535 478.797 433.938 478.931C435.081 479.435 436.257 479.839 437.937 480.343Z" fill="#5D4037"/>
</g>
<mask id="mask1_55_648" style="mask-type:luminance" maskUnits="userSpaceOnUse" x="146" y="0" width="345" height="167">
<path d="M146.237 0H490.323V166.264H146.237V0Z" fill="white"/>
</mask>
<g mask="url(#mask1_55_648)">
<path d="M427.621 38.3065C429.805 38.3065 431.989 37.7689 433.804 38.4409C444.489 42.0363 450.571 49.8992 450.437 61.1224C450.437 62.5337 450.672 63.1721 451.983 63.6761C454.94 64.8522 457.258 66.9019 459.207 69.4893C459.711 70.2622 460.215 70.6318 461.391 70.3966C465.121 69.3549 468.717 70.1278 472.077 71.9423C474.799 73.3536 477.487 75.0337 479.94 76.8482C484.442 80.0404 486.122 84.9463 486.761 90.121C487.399 95.3966 487.299 100.538 485.618 105.578C483.031 113.038 477.756 117.944 470.934 121.539C470.161 121.942 469.254 122.85 468.985 123.757C465.76 132.393 457.628 138.441 449.026 137.668C445.8 137.399 443.851 138.307 441.532 140.356C435.081 145.901 427.487 148.858 419.12 149.765C412.937 150.437 407.124 148.992 401.714 146.169C399.126 144.893 397.346 142.944 395.8 140.491C395.531 140.121 394.758 139.583 394.355 139.718C387.399 141.398 381.721 139.483 377.352 133.669C373.085 135.854 368.448 137.399 363.676 138.038C359.946 138.575 356.351 138.441 352.722 137.265C348.354 135.988 344.993 133.266 342.809 129.032C336.761 133.031 330.309 135.215 323.085 133.669C315.894 132.124 310.45 128.394 308.266 120.901C306.586 121.169 304.94 121.304 303.125 121.539C303.125 122.312 303.259 122.984 303.259 123.622C303.764 134.711 296.169 144.355 285.215 146.035C282.493 146.438 279.536 145.531 276.714 145.262C276.042 145.262 275.269 145.262 274.899 145.665C267.675 152.352 257.762 153.764 248.992 149.395C248.858 149.53 248.589 149.664 248.589 149.765C246.539 153.764 243.078 156.082 238.676 157.124C232.897 158.669 227.083 158.804 221.539 155.847C220.497 155.175 219.489 154.402 218.448 153.764C215.995 151.983 213.542 149.899 210.988 148.219C205.813 144.993 199.126 145.901 194.59 150.168C194.086 150.538 193.716 151.21 193.179 151.579C192.54 151.983 191.902 152.218 191.129 152.487C190.726 151.714 189.953 150.807 190.222 150.168C190.726 148.219 191.633 146.539 192.54 144.758C192.809 144.221 193.313 143.716 194.086 142.809C192.406 142.171 191.129 141.398 189.583 141.129C186.089 140.759 182.762 141.129 179.536 142.44C178.763 142.809 178.226 143.716 177.587 144.355C176.815 144.993 176.176 146.035 175.269 146.035C174.63 146.035 173.454 145.128 173.219 144.355C172.581 142.171 171.035 141.129 168.952 140.76C163.811 139.718 160.954 140.759 159.039 146.035C158.535 147.581 158.132 147.715 156.72 146.942C152.319 144.758 151.546 140.76 150.773 136.492C149.362 129.402 150.403 122.715 153.864 116.398C158.636 107.762 165.995 105.04 175.269 108.669C175.403 108.535 175.538 108.266 175.538 108.031C176.546 102.083 179.906 97.4463 184.409 93.5821C185.316 92.8092 185.45 92.0364 185.316 90.8939C185.181 88.3065 185.181 85.4503 185.854 83.031C189.583 69.9933 198.589 62.6681 211.358 59.6775C215.995 58.535 220.397 60.2151 224.63 62.3993C225.134 62.6681 225.672 62.9033 226.311 63.3065C230.679 54.5363 238.307 50.4033 247.177 47.9503C256.351 45.531 264.987 46.1694 272.85 52.2178C272.95 51.4449 273.219 51.0417 273.219 50.6721C275.034 40.0874 285.081 29.8052 295.262 27.7218C298.992 26.949 301.949 27.3522 306.485 28.8979C308.669 23.2191 311.895 18.3132 318.212 16.5323C324.395 14.7178 329.94 15.4906 334.711 19.9933C342.809 10.0807 352.991 3.76347 365.491 1.31051C371.304 0.134436 376.983 0.672075 382.493 2.7218C388.71 5.04035 393.347 9.17342 396.035 15.7594C403.898 11.0888 411.492 11.7608 418.582 17.1707C425.303 22.4463 430.208 28.6291 427.621 38.3065ZM448.757 68.4476C448.354 69.0861 448.118 69.6237 447.85 70.1278C445.262 75.5377 441.163 79.1667 435.719 81.3509C435.215 81.4853 434.711 81.4853 434.174 81.4853C434.308 80.9477 434.308 80.3092 434.577 79.9396C435.215 78.8979 435.988 77.8562 436.492 76.8482C438.441 73.0847 440.76 69.3549 442.036 65.4907C444.489 57.8966 443.582 50.8065 437.03 45.2621C435.081 43.582 433.031 41.9019 430.208 41.9019C427.218 41.9019 424.395 41.9019 422.346 44.4893C421.573 45.3966 420.262 45.6318 419.489 44.6237C418.985 43.9517 419.254 42.6748 419.254 41.7675C419.254 41.3979 419.758 40.9947 419.893 40.625C422.346 36.492 421.942 32.3589 419.254 28.4947C418.078 26.8146 416.532 25.2689 415.121 23.992C410.484 19.6237 405.074 18.3132 398.992 20.1277C397.715 20.4974 397.211 20.9006 397.346 22.4463C397.446 25.9409 396.808 29.2675 394.758 32.1237C394.489 32.4933 393.985 32.6277 393.448 32.8966C393.212 32.4933 392.944 31.9893 392.809 31.5861C391.532 27.7218 390.491 23.7232 388.945 19.8589C387.265 15.7594 384.173 12.9033 380.309 10.9879C376.21 8.9046 371.673 7.99734 367.171 8.40057C356.62 9.30782 347.715 14.2138 339.449 20.6318C338.575 21.4046 337.903 22.8159 337.534 23.992C336.895 25.6721 335.854 26.1761 334.308 25.1681C333.401 24.496 332.493 23.7232 331.586 22.8159C330.04 21.1694 328.125 20.4974 325.941 20.4974C318.212 20.6318 313.307 25.6721 311.223 32.4933C311.122 32.9974 311.358 33.9046 311.626 34.4422C312.668 35.988 311.626 36.6264 310.45 37.3992C309.442 38.1721 308.266 38.1721 307.628 37.2648C306.586 35.8535 305.309 35.9879 303.898 35.9879C302.352 36.1224 300.807 36.2232 299.395 36.3576C289.718 37.5336 280.309 47.1775 279.805 56.082C279.805 56.9893 279.536 57.8966 279.268 58.6694C278.898 59.9463 277.991 60.8536 276.445 61.1224C275.034 61.2232 273.992 60.5847 273.219 59.4423C269.993 54.6708 265.625 51.4449 259.946 50.9409C250.403 50.1681 241.633 52.8562 234.442 59.4423C231.989 61.6264 230.578 64.5834 229.906 67.8092C229.133 71.3038 227.352 72.3119 223.992 71.035C221.808 70.2622 219.725 69.2205 217.675 68.3132C215.222 67.3052 212.634 66.9019 210.081 67.5404C199.496 70.3966 191.902 76.5794 189.315 87.6681C189.18 88.4409 189.079 89.0794 188.945 90.121C189.449 89.8522 189.718 89.8522 189.953 89.7178C195.262 87.0296 200.806 85.5848 206.72 85.0807C211.862 84.5767 216.263 86.492 219.624 90.2219C222.581 93.5821 223.992 97.3119 221.942 101.714C221.673 102.218 221.27 102.722 220.901 103.259C220.397 102.856 219.725 102.487 219.355 101.949C218.179 100.168 217.171 98.2192 215.995 96.4046C214.18 93.5821 211.761 91.6667 208.401 91.6667C199.261 91.6667 191.129 94.3549 184.543 100.941C180.948 104.671 179.268 109.039 179.402 114.214C179.402 114.987 179.671 115.894 179.536 116.667C179.402 118.851 177.587 119.758 175.773 118.716C175.269 118.448 174.765 117.944 174.227 117.54C169.993 113.441 163.676 113.811 159.946 118.347C155.175 124.261 153.495 131.082 154.402 138.575C154.637 140.121 155.175 141.667 155.544 143.448C155.948 143.078 156.082 143.078 156.082 142.944C159.677 135.215 168.817 133.266 175.269 138.945C175.672 139.214 176.445 139.214 176.949 139.214C179.772 138.71 182.493 137.803 185.316 137.534C189.18 137.03 193.044 137.534 195.632 141.264C196.405 140.894 197.043 140.491 197.681 140.121C208.132 134.812 215.86 141.801 218.179 148.858C218.313 149.261 218.716 149.765 219.086 150.034C226.042 154.167 238.307 152.083 242.406 145.397C243.179 144.12 244.489 142.944 245.497 141.902C246.27 141.129 246.942 141.398 247.816 142.036C248.858 142.944 250.034 143.851 251.311 144.221C257.359 145.901 262.903 144.624 267.809 140.76C270.397 138.71 272.077 135.484 271.304 131.989C269.624 124.765 262.399 121.673 255.578 124.899C255.04 125.168 254.402 125.168 253.898 125.168C253.898 124.53 253.495 123.622 253.764 123.219C254.536 122.077 255.578 120.901 256.586 119.993C257.628 119.221 258.905 118.716 260.215 118.212C259.543 115.625 258.132 114.348 255.309 113.811C250.807 112.903 246.405 113.676 242.171 115.491C241.532 115.759 240.86 115.995 240.222 116.264C239.718 114.583 240.491 113.676 241.398 112.803C243.851 110.215 247.043 108.804 250.403 107.897C250.941 107.762 251.714 107.359 251.949 106.989C253.259 103.495 254.133 99.8993 253.495 96.1694C252.991 93.078 251.042 90.6251 248.354 89.2138C246.169 88.0377 244.086 88.4409 242.171 89.9866C241.532 88.1721 242.305 87.1305 243.582 86.2232C246.405 84.3079 249.261 84.3079 252.218 85.8536C259.308 89.449 262.399 97.984 259.543 105.813C259.308 106.485 259.039 107.124 258.77 107.897C263.172 109.173 265.759 112.03 265.86 116.398C265.995 117.809 266.398 118.347 267.675 118.716C273.219 120.531 277.083 125.403 277.083 130.712C277.083 133.938 277.083 137.13 277.083 140.491C278.36 140.356 279.671 140.356 280.948 140.121C289.449 138.575 296.539 127.856 294.355 119.12C293.448 115.625 291.768 113.441 288.542 112.265C286.122 111.358 283.905 111.358 281.351 113.441C281.485 112.13 281.485 111.257 281.721 110.585C282.493 108.535 284.173 107.493 286.223 107.124C292.809 105.948 298.723 109.711 300.538 116.129C300.538 116.398 300.672 116.532 300.941 116.902C304.536 115.894 307.897 114.718 309.812 111.257C312.399 106.351 311.996 101.176 310.854 95.7662C310.215 96.1694 309.812 96.4046 309.308 96.6735C308.132 97.3119 306.989 97.7151 305.813 96.6735C304.805 95.6318 305.04 94.3549 305.712 93.2124C306.216 92.1708 306.989 90.9947 307.628 90.121C310.988 85.0807 311.223 80.1748 307.493 75.1681C306.485 73.8576 305.712 72.4463 304.671 71.1694C304.805 70.9006 304.805 70.7662 304.94 70.531C305.813 70.6318 306.855 70.6318 307.762 71.035C313.172 73.488 317.44 80.8132 315.894 86.7608C314.987 90.1211 315.625 92.4396 317.036 95.2622C318.313 97.8495 318.716 100.941 319.489 104.032C319.355 104.032 319.489 104.032 319.758 104.032C329.167 104.402 337.03 93.5821 333.669 84.6775C333.535 84.3079 333.938 83.4006 334.173 83.2662C334.946 83.031 335.854 83.031 336.492 83.1318C338.811 83.9046 339.987 85.7192 340.625 87.9033C343.212 95.3966 339.449 104.167 332.258 107.628C327.856 109.711 323.354 110.719 318.448 109.173C317.44 113.676 315.121 117.171 310.854 119.221C312.668 123.085 315.491 125.538 319.355 126.714C327.722 129.167 334.812 126.714 341.264 121.169C342.809 119.758 344.221 118.347 345.665 116.768C346.438 115.894 346.942 116.129 347.446 116.902C348.622 118.985 348.354 120.901 347.312 122.984C346.035 125.807 346.035 126.176 348.622 127.856C349.899 128.764 351.579 129.402 353.125 129.805C356.351 130.712 359.711 130.444 362.903 129.805C372.581 127.856 380.444 123.622 384.039 113.811C384.308 113.307 384.711 112.803 384.946 112.265C385.215 112.399 385.35 112.399 385.618 112.534C389.214 120.128 386.391 126.176 380.309 131.855C381.989 132.628 383.266 133.401 384.711 133.938C390.894 135.719 397.581 132.628 400.672 126.714C401.445 125.303 402.218 123.858 403.125 122.581C403.528 122.077 404.536 121.438 405.074 121.539C405.712 121.673 406.754 122.581 406.855 123.219C407.124 124.765 407.124 126.579 406.754 128.125C405.847 131.855 403.629 134.812 400.168 137.265C401.579 138.172 402.621 139.079 403.764 139.483C408.938 141.532 414.214 142.305 419.624 141.264C432.258 138.71 441.264 131.216 448.253 120.766C449.026 119.624 449.664 118.448 450.437 117.44C450.672 117.171 451.075 116.902 451.445 116.902C451.714 116.902 451.983 117.54 451.983 117.809C451.848 119.893 451.848 121.942 451.445 123.992C451.075 126.311 450.303 128.528 449.664 130.847C450.303 130.712 450.941 130.578 451.445 130.309C456.754 128.629 460.081 124.765 461.895 119.758C463.575 115.121 464.617 110.35 466.028 105.578C466.163 105.175 466.398 104.805 466.532 104.268C468.717 105.175 469.758 106.855 470.161 108.938C470.531 110.854 470.665 112.903 470.934 114.987C471.17 114.852 471.304 114.718 471.438 114.583C471.707 114.348 472.077 114.079 472.346 113.676C479.436 106.351 480.847 97.5807 478.394 88.0377C477.991 86.3576 476.983 84.5767 475.672 83.6694C472.581 81.3509 469.254 79.2676 465.894 77.3522C464.852 76.7138 463.441 76.7138 461.895 76.3106C462.803 81.2165 461.626 85.2151 459.846 89.2138C458.669 91.6667 457.124 93.7165 454.805 95.2622C453.898 95.7662 452.89 96.035 451.579 96.5391C452.756 92.3052 453.898 88.6762 454.671 84.9463C456.082 77.9907 454.436 72.5807 448.757 68.4476Z" fill="#5D4037"/>
</g>
<path d="M132.729 569.926C137.769 569.657 142.675 569.523 147.312 569.288C148.723 561.526 150.907 554.2 153.226 546.976C157.225 534.476 161.492 522.245 165.592 509.845C165.995 508.569 166.633 507.292 167.406 506.25C167.944 505.612 169.221 504.839 169.859 505.108C170.632 505.343 171.674 506.384 171.674 507.292C171.808 508.972 171.674 510.887 171.27 512.567C168.817 522.749 166.264 533.065 163.811 543.246C161.627 551.747 159.409 560.249 157.359 568.616C162.769 568.616 168.179 568.616 173.589 568.616C172.581 564.886 173.858 561.66 174.631 558.434C178.495 542.708 182.493 527.117 186.492 511.391C186.627 511.022 186.727 510.753 186.727 510.383C187.534 508.3 188.811 507.426 190.491 507.661C192.171 507.93 193.313 509.341 193.045 511.526C192.809 514.382 192.406 517.204 191.902 519.926C188.945 533.569 185.854 547.245 182.762 560.887C182.225 563.34 181.721 565.659 181.217 568.38C182.863 568.38 184.678 568.38 186.358 568.38C188.307 568.38 190.088 568.38 192.037 568.515C193.179 568.515 193.448 568.246 193.717 567.07C196.539 550.47 199.261 533.703 203.629 517.339C204.133 515.39 204.671 513.609 205.309 511.794C206.082 509.745 207.225 508.837 208.905 509.073C210.451 509.341 211.627 510.618 211.358 512.836C211.089 517.204 210.719 521.573 209.946 525.975C207.762 540.02 205.309 553.931 202.991 567.977C202.218 572.614 200.807 574.16 196.035 574.698C184.039 575.706 172.043 576.747 160.081 577.251C142.406 578.024 124.631 578.427 106.956 579.066C97.1776 579.469 87.3658 579.973 77.5875 580.477C72.1776 580.746 69.4558 577.52 71.1359 572.48C73.5889 565.524 76.5459 558.703 79.2676 551.747C85.7192 535.652 93.3133 520.161 101.68 504.973C102.319 503.663 102.957 501.983 104.906 502.655C106.956 503.293 106.452 505.108 106.082 506.519C105.04 509.98 103.999 513.474 102.722 516.936C95.6319 534.61 88.5418 552.251 81.4518 570.061C81.183 570.699 80.9477 571.472 80.5445 572.48C81.4518 572.48 81.9558 572.48 82.5942 572.48C86.7273 572.379 90.8604 572.11 94.9934 572.11C96.4047 572.11 96.9088 571.472 97.4464 570.161C104.906 549.563 112.265 528.663 121.405 508.703C122.043 507.292 122.682 505.746 123.589 504.57C124.227 503.797 125.538 503.024 126.311 503.293C127.084 503.427 127.991 504.704 128.092 505.612C128.36 506.888 128.092 508.3 127.722 509.61C126.68 513.206 125.672 516.835 124.362 520.43C118.683 536.794 113.038 553.159 107.359 569.388C107.09 570.061 106.956 570.565 106.721 571.337C107.225 571.337 107.493 571.472 107.729 571.472C112.366 571.203 116.902 571.069 121.539 570.699C122.043 570.699 122.682 570.161 122.816 569.792C124.227 564.886 125.403 559.98 127.084 555.242C131.956 541.7 137.131 528.159 142.137 514.751C143.179 511.794 144.355 508.972 145.498 505.981C145.766 505.208 146.539 504.436 147.178 504.066C148.454 503.427 150 504.2 150.135 505.88C150.269 507.527 150.135 509.207 149.899 510.887C147.816 522.245 144.086 533.065 140.491 544.019C137.769 552.386 135.316 560.753 132.729 569.153C132.729 569.153 132.729 569.388 132.729 569.926Z" fill="#5D4037"/>
<path d="M49.8655 573.387C51.176 569.019 52.4528 564.886 53.6289 560.753C58.6356 542.339 64.3144 524.16 70.8668 506.25C71.1356 505.477 71.5389 504.57 71.9085 503.797C72.5469 502.655 73.4542 501.747 74.8655 502.117C76.3104 502.52 76.68 503.663 76.68 504.973C76.68 505.981 76.5456 507.023 76.3104 508.065C73.5886 518.885 70.766 529.57 67.9098 540.39C64.8184 552.252 61.5926 564.113 58.266 575.975C57.7284 577.789 56.7203 579.57 55.5442 581.25C54.5026 582.93 52.7216 582.93 51.1759 582.023C49.6302 581.25 48.1853 580.242 46.6397 579.335C37.1302 573.522 27.5872 567.742 18.0442 561.929C17.4058 561.526 16.4985 561.291 15.7257 561.022C12.9031 559.879 11.8614 556.653 13.4071 554.066C13.9111 553.293 14.18 552.252 14.3144 551.243C16.6329 535.518 19.0859 519.926 23.0845 504.57C23.723 501.983 24.4958 499.429 25.2687 496.976C25.4031 496.338 25.6383 495.8 25.9071 495.161C26.4111 493.885 27.4528 493.246 28.8641 493.616C30.2754 494.019 30.6786 495.161 30.5442 496.338C30.2754 498.387 29.9058 500.437 29.5026 502.655C26.68 519.254 23.8574 535.887 21.0012 552.52C20.7324 553.663 21.0012 554.335 22.1773 554.839C23.5886 555.477 24.8654 556.385 26.5456 557.292C26.68 556.519 26.8144 555.881 26.9488 555.242C29.3681 540.289 31.8211 525.336 34.4085 510.518C35.0469 506.519 36.223 502.756 37.231 498.891C37.4999 498.118 37.6343 497.11 38.1383 496.573C38.9112 495.934 39.9528 495.161 40.8601 495.027C42.137 494.926 43.0442 496.069 43.0442 497.346C43.0442 498.656 42.9098 500.067 42.7754 501.344C39.9528 521.069 37.1302 540.659 34.2741 560.383C34.1396 561.425 34.2741 562.063 35.3157 562.567C36.0886 562.971 36.727 563.475 37.7687 564.113C38.5415 560.518 39.18 557.157 39.8184 553.663C42.9098 537.299 46.0012 520.934 50.9071 504.973C51.4112 503.428 51.9488 501.882 52.4528 500.336C52.9569 499.026 53.7297 498.018 55.4098 498.387C57.0899 498.79 57.2243 500.336 57.0899 501.613C56.5859 505.612 55.9475 509.61 55.1746 513.609C51.9488 531.653 48.723 549.799 45.6316 567.843C45.4972 568.381 45.766 569.153 46.1356 569.523C46.9085 570.934 48.1854 571.976 49.8655 573.387Z" fill="#5D4037"/>
<path d="M214.18 376.075C212.903 399.429 201.949 421.976 177.722 436.391C149.899 453.024 114.818 445.161 96.0013 418.615C78.3601 393.75 78.8642 367.708 92.2714 341.162C95.766 334.207 100.907 328.528 106.183 322.849C115.591 312.668 127.318 307.123 140.591 305.074C165.726 301.075 186.089 309.845 201.31 330.208C210.316 342.305 214.18 356.619 214.18 376.075ZM208.132 373.891C207.493 353.528 201.31 337.029 186.996 324.16C176.042 314.214 162.903 309.576 148.085 309.98C132.728 310.349 119.59 316.935 108.904 327.117C86.223 348.757 82.4932 382.661 97.5469 410.114C110.954 434.61 141.129 446.438 169.22 433.568C195.128 421.707 206.855 400.302 208.132 373.891Z" fill="#5D4037"/>
<path d="M374.127 353.529C374.127 347.077 374.127 340.659 374.127 334.073C374.127 330.578 374.395 327.117 374.53 323.757C374.664 322.346 375.672 321.573 377.487 321.707C381.855 321.943 386.257 322.715 390.356 324.261C392.574 325.168 394.893 326.076 397.077 326.849C398.757 327.386 399.395 328.529 399.53 330.074C399.664 336.66 399.899 343.078 399.765 349.664C399.664 357.662 399.127 365.76 398.992 373.757C398.891 380.343 397.447 382.023 390.894 382.023C386.492 382.023 382.258 381.486 377.856 380.982C376.58 380.847 375.303 380.209 374.261 379.436C373.623 378.932 373.085 377.621 373.085 376.714C373.219 368.986 373.623 361.257 373.858 353.529C373.992 353.529 373.992 353.529 374.127 353.529ZM376.983 326.076C376.983 327.756 376.983 328.932 376.983 330.074C377.218 339.113 377.621 348.119 377.856 357.259C377.991 362.937 378.125 368.616 378.125 374.396C378.125 375.572 378.529 376.076 379.671 376.21C383.804 376.345 388.038 376.479 392.171 376.613C393.347 376.613 393.717 376.21 393.717 375.068C393.986 365.121 394.221 355.343 394.355 345.397C394.49 341.029 394.49 336.66 394.355 332.393C394.355 331.889 393.851 330.847 393.347 330.713C387.937 329.033 382.628 327.621 376.983 326.076Z" fill="#5D4037"/>
<path d="M439.852 401.613C440.121 394.657 440.39 387.567 440.491 380.612C440.491 380.477 440.491 380.208 440.491 380.074C440.491 377.117 440.76 376.714 443.851 376.714C450.941 376.848 458.031 377.117 465.256 377.487C472.581 377.89 480.074 378.528 487.399 379.167C490.39 379.436 491.028 380.208 491.163 383.031C491.801 391.667 492.44 400.303 493.078 408.938C493.347 412.03 493.481 415.121 493.616 418.213C493.717 420.161 492.07 421.338 489.079 421.842C485.081 422.48 480.981 422.749 476.983 422.883C467.171 423.118 457.393 423.253 447.715 423.387C446.035 423.387 444.355 423.522 442.708 423.253C441.936 423.118 441.264 422.48 440.76 421.842C440.491 421.438 440.491 420.8 440.491 420.296C440.491 413.979 440.491 407.661 440.491 401.479C440.121 401.613 439.987 401.613 439.852 401.613ZM442.574 380.612C443.078 393.347 442.708 406.485 444.489 419.523C447.211 419.254 449.664 418.885 452.117 418.75C463.575 418.112 475.034 417.574 486.526 416.936C489.617 416.801 489.752 416.667 489.617 413.575C489.483 408.938 489.079 404.436 488.945 399.799C488.844 394.657 488.945 389.617 488.945 384.711C473.488 383.3 458.165 382.023 442.574 380.612Z" fill="#5D4037"/>
<path d="M121.539 330.847C121.136 331.25 120.766 331.62 120.363 332.023C107.225 344.12 101.311 359.342 101.68 376.983C102.083 391.432 107.493 403.663 118.582 413.072C133.501 425.841 154.637 425.572 170.128 412.433C192.54 393.482 193.817 359.342 172.95 337.803C167.272 331.889 160.854 327.252 152.587 325.706C146.136 324.53 139.718 324.261 133.401 326.345C132.359 326.714 131.452 326.613 131.082 325.437C130.679 324.261 131.452 323.623 132.493 323.253C147.312 318.851 160.854 321.943 172.95 330.982C181.721 337.433 186.727 346.439 189.449 356.889C194.221 375.437 191.633 393.112 180.813 409.208C163.676 434.476 129.536 436.257 109.677 413.072C94.5901 395.531 91.9019 368.112 103.226 348.119C107.225 341.163 112.366 335.216 119.22 331.116C119.725 330.713 120.363 330.578 121.001 330.343C121.27 330.578 121.405 330.713 121.539 330.847Z" fill="#5D4037"/>
</svg>
